<?xml version="1.0" encoding="utf-8"?>
<!-- Generator: Adobe Illustrator 24.1.1, SVG Export Plug-In . SVG Version: 6.00 Build 0)  -->
<svg version="1.1" id="Layer_1" xmlns="http://www.w3.org/2000/svg" xmlns:xlink="http://www.w3.org/1999/xlink" x="0px" y="0px"
	 viewBox="0 0 735.8 468.3" style="enable-background:new 0 0 735.8 468.3;" xml:space="preserve">
<style type="text/css">
	.st0{opacity:0.5;}
	.st1{fill:#4C759E;}
	.st2{fill:#021D38;}
	.st3{fill:#06386A;}
	.st4{fill:#AFCAE6;}
	.st5{fill:#F5F5F5;}
	.st6{fill:#995037;}
	.st7{fill:#718F9E;}
	.st8{fill:#556D79;}
	.st9{fill:#263238;}
	.st10{fill:#0C253D;}
	.st11{fill:#270505;}
	.st12{fill:#462E02;}
	.st13{fill:#E4C486;}
	.st14{fill:#521414;}
	.st15{fill:#E0E0E0;}
	.st16{fill:#3572AD;}
	.st17{fill:#EBEBEB;}
	.st18{fill:#F8A900;}
	.st19{fill:#628AB3;}
	.st20{fill:#071624;}
	.st21{fill:#06376B;}
	.st22{opacity:0.3;fill:#FFFFFF;enable-background:new    ;}
	.st23{fill:none;}
	.st24{fill:#020303;}
	.st25{fill:#474747;}
	.st26{fill:#575756;}
	.st27{fill:#06315C;}
	.st28{fill:#6DA5DC;}
	.st29{opacity:0.2;fill:#FFFFFF;enable-background:new    ;}
	.st30{fill:#FFFFFF;}
	.st31{fill:#041D43;}
	.st32{opacity:0.9;fill:#115CA7;enable-background:new    ;}
	.st33{fill:#093866;}
	.st34{fill:#130015;}
	.st35{opacity:0.7;fill:#115CA7;enable-background:new    ;}
	.st36{opacity:0.8;fill:#CEE6FF;enable-background:new    ;}
	.st37{fill:#184282;}
	.st38{fill:#235182;}
	.st39{opacity:0.6;fill:#115CA7;enable-background:new    ;}
	.st40{fill:none;stroke:#F8A900;stroke-width:0.5;stroke-miterlimit:10;}
	.st41{fill:#DDBCA6;}
	.st42{fill:#33343D;}
	.st43{fill:#1F2020;}
	.st44{fill:#102E4E;}
	.st45{fill:#97B7D8;}
	.st46{fill:#FDBD8E;}
	.st47{fill:#AA6550;}
	.st48{fill:#0B3D88;}
	.st49{fill:#455A64;}
	.st50{fill:#FAFAFA;}
	.st51{fill:#4F473E;}
	.st52{fill:#332210;}
	.st53{fill:#D39484;}
	.st54{opacity:0.4;fill:#B57662;enable-background:new    ;}
	.st55{fill:#004B96;}
	.st56{fill:#ADADAD;}
	.st57{fill:#092A5A;}
	.st58{fill:#C6E7FF;}
	.st59{fill:#F36500;}
	.st60{fill:#003D59;}
	.st61{fill:#C7C7C7;}
	.st62{fill:#003F5F;}
	.st63{fill:#538EAA;}
	.st64{fill:#0D2B59;}
	.st65{font-family:'AcuminPro-Bold';}
	.st66{font-size:3px;}
	.st67{fill:#050404;}
	.st68{fill:#5E1F04;}
	.st69{fill:#171211;}
	.st70{fill:#FFBE9D;}
	.st71{fill:#EB996E;}
	.st72{fill:#2C5989;}
	.st73{fill:#7DA3CB;}
	.st74{fill:#EDCE90;}
	.st75{fill:#BDA066;}
	.st76{fill:#7A4F24;}
	.st77{fill:#FFD100;}
	.st78{fill:#B5B5B5;}
	.st79{fill:#638DB9;}
	.st80{fill:#F0EBD5;}
	.st81{fill:#EDC200;}
	.st82{fill:#FFD5A8;}
	.st83{fill:#C2C2C2;}
	.st84{fill:#DBDBDB;}
	.st85{fill:#363636;}
	.st86{fill:#0A842C;}
	.st87{fill:#38CB1C;}
	.st88{opacity:0.2;}
	.st89{fill:#38BC1C;}
	.st90{fill:#768526;}
	.st91{fill:#96A830;}
	.st92{fill:#A5BA36;}
	.st93{fill:#F0F0F0;}
	.st94{clip-path:url(#SVGID_2_);}
	.st95{clip-path:url(#SVGID_4_);}
	.st96{fill:#D1D1D1;}
	.st97{fill:#4A4A4A;}
	.st98{fill:#666666;}
	.st99{fill:#6C3509;}
	.st100{fill:#0D2238;}
	.st101{fill:#6392C0;}
	.st102{opacity:0.3;}
	.st103{fill:#1A1A1B;}
	.st104{fill:#232325;}
	.st105{fill:#B50000;}
	.st106{fill:#FB9988;}
	.st107{fill:#FFDABA;}
	.st108{fill:#FD7D6F;}
	.st109{fill:#49494A;}
	.st110{fill:#161818;}
</style>
<g>
	<g id="Background_Simple" class="st0">
		
			<image style="overflow:visible;opacity:0.3;enable-background:new    ;" width="1337" height="1216" xlink:href="29BAC359.png"  transform="matrix(0.22 0 0 0.21 0 9.03)">
		</image>
	</g>
	<g id="Background_Complete">
		<polygon class="st1" points="295.2,441.5 295.2,465.7 330.6,465.7 369.6,465.7 369.6,441.5 		"/>
		<polygon class="st2" points="292,434.8 292,441.5 372.2,441.5 372.2,434.8 330.6,434.8 		"/>
		<polygon class="st3" points="332.1,465.7 369.6,465.7 369.6,441.5 372.2,441.5 372.2,434.8 330.6,434.8 330.6,440.9 		"/>
		<rect x="305.6" y="445.4" class="st2" width="15.1" height="3.6"/>
		<rect x="303.6" y="453.6" class="st4" width="19.4" height="7.7"/>
		<polygon class="st1" points="302,410.6 302,434.8 337.4,434.8 376.4,434.8 376.4,410.6 		"/>
		<polygon class="st2" points="298.9,403.8 298.9,410.6 379,410.6 379,403.8 337.4,403.8 		"/>
		<polygon class="st3" points="339,434.8 376.4,434.8 376.4,410.6 379,410.6 379,403.8 337.4,403.8 337.4,410 		"/>
		<rect x="310.5" y="422.7" class="st4" width="19.4" height="7.7"/>
		<rect x="312.4" y="414.5" class="st2" width="15.1" height="3.6"/>
		<path class="st5" d="M50.1,292.9c0,0-3.9,2.9-3.9,6.8v19.9h29.1v-20.8c0,0-0.4-5.1-3.8-6L50.1,292.9z"/>
		<path class="st6" d="M48.5,318.6c-0.3-2-0.4-4.1-0.4-6.1c0.1-2.1,1.4-3.9,3.4-4.5c1.5-0.4,3.1,0.1,4.7,0.4c2.6,0.4,5.2,0,7.5-1.1
			c2-1,3.8-2.5,5.9-2.7c1.4-0.1,3.1,0.5,3.5,1.9c0.1,0.7,0.1,1.3,0,2c-0.5,3.1,0.1,6.9,0.1,9.8C65.1,318.7,56.6,318.4,48.5,318.6"/>
		<polyline class="st7" points="44.4,322.5 48.8,319.7 75.3,319.7 79.6,322.5 44.4,322.5 		"/>
		<path class="st8" d="M43.6,257.7v29.7h36v35.1H44.4v8.4H105v-73.2c0-3.5-2.8-6.3-6.3-6.3l0,0H49.9
			C46.4,251.4,43.6,254.2,43.6,257.7z"/>
		<path class="st9" d="M105,258.4c0,0.1-13.8,0.3-30.7,0.3s-30.7-0.1-30.7-0.3s13.8-0.3,30.7-0.3S105,258.2,105,258.4z"/>
		<path class="st9" d="M88,331c-0.1,0-0.3-17.8-0.3-39.7s0.1-39.7,0.3-39.7s0.3,17.8,0.3,39.7S88.1,331,88,331z"/>
		<path class="st10" d="M40.3,310.1l-0.4-9c-0.1-2.6,0.6-5.2,2-7.3c1.1-1.9,3.1-3.1,5.3-3.2h24.2v2.4H47.7c0,0-4.3,0.5-4.8,6.3
			c-0.3,3.6-0.3,7.2,0,10.8L40.3,310.1z"/>
		<rect x="62.4" y="445.9" class="st11" width="10.6" height="19.2"/>
		<rect x="109.4" y="445.9" class="st11" width="10.6" height="19.2"/>
		<rect x="39" y="330.9" class="st12" width="88.1" height="115"/>
		<rect x="28.5" y="330.9" class="st13" width="85.8" height="115"/>
		<rect x="30.4" y="445.9" class="st14" width="10.6" height="19.2"/>
		<rect x="91.6" y="445.9" class="st14" width="10.6" height="19.2"/>
		<path class="st12" d="M101.9,432.8c0,0,0-0.2,0-0.5v-1.5c0-1.3,0-3.2,0-5.6c0-4.9,0-12-0.1-20.8l0.1,0.1H28.2l0,0l0.2-0.2v28.4
			l-0.2-0.2l52.8,0.1h15.3h4.1l0,0h-4.1H81l-52.9,0.1h-0.2v-28.6h0.2h73.7h0.1v0.1c0,8.8,0,15.9-0.1,20.9c0,2.4,0,4.3,0,5.6v1.4
			C101.9,432.6,101.9,432.8,101.9,432.8z"/>
		<path class="st12" d="M67.3,418.6c-0.1-0.2-0.1-0.3-0.1-0.5c-0.3-1.1-1.5-1.8-2.6-1.5h-0.1c-0.8,0.3-1.3,1.1-1.3,1.9
			c0,1.2,0.9,2.1,2.1,2.1c0.4,0,0.9-0.1,1.2-0.4c0.4-0.3,0.7-0.7,0.8-1.1C67.1,419,67.2,418.8,67.3,418.6c0.1,0.2,0.1,0.4,0,0.6
			c-0.1,0.5-0.4,1-0.8,1.3c-0.6,0.5-1.5,0.6-2.2,0.4c-1.2-0.4-1.9-1.8-1.5-3s1.8-1.9,3-1.5c0.3,0.1,0.5,0.2,0.7,0.4
			c0.4,0.3,0.7,0.8,0.8,1.3C67.3,418.2,67.3,418.4,67.3,418.6z"/>
		<path class="st12" d="M101.9,398.8c0,0,0-0.2,0-0.5v-1.5c0-1.3,0-3.2,0-5.6c0-4.9,0-12-0.1-20.8l0.1,0.1l-73.7,0.1l0,0l0.2-0.2
			v28.4l-0.2-0.2l52.8,0.1h15.3h4.1l0,0h-4.1H81l-52.9,0.1h-0.2v-28.6h0.2h73.7h0.1v0.1c0,8.8,0,15.9-0.1,20.9c0,2.4,0,4.3,0,5.6
			v1.5C101.9,398.6,101.9,398.8,101.9,398.8z"/>
		<path class="st12" d="M67.3,384.6c-0.1-0.2-0.1-0.4-0.1-0.5c-0.1-0.5-0.4-0.9-0.8-1.1c-0.9-0.7-2.2-0.5-2.9,0.4
			c-0.7,0.9-0.5,2.2,0.4,2.9c0.1,0.1,0.3,0.2,0.5,0.3c1.1,0.4,2.3-0.2,2.7-1.3c0-0.1,0-0.1,0.1-0.2
			C67.1,384.9,67.2,384.8,67.3,384.6c0.1,0.1,0.1,0.3,0,0.5c-0.1,0.5-0.4,1-0.8,1.3c-0.6,0.5-1.5,0.6-2.2,0.4
			c-1.2-0.4-1.9-1.8-1.4-3c0.2-0.7,0.8-1.2,1.4-1.4c0.8-0.3,1.6-0.1,2.2,0.4c0.4,0.3,0.7,0.8,0.8,1.3
			C67.3,384.2,67.3,384.4,67.3,384.6z"/>
		<path class="st12" d="M101.9,365.3c0,0,0-0.2,0-0.5v-1.5c0-1.3,0-3.2,0-5.6c0-4.9,0-12-0.1-20.8l0.1,0.1H28.3l0,0l0.2-0.2v28.4
			l-0.2-0.2l52.8,0.1h15.3h4.1h1.4h-0.3h-1h-4.1H81.2l-52.9,0.1h-0.2v-28.5h0.2l73.7,0.1h0.1v0.1c0,8.8,0,15.9-0.1,20.8
			c0,2.4,0,4.3,0,5.6v1.5C101.9,365.1,101.9,365.3,101.9,365.3z"/>
		<path class="st12" d="M67.3,351.1c-0.1-0.2-0.1-0.4-0.1-0.5c-0.1-0.5-0.4-0.9-0.8-1.1c-0.9-0.7-2.2-0.5-2.9,0.4
			c-0.7,0.9-0.5,2.2,0.4,2.9c0.7,0.5,1.7,0.5,2.5,0c0.4-0.3,0.7-0.7,0.8-1.1C67.1,351.5,67.2,351.3,67.3,351.1
			c0.1,0.2,0.1,0.4,0,0.6c-0.1,0.5-0.4,1-0.8,1.3c-0.6,0.5-1.5,0.6-2.2,0.4c-1.2-0.4-1.9-1.8-1.4-3c0.4-1.2,1.8-1.9,3-1.4
			c0.2,0.1,0.5,0.2,0.7,0.4c0.4,0.3,0.7,0.8,0.8,1.3C67.3,350.7,67.3,350.9,67.3,351.1z"/>
		<path class="st15" d="M104.2,331c0,0.1-13.4,0.3-29.8,0.3s-29.8-0.1-29.8-0.3s13.4-0.3,29.8-0.3S104.2,330.8,104.2,331z"/>
		<rect x="355.7" y="158.4" class="st16" width="77.5" height="69.3"/>
		<path class="st9" d="M433.2,227.8c0,0,0-0.4,0-1.3s0-2.1,0-3.7c0-3.3,0-8,0-14.1c0-12.1-0.1-29.4-0.1-50.3l0.2,0.2h-77.5l0,0
			l0.2-0.2c0,25.2,0,49,0,69.3l-0.2-0.2l56.1,0.1h15.8h4.2l0,0h-4.1H412l-56.2,0.1h-0.2v-0.2c0-20.4,0-44.1,0-69.3V158h0.2h77.5h0.2
			v0.2c0,20.9-0.1,38.2-0.1,50.4c0,6.1,0,10.8,0,14c0,1.6,0,2.8,0,3.7S433.2,227.8,433.2,227.8z"/>
		<path class="st15" d="M385.4,170.8c0,0.1-4.1,0.2-9.1,0.2s-9.1-0.1-9.1-0.2s4.1-0.2,9.1-0.2S385.4,170.6,385.4,170.8z"/>
		<path class="st15" d="M418.3,176c0,0.1-11.2,0.2-25,0.2s-25-0.1-25-0.2s11.2-0.2,25-0.2S418.3,175.8,418.3,176z"/>
		<rect x="367.3" y="184.8" class="st15" width="3.3" height="3.3"/>
		<rect x="375.4" y="184.8" class="st15" width="3.3" height="3.3"/>
		<rect x="383.5" y="184.6" class="st15" width="3.3" height="3.3"/>
		<rect x="391.4" y="184.8" class="st15" width="3.3" height="3.3"/>
		<rect x="399.5" y="184.8" class="st15" width="3.3" height="3.3"/>
		<rect x="407.5" y="184.8" class="st15" width="3.3" height="3.3"/>
		<rect x="415.5" y="184.8" class="st17" width="3.3" height="3.3"/>
		<rect x="367.3" y="191.7" class="st17" width="3.3" height="3.3"/>
		<rect x="375.4" y="191.7" class="st15" width="3.3" height="3.3"/>
		<rect x="383.4" y="191.7" class="st17" width="3.3" height="3.3"/>
		<rect x="391.4" y="191.7" class="st15" width="3.3" height="3.3"/>
		<rect x="399.5" y="191.7" class="st15" width="3.3" height="3.3"/>
		<rect x="407.7" y="191.6" class="st15" width="3.3" height="3.3"/>
		<rect x="415.5" y="191.7" class="st15" width="3.3" height="3.3"/>
		<rect x="367.3" y="198.7" class="st15" width="3.3" height="3.3"/>
		<rect x="375.5" y="198.5" class="st15" width="3.3" height="3.3"/>
		<rect x="383.4" y="198.7" class="st15" width="3.3" height="3.3"/>
		<rect x="391.4" y="198.7" class="st17" width="3.3" height="3.3"/>
		<rect x="399.5" y="198.7" class="st15" width="3.3" height="3.3"/>
		<rect x="407.5" y="198.7" class="st15" width="3.3" height="3.3"/>
		<rect x="415.5" y="198.7" class="st15" width="3.3" height="3.3"/>
		<rect x="367.3" y="205.6" class="st15" width="3.3" height="3.3"/>
		<rect x="375.4" y="205.6" class="st15" width="3.3" height="3.3"/>
		<rect x="383.4" y="205.6" class="st15" width="3.3" height="3.3"/>
		<rect x="391.6" y="205.4" class="st15" width="3.3" height="3.3"/>
		<rect x="399.5" y="205.6" class="st15" width="3.3" height="3.3"/>
		<rect x="407.5" y="205.6" class="st17" width="3.3" height="3.3"/>
		<rect x="415.5" y="205.6" class="st15" width="3.3" height="3.3"/>
		<rect x="367.3" y="212.5" class="st15" width="3.3" height="3.3"/>
		<rect x="375.4" y="212.5" class="st17" width="3.3" height="3.3"/>
		<rect x="383.4" y="212.5" class="st15" width="3.3" height="3.3"/>
		<rect x="391.4" y="212.5" class="st15" width="3.3" height="3.3"/>
		<rect x="399.5" y="212.5" class="st15" width="3.3" height="3.3"/>
		<rect x="407.7" y="212.4" class="st15" width="3.3" height="3.3"/>
		<rect x="415.5" y="212.5" class="st15" width="3.3" height="3.3"/>
		<polygon class="st1" points="373.1,216 372,212.3 374.1,212.4 374.3,215.8 		"/>
		<polyline class="st1" points="370,215.9 367.6,228.9 361.5,246.1 395.7,241.2 381.9,226.1 376.2,215 370,215.9 		"/>
		<path class="st18" d="M302.7,307.3c0-0.2,0-0.4,0-0.5c-0.2-6,4.5-11,10.5-11.2s11,4.5,11.2,10.5c0,0.2,0,0.4,0,0.7
			c0,0.2,0,0.4,0,0.5H302.7z"/>
		<path class="st18" d="M313.6,296.3c-0.2,0-0.4-0.1-0.4-0.3l-14.4-54.8c-0.1-0.2,0.1-0.5,0.3-0.5s0.5,0.1,0.5,0.3l14.4,54.8
			c0.1,0.2-0.1,0.5-0.3,0.5H313.6z"/>
		<path class="st18" d="M309.8,297.7c-0.2,0-0.4-0.1-0.4-0.3L295,242.6c-0.1-0.2,0.1-0.5,0.3-0.5s0.5,0.1,0.5,0.3l14.4,54.8
			c0.1,0.2-0.1,0.5-0.3,0.5H309.8z"/>
		<path class="st18" d="M294.3,241.6c0,1.5,1.2,2.7,2.7,2.7s2.7-1.2,2.7-2.7s-1.2-2.7-2.7-2.7l0,0
			C295.5,238.9,294.3,240.1,294.3,241.6z"/>
		<polygon class="st18" points="297.2,241.9 296.8,241.2 347.7,206.1 377.6,223 377.1,223.8 347.8,207.1 		"/>
		
			<rect x="294.3" y="225.7" transform="matrix(0.8221 -0.5693 0.5693 0.8221 -70.9362 225.1716)" class="st18" width="61.1" height="0.9"/>
		<path class="st18" d="M346.1,207.9c0,1.3,1.1,2.4,2.4,2.4s2.4-1.1,2.4-2.4c0-1.3-1.1-2.4-2.4-2.4S346.1,206.6,346.1,207.9
			L346.1,207.9z"/>
		<polygon class="st19" points="373.5,79.3 329.8,94 428.5,94 387.5,79.3 		"/>
		<path class="st18" d="M385.8,93c-0.2,0.9-0.3,1.7-0.3,2.6c-0.1,2.4,0.5,4.7,1.6,6.8c0.7,1.3,1.6,2.7,2.3,4.4
			c0.8,1.8,1,3.8,0.6,5.7c-0.4,2.1-1.5,4-3.1,5.5c-1.7,1.6-4,2.4-6.3,2.4s-4.6-0.7-6.4-2.2c-3.2-2.7-4.3-7.1-2.8-11.1
			c0.7-1.5,1.6-2.9,2.6-4.2c0.8-1,1.6-2.2,2.1-3.4c0.4-0.9,0.6-1.9,0.7-2.9c0-0.9-0.2-1.7-0.6-2.5c0.1,0.2,0.3,0.4,0.4,0.6
			c0.3,0.6,0.4,1.3,0.4,1.9c0,1-0.2,2.1-0.6,3c-0.6,1.3-1.3,2.4-2.1,3.5c-1,1.3-1.9,2.7-2.5,4.2c-1.4,3.7-0.3,7.9,2.8,10.5
			c1.7,1.4,3.9,2.1,6.1,2.1s4.3-0.8,6-2.3c1.5-1.4,2.6-3.2,3-5.2c0.4-1.8,0.2-3.7-0.5-5.4c-0.6-1.6-1.5-3-2.2-4.4
			c-1.2-2.1-1.7-4.6-1.5-7c0-0.7,0.1-1.3,0.3-1.9C385.6,93.4,385.7,93.2,385.8,93z"/>
		<path class="st18" d="M382.1,93.9c-0.1,0.6-0.1,1.2-0.3,1.8c-0.2,1.7-0.4,3.3-0.5,5c-0.1,2.5,0,5,0.3,7.4c0.1,0.3,0.2,0.6,0.4,0.8
			c0.2,0.2,0.5,0.3,0.8,0.3c0.5-0.1,0.8-0.9,0.7-1.6c-0.3-1.7-1.9-2.9-3.6-2.6c-1.3,0.2-2.3,1.2-2.6,2.5c-0.1,0.7,0.2,1.3,0.8,1.6
			c0.6,0.1,1.2-0.2,1.4-0.8c0.2-0.6,0.3-1.3,0.3-2s0.1-1.3,0.1-1.9c0-1.2,0-2.3-0.1-3.5c-0.2-1.7-0.4-3.4-0.8-5
			c-0.3-1.2-0.5-1.8-0.4-1.8c0.1,0.1,0.1,0.3,0.2,0.4c0.1,0.3,0.3,0.7,0.4,1.3c0.5,1.6,0.8,3.3,1,5c0.1,1.2,0.2,2.3,0.2,3.5
			c0,0.6,0,1.3-0.1,1.9c0,0.7-0.1,1.4-0.4,2.1c-0.2,0.4-0.4,0.7-0.8,0.9c-0.4,0.3-0.8,0.3-1.3,0.2c-0.8-0.3-1.3-1.2-1.2-2.1
			c0.3-2,2.2-3.3,4.2-3c1.6,0.3,2.8,1.5,3,3.1c0.1,0.4,0,0.9-0.2,1.3s-0.5,0.8-1,0.9s-0.9-0.1-1.2-0.4c-0.3-0.3-0.4-0.7-0.5-1.1
			c-0.3-2.5-0.4-5-0.2-7.5c0.1-1.7,0.3-3.3,0.7-5c0.1-0.6,0.2-1,0.3-1.3C382,94.2,382.1,94,382.1,93.9z"/>
		<path class="st20" d="M380.5,4.3c0,0.3,0.1,0.5,0,0.8c0,0.5,0,1.3,0,2.2c0,1.9,0,4.6,0.1,7.9c0,6.8,0,16,0.1,26.2
			s-0.1,19.5-0.1,26.2c0,3.3-0.1,6-0.1,8c0,0.9,0,1.6,0,2.2c0,0.3,0,0.5,0,0.8c0-0.3-0.1-0.5,0-0.8c0-0.5,0-1.3,0-2.2
			c0-1.9,0-4.6-0.1-8c0-6.8,0-16-0.1-26.2s0-19.4,0.1-26.2c0-3.3,0.1-6,0.1-7.9c0-0.9,0-1.6,0-2.2C380.4,4.8,380.5,4.6,380.5,4.3z"
			/>
		<polygon class="st21" points="373.5,79.3 376.2,67.2 385.2,67.2 387.5,79.3 		"/>
		<rect x="648.3" y="93.4" class="st22" width="6" height="20.2"/>
		<rect x="656.4" y="99.8" class="st22" width="6" height="13.9"/>
		<line class="st23" x1="664.6" y1="105.9" x2="664.6" y2="113.7"/>
		<rect x="729.8" y="93.4" class="st22" width="6" height="20.2"/>
		<path class="st24" d="M562.5,100.9h33.7c4.4,0,8-2.9,8-6.6V79.4c0-3.6-3.6-6.6-8-6.6h-33.7c-4.4,0-8,2.9-8,6.6v14.9
			C554.5,98,558,100.9,562.5,100.9z"/>
		<path class="st25" d="M579.3,161c3.2,0,5.9-2.2,5.9-4.8V88.3c0-2.7-2.6-4.8-5.9-4.8s-5.9,2.2-5.9,4.8v67.8
			C573.4,158.8,576,161,579.3,161z"/>
		<path class="st26" d="M559.4,80.6c-0.3,1.6,0.7,3.1,2.3,3.4s3.1-0.7,3.4-2.3s-0.7-3.1-2.3-3.4c-0.2,0-0.4-0.1-0.6-0.1
			C560.9,78.1,559.6,79.1,559.4,80.6z"/>
		<path class="st26" d="M592.9,80.6c-0.3,1.6,0.7,3.1,2.3,3.4s3.1-0.7,3.4-2.3s-0.7-3.1-2.3-3.4c-0.2,0-0.4-0.1-0.6-0.1
			C594.3,78.1,593,79.1,592.9,80.6z"/>
		<rect x="506.3" y="92.2" class="st24" width="155.5" height="123.3"/>
		<rect x="513" y="92.2" class="st26" width="153" height="123.3"/>
		<rect x="519.6" y="97.7" class="st27" width="139.7" height="108"/>
		<rect x="518.6" y="99.9" class="st28" width="137" height="105.7"/>
		<rect x="649.6" y="208.4" width="6.8" height="2.6"/>
		<rect x="528.8" y="105.1" class="st29" width="118.5" height="28.3"/>
		<rect x="528.8" y="137.5" class="st29" width="118.5" height="24.2"/>
		<path class="st30" d="M528.8,162.2c-0.2,0-0.4-0.1-0.5-0.2c-0.2-0.1-0.2-0.4-0.1-0.5c0-0.1,0.1-0.1,0.2-0.1l19.3-10.6l5.2,2.9
			l5.3-4l3.3,2.2l16.2-7.9l9,5.6l11.8-5.5l5.5,1.7l15.3-6.4l10.1,6.3l17.5-8.6c0.3-0.2,0.7-0.1,0.9,0.1c0.2,0.2,0.1,0.5-0.2,0.7
			l-18.3,9l-10.2-6.3l-15.1,6.3l-5.5-1.7l-12.1,5.7l-9-5.6l-16.2,7.9l-3.1-2.1l-5.2,3.9l-5.3-3l-18.5,10.2
			C529.1,162.2,528.9,162.2,528.8,162.2z"/>
		<path class="st31" d="M528.8,162.2c-0.2,0-0.5-0.1-0.6-0.3c-0.2-0.2,0-0.5,0.3-0.6l17.8-6.4l7.4,2.2l4.7-2.2l2.7,0.6l15.2-6.4
			l7.8,3.9l33-6.5l9.1,2.7h21.1c0.4,0,0.7,0.2,0.7,0.5s-0.3,0.5-0.7,0.5h-21.5l-8.8-2.6l-33,6.4l-7.7-3.8l-15,6.3l-2.7-0.6l-4.8,2.2
			l-7.5-2.2l-17.3,6.2C529,162.1,528.9,162.1,528.8,162.2z"/>
		<rect x="528.8" y="110.8" class="st32" width="8.1" height="22.6"/>
		<rect x="539.8" y="117.9" class="st32" width="8.1" height="15.5"/>
		<rect x="550.9" y="124.8" class="st32" width="8.1" height="8.6"/>
		<rect x="562" y="115.1" class="st31" width="8.1" height="18.3"/>
		<rect x="573" y="119.2" class="st33" width="8.1" height="14.2"/>
		<rect x="584" y="107.5" class="st31" width="8.1" height="25.9"/>
		<rect x="595.1" y="125.6" class="st32" width="8.1" height="7.7"/>
		<rect x="606.1" y="120.4" class="st32" width="8.1" height="12.9"/>
		<rect x="617.2" y="115.1" class="st33" width="8.1" height="18.3"/>
		<rect x="628.2" y="127.7" class="st31" width="8.1" height="5.6"/>
		<rect x="639.3" y="110.8" class="st32" width="8.1" height="22.6"/>
		<path class="st31" d="M533.2,203.3l-1.2-0.7l10.9-12l18.4-3.7c3.3-3.9,8.3-9.9,8.9-10.7c0.1-0.5,1.7-1,21.1-4.6l0.3,1.2
			c-7.1,1.4-18.6,3.6-20.2,4.1c-0.5,0.8-2.4,3.2-9.1,11l-0.2,0.2l-18.4,3.7L533.2,203.3z M571.6,176.3c0,0.1-0.1,0.2-0.2,0.3
			C571.6,176.5,571.6,176.4,571.6,176.3L571.6,176.3z"/>
		<polygon class="st34" points="589.2,203.5 531.9,203.5 531.9,173.1 533.3,173.1 533.3,202.3 589.2,202.3 		"/>
		<polygon class="st34" points="587.8,201.1 595.7,202.9 587.8,204.6 		"/>
		<polygon class="st34" points="534.8,174.3 532.6,167.7 530.5,174.3 		"/>
		<rect x="538.1" y="198.4" class="st35" width="6.6" height="4"/>
		<rect x="546.3" y="191.8" class="st35" width="6.6" height="10.6"/>
		<rect x="554.5" y="190.3" class="st35" width="6.6" height="12.1"/>
		<rect x="562.7" y="188.7" class="st36" width="6.6" height="13.7"/>
		<rect x="570.9" y="178.9" class="st35" width="6.6" height="23.5"/>
		<rect x="579.1" y="175.8" class="st37" width="6.6" height="26.5"/>
		<path class="st31" d="M610.1,197.4l13.3-13.2l0.1-18.7c-10.5,0.3-18.7,9.1-18.4,19.6C605.2,189.7,607,194.1,610.1,197.4
			L610.1,197.4z"/>
		<path class="st33" d="M624.7,165.6l-0.1,18.3h4.4l14,0.1C642.7,174,634.7,166,624.7,165.6L624.7,165.6z"/>
		<path class="st38" d="M625.5,185.2l2.1,2.1l10.2,10.3c3.2-3.3,5-7.7,5.2-12.3L625.5,185.2z"/>
		<path class="st39" d="M624,203.5c4.8,0,9.4-1.8,12.9-5.1l-12.9-13l-13,12.9C614.5,201.6,619.1,203.4,624,203.5L624,203.5
			L624,203.5z"/>
		<line class="st40" x1="364.7" y1="110.8" x2="355.7" y2="115.1"/>
		<line class="st40" x1="367.2" y1="115.1" x2="363" y2="117.9"/>
		<line class="st40" x1="370.6" y1="117.9" x2="365.1" y2="124.2"/>
		<line class="st40" x1="373.5" y1="122.1" x2="371.8" y2="125.6"/>
		<line class="st40" x1="378.6" y1="122.1" x2="377.1" y2="129"/>
		<path class="st1" d="M384.8,121.1"/>
		<line class="st40" x1="381.8" y1="122.3" x2="381.8" y2="126.3"/>
		<line class="st40" x1="384.8" y1="122.1" x2="386.7" y2="129.1"/>
		<line class="st40" x1="388.1" y1="121.1" x2="390.1" y2="124.3"/>
		<line class="st40" x1="391.4" y1="118.7" x2="396.6" y2="123.8"/>
		<line class="st40" x1="393.2" y1="115.6" x2="396.6" y2="116.9"/>
		<line class="st40" x1="393.2" y1="111.9" x2="402.7" y2="112.9"/>
	</g>
	<g id="Floor">
		<path class="st9" d="M729.1,465.1c0,0.1-159.6,0.3-356.5,0.3s-356.5-0.1-356.5-0.3s159.6-0.3,356.5-0.3S729.1,465,729.1,465.1z"/>
	</g>
	<g id="Character_3">
		<polygon class="st41" points="458.3,177.1 457.6,204 443.3,196.9 443.9,169.1 		"/>
		<polygon class="st42" points="468.8,433.7 472.6,456.3 481.4,456.3 478.4,431.7 		"/>
		<path class="st43" d="M484,445.6c0,0,5,6.5,12.6,8.8s14.5,5.2,13.9,9.8c0,0-11.3,5.5-29.7-0.6v1.9l-12-0.5v-16l10,0.7l-0.7-1.6
			L484,445.6z"/>
		<path d="M488.9,463.8c16.5,4.2,20.6-0.5,21.6-0.8c0.1,0.4,0.1,0.8,0.1,1.2c0,0-11.3,5.5-29.7-0.6v1.9l-12-0.5v-3.2
			C473.1,462,476.7,460.6,488.9,463.8z"/>
		<polygon class="st42" points="429,433.7 425.2,456.3 416.4,456.3 419.4,431.7 		"/>
		<path class="st43" d="M413.8,445.6c0,0-5,6.5-12.6,8.8s-15.3,5.2-14.8,9.7c0,0,12.1,5.5,30.5-0.6v1.9l12-0.5v-16l-10,0.7l0.7-1.6
			L413.8,445.6z"/>
		<path d="M406.4,464.6c-11.5,1.8-19-1.3-19.9-1.6c-0.1,0.4-0.1,0.8-0.1,1.2c0,0,12.1,5.5,30.5-0.6v1.9l12-0.5v-4
			C424.6,461.2,417.5,462.8,406.4,464.6z"/>
		<path class="st44" d="M476,268.6l5.5,104.1l3.5,71.4c0,0-4.6,5.1-20.7,1.7l-3.9-74.9l-7.6-70.4h-6.5l-15,145.1
			c0,0-7.1,3.6-19.8-1.6l13.1-178.1L476,268.6z"/>
		<path class="st45" d="M482.1,195.4c0,0-2.6,54-5.6,80.6c0,0-10.4,4.3-28.1,3.6c-8.2-0.5-16.4-1.9-24.3-4.2l-6.5-87.1
			c0,0,6.1-3.6,25.3-3.6c0,0,0-0.7,4.3,1.9c3.3,2,4.4,16,4.4,16s0.7-14.1,2.6-15.2c1.4-1.1,3-1.8,4.8-2.2c7.2,0.5,14.7,3,23.1,4.6
			L482.1,195.4z"/>
		<path class="st46" d="M530.5,188.2L530.5,188.2c2.1-3.1,3.3-5.4,4.8-7.3c1.8-2.4,2.4-3.5,2-3.8c-0.6-0.4-0.4-0.3-4.3,3.6
			c0,0,5.6-5.5,3.5-5.3c-1,0.1-5.7,4.7-5.7,4.7c4.1-3.3,5.1-5.2,4.6-5.8c-0.8-0.9-6.4,4.7-6.4,4.7c1.7-1.6,3.4-3.3,5-5.1
			c0.5-1-0.8-0.7-1.8-0.2s-7.5,4.9-9.3,6c-0.6,0.4-1.4,0.3-1.8-0.2c0-0.1-0.1-0.1-0.1-0.2c-1.1-3-3.6-4.7-4.5-4.9c-0.6,0-1,0.5-1,1
			c0,0.3,0.1,0.5,0.3,0.7c0.7,0.8,1.2,1.8,1.7,2.8c0.4,0.8,0.6,1.6,0.7,2.5c0.1,1,0.2,1.8,0.2,2.6l0.7,10.8l3.9,4.5L530.5,188.2z"/>
		<path class="st47" d="M531.7,182.3c2-1.6,3.8-3.4,5.3-5.4C535,178.4,533.2,180.2,531.7,182.3z"/>
		<path class="st47" d="M530,180.9c1.2-0.7,2.2-1.5,3.2-2.5c1.1-0.8,2-1.8,2.8-2.9c-1.1,0.7-2.2,1.5-3.1,2.5
			C531.8,178.8,530.9,179.8,530,180.9z"/>
		<path class="st47" d="M528.3,179.5c1.1-0.6,2.1-1.4,3-2.3c1-0.8,1.9-1.7,2.7-2.7C531.9,175.8,530,177.5,528.3,179.5L528.3,179.5z"
			/>
		<path class="st48" d="M446.6,187.3c0,0,3,5.5,8.2,0l1.4,3.2l-2.7,5.7l6.5,67.9l-5.8,7.7l-7.2-7.3l2.5-68.2l-4.6-4.8l-0.2-2.2"/>
		<path class="st45" d="M446.9,243.6c0,0-26.5,11.8-29.2,12.5c-8.9,2-19.2-6.5-16.3-16.1c1-3.6,16.2-51.7,16.2-51.7l12.7,27.3
			l-5.7,19.2l15-1L446.9,243.6z"/>
		<path class="st9" d="M438.3,233.9c-0.3,0.1-0.7,0.1-1,0.1l-2.9,0.2c-2.5,0.2-5.9,0.4-9.8,0.7h-0.3l0.1-0.3l0.9-3
			c1.3-4.5,2.6-8.5,3.5-11.4l1.1-3.4c0.1-0.4,0.3-0.8,0.5-1.3c-0.1,0.4-0.2,0.9-0.3,1.3c-0.3,0.9-0.6,2.1-1,3.5
			c-0.8,2.9-2,7-3.4,11.5c-0.3,1-0.6,2-0.9,3l-0.2-0.3c3.9-0.2,7.4-0.4,9.9-0.5l2.9-0.1C437.6,233.8,437.9,233.8,438.3,233.9z"/>
		<path class="st9" d="M442.8,245.6c0,0.1-4.6,2.2-11.9,5.2s-13.1,5.3-13.2,5.2s5.8-2.6,13-5.6S442.7,245.5,442.8,245.6z"/>
		<path class="st49" d="M440.7,233l-2.1-10.2c-0.1-0.7,0.3-1.4,1-1.5c0.1,0,0.2,0,0.3,0l26.3,0.1c0.7,0,1.3,0.6,1.3,1.3v0.1
			l-2.7,23.3c-0.1,0.9-0.9,1.6-1.8,1.6l-17.2-0.1c-0.8,0-1.5-0.6-1.8-1.4L440.7,233z"/>
		<path class="st46" d="M438.4,227.6L438.4,227.6c1.1,0,2.2,0.7,2.6,1.8c0.3,1.1,0.9,2.1,1.8,2.8c1.3,0.7,3.5,1.3,4.7,0.7
			s5.9-4.8,6.7-4.3s1.5,1.5,0.7,2.5s-5.2,3.8-4.4,4.7s10-3.2,11.4-2.8s2.2,1.2,1.4,1.8s-7,2.9-7.4,3.7c0,0,9.4-2.5,9.8-1.9
			s0.9,1.5,0,1.9s-9,2.5-9.8,2.8c-1.2,0.5-2.4,0.8-3.6,1c-0.3,0-2.1,0.6-3.8,1.2c-1.9,0.7-4,0.6-5.9-0.1l-1-0.4
			c-1.5-0.6-2.4-2.1-2.3-3.7l0.2-3.2l-1-2.6L438.4,227.6z"/>
		<path class="st50" d="M454.2,225.2c0,0.6-0.4,1-1,1s-1-0.4-1-1s0.4-1,1-1S454.2,224.6,454.2,225.2z"/>
		<path class="st46" d="M446.5,135.9c-10.5,2.1-9.4,8.2-9.4,8.2c-0.3,3.5-0.4,7.1-0.3,10.6c-1-1.2-1.5-1.7-3.2-1.1
			c-3.6,1.3-1.3,11,4.2,10.2c0.2,2.7-0.2,4.9,0.2,5.6c1.5,2.8,8.3,7,14.2,7.6s13.5-2.8,13.5-8.8s0.1-28.5,0.1-28.5
			S463.9,132.4,446.5,135.9z"/>
		<path d="M444.1,139.5c0,0-6.4,4.4-5.7,9.5c0.4,2.7,1.2,6.1,1.2,6.1l-2.5,0.8c0,0,0.1-4.9,0.3-8.4c0.2-3.2,1.4-6.3,3.3-8.9
			L444.1,139.5z"/>
		<path d="M469.9,138.2c0.8,1.6-1.7,4.2-4.2,7.7l-4-8.6C461.7,137.2,468.4,135.5,469.9,138.2z"/>
		<path d="M468,135.1c0.7,1,1.4,2,1.9,3.2c-0.6-0.4-1.3-0.6-2-0.6c-1.4,0.1-2.8,0.5-4.1,1.1c-3.7,1.8-7.9,3.8-10.5,4.1
			c-0.8,0.1-0.1-1.6-0.1-1.8l0.1,1.8c-1.4-1.5,0.4-5.4,3.9-7.1S465.3,132.5,468,135.1z"/>
		<path d="M465.1,132c1.1,0.9,2.1,1.9,2.9,3.1c-2.7-2.6-7.4-1-10.9,0.7s-5.3,5.6-3.9,7.1c-1.6,0.3-3.2,0.4-4.8,0.3l0.6-2.7
			C447.4,137.6,456.5,129.8,465.1,132z"/>
		<path d="M463.4,130.8c0.6,0.4,1.1,0.7,1.7,1.2c-8.6-2.2-17.7,5.6-16,8.4l-0.7,2.7c-0.9-0.3-1.7-0.9-2.1-1.8
			c-0.9-3.2,4.1-11.6,16.5-10.8l0,0L463.4,130.8z"/>
		<path d="M462.8,130.5c-12.5-0.8-16.5,8.1-16.1,11.2c0.1,1-1.5-2.1-2-2.9l-0.1-0.2l-0.1-0.1v-0.1c-1.3-2.1,2.3-7.6,12.4-9.4l0,0
			C459,129.1,461,129.6,462.8,130.5z"/>
		<path d="M444.6,132.7c2.1-1.8,7.3-3.8,12.3-3.6c-10.1,1.8-13.7,7.3-12.4,9.4c-0.9-1.4-1.7-2.3-1.7-3.2
			C442.9,134.6,443.4,133.8,444.6,132.7z"/>
		<path d="M445.9,140.3c0.2,0.3,0.2,1.9-0.4,4c0,0-6.5-3.4-9.4,0.9c1-3.9,3.4-7.4,6.8-9.7C444,137.4,445.9,140.3,445.9,140.3z"/>
		<path d="M444.9,141.9c-0.1,0.3-0.2,0.6-0.3,0.9c0,0.2-0.1,0.4-0.1,0.5v0.8c0,0-6.2,0.2-8.8,4.1c0-1,0.1-2.1,0.4-3.1
			C438.9,140.9,444.9,141.9,444.9,141.9z"/>
		<path d="M444.9,143.4l0.6,0.9c-0.6,2.5-3.7,2.3-5.1,3.3c-0.4,0.3-1.1,0.6-1.3,1.3c-0.8,2.3-1.5,4.6-2,6.9c-1-2.4-1.5-4.9-1.4-7.5
			C438.3,144.4,444.9,143.4,444.9,143.4z"/>
		<g>
			<path class="st51" d="M453.9,139.8c-0.1-0.1-0.1-0.2-0.1-0.3s0-0.2,0.1-0.3c0.1-0.2,0.2-0.3,0.3-0.4c0.2-0.3,0.5-0.5,0.7-0.7
				c0.5-0.4,1-0.8,1.6-1.2c1.1-0.7,2.3-1.2,3.6-1.6c1.2-0.4,2.5-0.7,3.8-0.8s2.6,0.2,3.8,0.9v0.1c-1.1-0.6-2.4-0.9-3.7-0.7
				c-1.3,0.1-2.5,0.4-3.7,0.9s-2.4,1-3.5,1.7c-0.6,0.3-1.1,0.6-1.6,1c-0.3,0.2-0.5,0.4-0.8,0.6c-0.1,0.1-0.2,0.2-0.3,0.4
				C454,139.5,453.9,139.7,453.9,139.8L453.9,139.8z"/>
		</g>
		<g>
			<path class="st51" d="M449.9,139c-0.1-0.1-0.1-0.3-0.1-0.5s0.1-0.3,0.1-0.5c0.1-0.3,0.3-0.6,0.5-0.8c0.4-0.5,0.8-1,1.2-1.4
				c0.9-0.8,2-1.5,3.1-2s2.2-0.9,3.4-1.2c1.2-0.3,2.4-0.4,3.6-0.4v0.1c-1.2,0.1-2.3,0.4-3.5,0.7c-1.1,0.4-2.2,0.8-3.3,1.4
				c-1,0.6-2,1.3-2.9,2c-0.5,0.4-0.9,0.7-1.3,1.2c-0.2,0.2-0.4,0.4-0.6,0.7C450.1,138.4,449.9,138.7,449.9,139L449.9,139z"/>
		</g>
		<g>
			<path class="st51" d="M445.7,136.6c-0.1-0.4,0-0.8,0.2-1.1c0.2-0.4,0.4-0.7,0.6-1c0.5-0.6,1.1-1,1.7-1.4c1.2-0.8,2.5-1.5,3.8-2
				l0,0c-1.3,0.7-2.5,1.4-3.6,2.3c-0.5,0.4-1.1,0.9-1.5,1.4c-0.5,0.5-0.9,1.1-1.1,1.7L445.7,136.6z"/>
		</g>
		<g>
			<path class="st51" d="M451.7,138.2c0.4-0.7,0.9-1.2,1.5-1.8c0.6-0.5,1.2-0.9,1.9-1.3c0.6-0.4,1.3-0.7,2-0.9
				c0.7-0.3,1.4-0.5,2.1-0.6v0.1c-1.4,0.5-2.8,1.1-4,1.9c-0.6,0.4-1.2,0.9-1.8,1.3S452.3,137.8,451.7,138.2L451.7,138.2z"/>
		</g>
		<g>
			<path class="st51" d="M448.1,137.4c0.2-0.7,0.6-1.4,1.2-2c0.5-0.6,1.1-1.1,1.8-1.5c1.3-0.8,2.7-1.4,4.1-1.8l0,0
				c-1.4,0.5-2.7,1.2-3.9,2.1c-0.6,0.5-1.1,1-1.6,1.5C449,136.3,448.6,136.8,448.1,137.4L448.1,137.4z"/>
		</g>
		<g>
			<path class="st51" d="M455.8,141.1c0.3,0,0.5-0.1,0.7-0.2c0.2-0.1,0.5-0.3,0.7-0.4c0.4-0.3,0.9-0.6,1.3-0.9
				c0.9-0.5,1.8-1,2.8-1.4s2-0.8,3-1s2.1-0.3,3.1-0.2l0,0c-1,0-2.1,0.1-3.1,0.4c-1,0.3-2,0.7-2.9,1.1c-0.9,0.5-1.8,1-2.7,1.5
				c-0.5,0.3-0.9,0.5-1.4,0.7c-0.2,0.1-0.5,0.2-0.7,0.3C456.3,141.2,456.1,141.2,455.8,141.1L455.8,141.1z"/>
		</g>
		<g>
			<path class="st51" d="M442.2,138.1c-0.4,0.3-0.8,0.6-1.2,0.9s-0.8,0.6-1.1,0.9c-0.7,0.7-1.3,1.6-1.8,2.5l0,0
				c0.2-0.5,0.4-1,0.6-1.4c0.3-0.5,0.6-0.9,0.9-1.3c0.3-0.4,0.7-0.8,1.1-1.1C441.2,138.3,441.7,138.1,442.2,138.1L442.2,138.1z"/>
		</g>
		<path class="st51" d="M441.6,144.4c-0.6,0.1-1.1,0.3-1.6,0.5s-1.1,0.5-1.6,0.8s-1,0.6-1.4,1.1l-0.2,0.3c0.1-0.3,0.1-0.6,0.2-0.9
			c0.2-0.7,0.4-1.3,0.6-2l1-0.5c0.3-0.1,0.6-0.4,0.9-0.5c0.7-0.3,1.4-0.4,2.1-0.5v-0.1c-0.7-0.1-1.5,0-2.2,0.1
			c-0.4,0.1-0.7,0.2-1,0.4s-0.6,0.5-0.7,0.9l0,0l0,0c-0.5,0.6-0.8,1.2-1,1.9s-0.3,1.4-0.4,2.2c-0.1,1.4,0.2,2.9,0.7,4.3l0,0
			c-0.3-1.3-0.4-2.7-0.3-4c0.4-0.3,0.8-0.6,1.1-0.9s0.7-0.8,1.1-1.1c0.9-0.7,1.8-1.3,2.8-1.8L441.6,144.4z"/>
		<path d="M437.1,155.8l0.9,4.6c0.1,1.6-0.1,3.2-0.6,4.8c-0.7,1.8-1.7,10.1,9.4,14.3s21.3-0.2,18.8-14.3c0,0,0.2,3.8-1.5,3.3
			s-0.1-5.4-8.5-4.5c-2.6-0.3-6.2-2.4-9.1,2.5c-2.3,3.9-6.5,1.2-6.8-8.5v-2.5c0-0.1,0-0.3,0-0.4l0,0 M448.4,167.4
			c2.5,0.8,5.2,0.6,7.5-0.4c1.7,1.2,3.8,1.8,5.9,1.8c0.5,0.6,1.9,4-2.8,5.8s-3.2-3.4-3.2-3.4l-2.3-0.2c0,0,0.9,3.8-3.2,3.4
			C444.3,173.7,448.4,167.4,448.4,167.4z"/>
		<path class="st52" d="M449.4,152.7c0,0.8-0.6,1.6-1.5,1.6s-1.6-0.6-1.6-1.5s0.6-1.6,1.5-1.6c0,0,0,0,0.1,0
			C448.7,151.2,449.4,151.8,449.4,152.7L449.4,152.7z"/>
		<path class="st52" d="M463.3,152.5c0,0.8-0.6,1.6-1.4,1.6s-1.6-0.6-1.6-1.4s0.6-1.6,1.4-1.6h0.1
			C462.6,151,463.3,151.6,463.3,152.5z"/>
		<path d="M451.7,148.9c-0.8-0.2-1.5-0.4-2.2-0.5s-1.4-0.2-2.1-0.2s-1.4,0.2-2,0.5c-0.6,0.4-1.2,0.8-1.8,1.3c0.2-0.8,0.7-1.5,1.3-2
			c0.7-0.5,1.5-0.8,2.3-0.9c0.8,0,1.6,0.1,2.4,0.4C450.5,147.9,451.2,148.4,451.7,148.9z"/>
		<path d="M457.9,148.9c0.4-0.5,1-1,1.6-1.2c0.6-0.3,1.4-0.5,2.1-0.4c0.8,0.1,1.4,0.4,1.9,1c0.5,0.5,0.8,1.2,0.8,1.9
			c-0.4-0.5-0.9-0.9-1.4-1.3c-0.4-0.3-1-0.5-1.5-0.6C460.2,148.3,459,148.5,457.9,148.9z"/>
		<path class="st53" d="M456,152c0.3,0.7,0.6,1.4,0.8,2.1c0.2,0.7,0.4,1.4,0.5,2.1c0.3,1.4,0.5,2.9,0.7,4.4v0.1l-0.1,0.1
			c-0.9,0.4-1.8,0.8-2.7,1.2c0.8-0.5,1.7-1,2.6-1.5l-0.1,0.2c-0.3-1.4-0.5-2.9-0.8-4.3S456.3,153.4,456,152z"/>
		<path class="st53" d="M448.8,168.3c2.1,0.4,4.2,0.8,6.3,1c2.1,0.2,4.3,0.2,6.4,0c-1,0.4-2.1,0.7-3.2,0.8s-2.2,0.1-3.3,0
			C452.9,169.9,450.8,169.3,448.8,168.3z"/>
		<path class="st54" d="M433.9,154.9c1.5-0.8,2.9,1.9,3,4.7c-1.3-0.2-1.5,1.4-0.7,2.5C433.7,162.7,432.3,155.8,433.9,154.9z"/>
		<path class="st45" d="M515.6,191.6L501.2,212c-0.7,1.2-2.3,1.7-3.5,1c-0.4-0.2-0.7-0.5-0.9-0.9L482,189.8
			c-0.5,17.5,0.1,2.5-1.3,31.5l13.2,14.6c2.9,3,7.8,3,10.8,0.1c0.5-0.4,0.8-0.9,1.2-1.5l19.6-35.8L515.6,191.6z"/>
		<path class="st55" d="M496.3,204.6"/>
		<path class="st55" d="M496.3,236.7"/>
		<polygon class="st31" points="461.9,185.3 458.2,193.4 454,187.1 460.6,182.7 		"/>
		<polygon class="st31" points="439.1,185.1 444.1,193.1 447.6,186.6 440.3,181.9 		"/>
		<polygon class="st31" points="438.2,248.6 433.3,234 437.4,231.6 443.5,246.7 		"/>
		<polygon class="st31" points="516.3,188.7 527.3,199.6 524.7,203.6 512.5,192.8 		"/>
		<path d="M469.5,280.3c2.3-0.4,4.6-1.2,6.7-2.2c1.3-0.4,1.1,1,1.2,2.5c0.1,2-0.3,3-1.4,3.4c-0.2,0.1-1.3,1.2-5.8,2.3L469.5,280.3z"
			/>
		<path d="M437.7,280.6c5.3,0.7,10.7,1.1,16.1,1.1c4,0.1,8-0.2,12-0.8c-0.2,2-0.1,4.1,0.2,6.1c-4.1,0.7-8.2,1-12.3,0.9
			c-1.9,0-3.8-0.1-5.6-0.2c-3.8-0.2-7.6-0.6-11.3-1.3C437.2,284.5,437.5,282.5,437.7,280.6z"/>
		<path d="M423.3,279.5c0.3-1.5,0.5-2.8,1.8-2.3c3,1.3,6.2,2.2,9.4,2.8c-0.2,1.9-0.5,3.9-0.9,5.8c-3.4-0.7-6.7-1.8-9.9-3.2
			C422.9,282.1,422.9,281,423.3,279.5z"/>
		<path class="st56" d="M445.8,280.5l-0.5,7.9l11.5-0.2l0.5-7.3L445.8,280.5z M447.6,281.9l7.6,0.3l-0.3,4.9l-7.6,0.1L447.6,281.9z"
			/>
	</g>
	<g id="Desk">
		<path class="st57" d="M567.4,307.5h-78.9v-2.9h75.9C566.1,304.5,567.4,305.8,567.4,307.5z"/>
		<path class="st57" d="M491.9,261.1h53.7c1.8,0,3.3,1.5,3.3,3.3v39c0,1.8-1.5,3.3-3.3,3.3h-53.7c-1.8,0-3.3-1.5-3.3-3.3v-39
			C488.5,262.6,490,261.1,491.9,261.1z"/>
		<rect x="491" y="263.3" class="st58" width="55.4" height="40.7"/>
		<path class="st9" d="M546.4,304v-0.8c0-0.5,0-1.2,0-2.2c0-1.9,0-4.7,0-8.3c0-7.1,0-17.3,0-29.5h0.1h-55.4l0,0l0.1-0.1
			c0,14.8,0,28.7,0,40.7l-0.1-0.1h40.1h11.3h-11.3h-40.1H491v-0.1c0-12,0-25.9,0-40.7v-0.1h55.4v0.1c0,12.3,0,22.4,0,29.6
			c0,3.5,0,6.3,0,8.2c0,1,0,1.7,0,2.2S546.4,304,546.4,304z"/>
		<rect x="505.3" y="283.5" class="st59" width="1.8" height="3.7"/>
		<rect x="506.1" y="280.3" class="st59" width="0.3" height="7.5"/>
		<rect x="508" y="279.6" class="st59" width="1.8" height="4.6"/>
		<rect x="508.8" y="278.2" class="st59" width="0.3" height="8.4"/>
		<rect x="527.3" y="284.6" class="st59" width="1.8" height="2.6"/>
		<rect x="528.1" y="283.3" class="st59" width="0.3" height="6.3"/>
		<rect x="543.9" y="276.9" class="st59" width="1.8" height="4.3"/>
		<rect x="544.6" y="275" class="st59" width="0.3" height="8.8"/>
		<rect x="502.5" y="286.8" class="st60" width="1.8" height="2.5"/>
		<rect x="503.3" y="286" class="st60" width="0.3" height="4.5"/>
		<rect x="524.6" y="284.3" class="st60" width="1.8" height="1.8"/>
		<rect x="525.3" y="283.7" class="st60" width="0.3" height="3.2"/>
		<rect x="521.8" y="281" class="st59" width="1.8" height="5.1"/>
		<rect x="522.6" y="280" class="st59" width="0.3" height="7.7"/>
		<rect x="519.1" y="279.7" class="st59" width="1.8" height="7"/>
		<rect x="519.8" y="278.1" class="st59" width="0.3" height="9.5"/>
		<rect x="516.3" y="279.9" class="st59" width="1.8" height="1.5"/>
		<rect x="517.1" y="279.4" class="st59" width="0.3" height="4.8"/>
		<rect x="513.6" y="278.5" class="st60" width="1.8" height="5.1"/>
		<rect x="514.3" y="277.5" class="st60" width="0.3" height="7.7"/>
		<rect x="510.8" y="281" class="st59" width="1.8" height="5.1"/>
		<rect x="511.6" y="279.3" class="st59" width="0.3" height="7.5"/>
		<rect x="532.8" y="279.6" class="st59" width="1.8" height="4.4"/>
		<rect x="533.6" y="278.4" class="st59" width="0.3" height="6.2"/>
		<rect x="535.6" y="277.7" class="st59" width="1.8" height="3.3"/>
		<rect x="536.4" y="276.3" class="st59" width="0.3" height="7"/>
		<rect x="530.1" y="283.6" class="st60" width="1.8" height="2.5"/>
		<rect x="530.9" y="282.8" class="st60" width="0.3" height="4.5"/>
		<rect x="541.1" y="276.2" class="st60" width="1.8" height="1.7"/>
		<rect x="541.9" y="275.7" class="st60" width="0.3" height="5.2"/>
		<rect x="538.3" y="279.2" class="st59" width="1.8" height="6.5"/>
		<rect x="539.1" y="277.4" class="st59" width="0.3" height="8.9"/>
		<rect x="494.5" y="285.1" class="st59" width="1.8" height="3.7"/>
		<rect x="495.3" y="283.9" class="st59" width="0.3" height="5.5"/>
		<rect x="497.3" y="281.2" class="st60" width="1.8" height="4.6"/>
		<rect x="498" y="279.8" class="st60" width="0.3" height="8.4"/>
		<rect x="491.7" y="288.2" class="st60" width="1.8" height="1.9"/>
		<rect x="492.5" y="287.6" class="st60" width="0.3" height="3.4"/>
		<rect x="500" y="284.7" class="st59" width="1.8" height="3.1"/>
		<rect x="500.8" y="280.9" class="st59" width="0.3" height="7.5"/>
		<rect x="505.3" y="294.7" class="st61" width="1.8" height="2.3"/>
		<rect x="506.1" y="293.9" class="st61" width="0.3" height="3.4"/>
		<rect x="508" y="293.5" class="st61" width="1.8" height="1.6"/>
		<rect x="508.8" y="292.6" class="st61" width="0.3" height="4"/>
		<rect x="527.4" y="295.4" class="st61" width="1.8" height="1.6"/>
		<rect x="528.1" y="294.5" class="st61" width="0.3" height="4"/>
		<rect x="543.9" y="290.9" class="st61" width="1.8" height="2.3"/>
		<rect x="544.7" y="289.7" class="st61" width="0.3" height="5.5"/>
		<rect x="502.5" y="296.7" class="st61" width="1.8" height="1.5"/>
		<rect x="503.3" y="296.2" class="st61" width="0.3" height="2.8"/>
		<rect x="524.6" y="295.1" class="st61" width="1.8" height="1.1"/>
		<rect x="525.4" y="294.8" class="st61" width="0.3" height="2"/>
		<rect x="521.8" y="294.4" class="st61" width="1.8" height="2"/>
		<rect x="522.6" y="293.7" class="st61" width="0.3" height="3.6"/>
		<rect x="519.1" y="293.5" class="st61" width="1.8" height="3.1"/>
		<rect x="519.9" y="292.5" class="st61" width="0.3" height="4.6"/>
		<rect x="516.3" y="293.7" class="st61" width="1.8" height="1"/>
		<rect x="517.1" y="293.4" class="st61" width="0.3" height="1.8"/>
		<rect x="513.6" y="292.8" class="st61" width="1.8" height="2"/>
		<rect x="514.3" y="292.2" class="st61" width="0.3" height="3.6"/>
		<rect x="510.8" y="294.4" class="st61" width="1.8" height="2"/>
		<rect x="511.6" y="293.3" class="st61" width="0.3" height="3.4"/>
		<rect x="532.9" y="292.7" class="st61" width="1.8" height="2.3"/>
		<rect x="533.7" y="291.9" class="st61" width="0.3" height="3.4"/>
		<rect x="535.6" y="291.5" class="st61" width="1.8" height="1.6"/>
		<rect x="536.4" y="290.6" class="st61" width="0.3" height="4"/>
		<rect x="530.1" y="294.7" class="st61" width="1.8" height="1.5"/>
		<rect x="530.9" y="294.2" class="st61" width="0.3" height="2.8"/>
		<rect x="541.2" y="290.5" class="st61" width="1.8" height="1.1"/>
		<rect x="541.9" y="290.2" class="st61" width="0.3" height="2"/>
		<rect x="538.4" y="292.4" class="st61" width="1.8" height="2"/>
		<rect x="539.2" y="291.3" class="st61" width="0.3" height="3.4"/>
		<rect x="494.5" y="295.7" class="st61" width="1.8" height="2.3"/>
		<rect x="495.2" y="295" class="st61" width="0.3" height="3.4"/>
		<rect x="497.2" y="294.5" class="st61" width="1.8" height="1.6"/>
		<rect x="498" y="293.6" class="st61" width="0.3" height="4"/>
		<rect x="491.7" y="297.6" class="st61" width="1.8" height="1.2"/>
		<rect x="492.5" y="297.3" class="st61" width="0.3" height="2.1"/>
		<rect x="500" y="295.4" class="st61" width="1.8" height="2"/>
		<rect x="500.8" y="294.3" class="st61" width="0.3" height="3.4"/>
		<polygon class="st62" points="201.9,465.1 218.4,319 232.5,323.9 209.6,465.1 		"/>
		<rect x="194.9" y="307.3" class="st63" width="422.8" height="18.5"/>
		<path class="st9" d="M284.4,307.6c0,0.1-0.1,0.1-0.1,0.2l-0.4,0.5c-0.6,0.7-1.3,1.2-2.1,1.7c-1.3,0.7-2.6,1.2-4.1,1.4
			c-1.9,0.3-3.8,0.4-5.7,0.3c-2.3-0.1-4.6-0.4-6.9-0.8c-2.6-0.5-5.2-0.8-7.8-0.9c-5.5-0.2-11.6,1.3-17.6,3.4s-11.7,4.6-17.1,6.1
			c-2.5,0.7-5.1,1.2-7.8,1.5c-2.3,0.2-4.6,0.2-6.9,0c-3.3-0.3-6.6-1.3-9.5-3c-1.1-0.6-2-1.3-2.9-2.2c0,0,0.1,0,0.2,0.1l0.6,0.4
			c0.7,0.5,1.5,1,2.3,1.5c2.9,1.6,6.1,2.6,9.4,2.8c2.3,0.2,4.6,0.2,6.8,0c2.6-0.3,5.2-0.8,7.7-1.6c5.4-1.5,11-4,17-6.1
			s12.1-3.6,17.8-3.4c2.6,0.2,5.3,0.5,7.9,1c2.2,0.4,4.5,0.7,6.8,0.8c1.9,0.1,3.8,0.1,5.6-0.2c1.4-0.2,2.7-0.6,4-1.3
			C282.7,309.3,283.6,308.5,284.4,307.6z"/>
		<path class="st9" d="M238.2,307.8c-0.4,0.4-0.8,0.8-1.3,1.1c-1.2,0.9-2.5,1.8-3.9,2.5c-2,1.1-4.1,1.9-6.3,2.6
			c-2.7,0.8-5.5,1.2-8.2,1.3c-5.1,0.2-10.1-0.8-14.7-3c-1.4-0.7-2.6-1.7-3.6-2.9c-0.2-0.3-0.4-0.7-0.6-1.1c-0.1-0.3-0.1-0.4-0.1-0.4
			c0.2,0.5,0.5,1,0.9,1.4c1,1.2,2.2,2.1,3.6,2.7c4.6,2,9.5,3,14.6,2.9c5-0.2,9.9-1.4,14.4-3.7c1.3-0.7,2.7-1.5,3.9-2.3
			C237.2,308.4,237.7,308.1,238.2,307.8z"/>
		<path class="st9" d="M337.4,319.6l0.6,0.2c0.6,0.2,1.3,0.4,2,0.5c2.5,0.4,5.1,0,7.4-1.2v0.2c-2.7-2-5.8-3.3-9.2-3.6
			c-4.2-0.4-8.4,0.7-11.9,3.1c-0.5,0.3-0.8,0.7-0.9,1.2c0,0.5,0.3,1,0.8,1.2c0.5,0.3,1.1,0.5,1.6,0.6l1.8,0.4
			c2.4,0.5,4.9,1.1,7.5,1.5s5.3,0.6,8,0.5c1.4,0,2.7-0.2,4.1-0.4c0.7-0.1,1.4-0.3,2-0.4c0.7-0.1,1.4-0.4,2-0.6c1-0.4,1.9-1,2.6-1.9
			c0.7-0.8,0.8-1.9,0.5-2.8c-0.4-0.9-1.1-1.7-2-2.2s-1.8-1-2.8-1.4c-3.8-1.4-7.8-2.2-11.8-2.4c-6.8-0.4-13.6,0.7-20,3.1
			c-4.3,1.6-8.4,3.8-12.1,6.6c-1.3,1-2.3,1.8-2.9,2.4l-0.8,0.6l-0.3,0.2c0,0,0.1-0.1,0.2-0.2l0.7-0.7c0.6-0.6,1.6-1.4,2.9-2.5
			c9.2-7.1,20.7-10.6,32.3-10c4.1,0.2,8.1,1,11.9,2.4c1,0.4,2,0.9,2.9,1.4c1,0.6,1.8,1.4,2.2,2.5c0.4,1.1,0.2,2.4-0.6,3.3
			c-0.7,0.9-1.7,1.6-2.8,2c-0.7,0.3-1.4,0.5-2.1,0.7s-1.4,0.3-2.1,0.4c-1.4,0.2-2.8,0.4-4.2,0.4c-2.7,0.1-5.4-0.1-8.1-0.6
			c-2.6-0.4-5.1-0.9-7.5-1.5l-1.8-0.4c-0.6-0.1-1.2-0.3-1.8-0.6c-0.3-0.2-0.5-0.4-0.7-0.6c-0.2-0.3-0.3-0.6-0.3-1
			c0.1-0.6,0.5-1.2,1.1-1.5c3.6-2.5,7.9-3.6,12.2-3.1c3.4,0.3,6.6,1.6,9.3,3.7l0.2,0.1l-0.2,0.1c-2.3,1.2-5,1.6-7.6,1.1
			C339.1,320.3,338.2,320,337.4,319.6z"/>
		<path class="st9" d="M391.8,308c0.2,0.3,0.3,0.6,0.4,0.9c0.3,0.9,0.4,1.8,0.3,2.8c-0.4,3.1-1.9,5.9-4.1,8.1
			c-1.1,1.2-2.4,2.3-3.9,3.3c-1.2,0.7-2.4,1.3-3.7,1.8c-0.9,0.3-1.8,0.5-2.7,0.7c-0.3,0.1-0.7,0.1-1,0.1c0-0.1,1.4-0.3,3.6-1.1
			c1.3-0.5,2.5-1.1,3.6-1.9c1.4-0.9,2.6-2,3.7-3.2c2.2-2.1,3.6-4.8,4.1-7.8C392.2,310.5,392.1,309.2,391.8,308z"/>
		<path class="st9" d="M467.7,324.8c-0.6-0.7-1.3-1.3-1.9-1.9c-1.9-1.6-4.2-2.6-6.6-3c-1.7-0.2-3.4-0.2-5,0.1
			c-1.9,0.5-3.9,0.6-5.9,0.5c-2.2-0.2-4.1-1.5-5.9-2.9c-1.8-1.5-3.7-2.7-5.9-3.5c-4.2-1.4-8.8-1.5-13.1-0.2
			c-3.5,1.1-6.8,2.7-9.7,4.9c-2,1.5-3.9,3.1-5.6,4.8l-1.4,1.4c-0.2,0.2-0.3,0.3-0.5,0.5c0.1-0.2,0.3-0.4,0.4-0.5
			c0.3-0.4,0.8-0.9,1.4-1.5c1.7-1.8,3.6-3.4,5.5-5c2.9-2.3,6.3-4,9.8-5.1c4.4-1.3,9.1-1.3,13.4,0.2c2.2,0.8,4.2,2.1,6,3.6
			c1.8,1.4,3.6,2.6,5.6,2.8c1.9,0.1,3.9-0.1,5.8-0.5c1.7-0.3,3.4-0.4,5.2-0.1c2.5,0.4,4.8,1.5,6.7,3.2
			C466.6,323.3,467.2,324,467.7,324.8z"/>
		<path class="st9" d="M535.5,307.5c-0.1,0.2-0.3,0.4-0.5,0.6c-0.5,0.6-0.9,1.2-1.5,1.7c-1.9,2-3.9,3.9-6.2,5.5
			c-3.3,2.4-6.9,4.4-10.7,5.9c-2.2,0.9-4.5,1.7-6.9,2.2c-2.5,0.6-5.1,1-7.7,1c-5,0-10-1-14.7-3c-3.8-1.5-7.4-3.6-10.6-6
			c-2.2-1.6-4.3-3.5-6.1-5.5c-0.7-0.7-1.1-1.3-1.5-1.7c-0.2-0.2-0.3-0.4-0.5-0.6c0.2,0.2,0.4,0.4,0.5,0.6c0.4,0.4,0.8,1,1.5,1.6
			c1.9,2,4,3.8,6.2,5.4c3.3,2.4,6.8,4.4,10.6,5.9c4.6,1.9,9.5,3,14.5,3c2.6-0.1,5.1-0.4,7.6-1c2.3-0.5,4.6-1.3,6.8-2.1
			c3.8-1.5,7.4-3.4,10.7-5.8c2.2-1.6,4.3-3.3,6.2-5.3c0.7-0.7,1.2-1.3,1.5-1.6C535.1,307.9,535.3,307.7,535.5,307.5z"/>
		<path class="st9" d="M525.8,307.3c0,0-0.1,0.1-0.4,0.3s-0.6,0.4-1.1,0.8c-1.4,0.9-2.8,1.7-4.2,2.4c-2.2,1.1-4.4,2-6.7,2.7
			c-2.8,0.9-5.8,1.4-8.7,1.5c-5.4-0.1-10.7-1.5-15.5-3.9c-1.5-0.7-2.9-1.5-4.2-2.5c-0.5-0.3-0.8-0.6-1.1-0.8
			c-0.1-0.1-0.2-0.2-0.4-0.3c0.5,0.3,1,0.6,1.5,0.9c1.4,0.8,2.8,1.6,4.3,2.3c4.8,2.3,10,3.6,15.3,3.7c2.9-0.1,5.8-0.5,8.6-1.4
			c2.3-0.7,4.5-1.6,6.7-2.6c1.8-0.9,3.3-1.7,4.3-2.2C524.7,307.8,525.3,307.5,525.8,307.3z"/>
		<path class="st9" d="M568.8,309.2h-0.5l-1.4-0.1l-1-0.1h-1.2c-0.8,0-1.8,0-2.9,0l-1.7,0.1l-1.8,0.2c-1.3,0.1-2.6,0.4-4,0.6
			c-3,0.6-6,1.5-8.8,2.6c-2.9,1.2-5.6,2.5-8.3,4.1c-1.2,0.8-2.4,1.5-3.4,2.2l-1.5,1.1L531,321c-0.8,0.6-1.5,1.3-2.2,1.9l-0.9,0.8
			l-0.7,0.7l-1,1c-0.1,0.1-0.2,0.2-0.4,0.3c0,0,0.1-0.1,0.3-0.4l0.9-1l0.7-0.8l0.8-0.8c0.6-0.6,1.3-1.3,2.2-2l1.3-1.1
			c0.5-0.4,1-0.7,1.5-1.1c1-0.8,2.2-1.5,3.4-2.3c2.7-1.6,5.5-3,8.3-4.1c2.9-1.1,5.9-2,8.9-2.6c1.4-0.2,2.8-0.5,4-0.6l1.8-0.2h1.7
			c1-0.1,1.9-0.1,2.9,0h1.2l1,0.1l1.4,0.2C568.4,309.1,568.6,309.1,568.8,309.2z"/>
		<path class="st9" d="M586.9,305.6c0,0,0,0.1,0,0.4s0,0.7-0.1,1c-0.2,1.2-0.5,2.4-1,3.5c-1.7,3.7-4.4,6.9-7.9,9.1
			c-3.5,2.1-7.2,3.7-11.1,4.8c-1.5,0.4-2.7,0.7-3.5,0.9c-0.4,0.1-0.9,0.2-1.3,0.3c0.4-0.2,0.8-0.3,1.3-0.5l3.5-1.1
			c3.9-1.1,7.6-2.7,11-4.8C582.6,316.2,586,311.2,586.9,305.6z"/>
		<path class="st9" d="M475.3,324.4c-0.7-1-1.5-1.9-2.3-2.8c-2.4-2.2-5.4-3.8-8.5-4.8c-2.2-0.7-4.4-1.1-6.6-1.5
			c-2.4-0.4-5-0.7-7.8-1.2c-2.9-0.5-5.7-1.2-8.4-2.1c-2.9-1-5.9-1.7-9-2.2c-6-0.6-12,0.2-17.5,2.4c-2.4,0.9-4.8,2-7.1,3.2
			c-2.2,1.1-4.2,2.2-6,3.3c-3.6,2.1-6.5,3.8-8.5,5l-2.3,1.4l-0.6,0.4c-0.1,0.1-0.2,0.1-0.2,0.1c0.1-0.1,0.1-0.1,0.2-0.1l0.6-0.4
			c0.5-0.4,1.3-0.9,2.3-1.5c2-1.3,4.8-3.1,8.5-5.2c1.8-1,3.8-2.2,6-3.3c2.3-1.2,4.7-2.3,7.2-3.3c5.6-2.3,11.7-3.1,17.8-2.5
			c3.1,0.5,6.1,1.2,9.1,2.2c2.7,0.9,5.5,1.6,8.4,2.1c2.7,0.5,5.3,0.8,7.8,1.2c2.3,0.3,4.5,0.9,6.7,1.5c3.2,1,6.1,2.7,8.5,5
			C474,322.4,474.7,323.3,475.3,324.4z"/>
		<path class="st9" d="M380.1,307.6c0,0.4,0,0.8-0.1,1.2c-0.2,1.1-0.4,2.1-0.8,3.1c-1.3,3.4-3.5,6.3-6.5,8.3c-3,1.9-6.3,3.4-9.6,4.4
			c-1.3,0.4-2.3,0.7-3.1,0.9c-0.4,0.1-0.8,0.2-1.2,0.2c0.3-0.2,0.7-0.3,1.1-0.4l3-1.1c3.3-1.2,6.5-2.7,9.5-4.5c2.9-2,5.1-4.8,6.4-8
			C379.4,310.4,379.8,309,380.1,307.6z"/>
		<path class="st9" d="M281.9,325.8c0.3-0.4,0.6-0.7,1-1c0.7-0.6,1.7-1.5,3-2.5c3.4-2.6,7-4.9,10.8-7c4.4-2.4,8.5-4.4,11.5-5.7
			c1.5-0.7,2.7-1.2,3.5-1.6c0.4-0.2,0.9-0.4,1.3-0.5c-0.4,0.3-0.8,0.5-1.2,0.7l-3.5,1.7c-2.9,1.5-7,3.4-11.4,5.8
			c-3.7,2-7.3,4.3-10.8,6.8c-1.3,1-2.4,1.8-3.1,2.3C282.7,325.2,282.3,325.5,281.9,325.8z"/>
		<path class="st9" d="M301.9,308.3c0,0.1-1-0.1-2.7,0c-2.5,0.3-4.9,1-7,2.1c-3.2,1.8-6.3,3.8-9.2,6.1c-1.7,1.3-3.6,2.5-5.5,3.6
			c-2.1,1.1-4.3,1.9-6.6,2.5c-4.4,1-9,1.6-13.5,1.6c-4.2,0.1-7.9,0-11.1,0.2c-2.5,0.1-5,0.3-7.4,0.7c-0.9,0.2-1.5,0.3-2,0.4
			c-0.2,0.1-0.5,0.1-0.7,0.1c0.2-0.1,0.4-0.2,0.7-0.2c0.4-0.1,1.1-0.3,2-0.5c2.5-0.5,4.9-0.8,7.4-0.9c3.2-0.2,6.9-0.1,11.1-0.3
			c4.5-0.1,9-0.6,13.4-1.6c2.2-0.6,4.4-1.4,6.5-2.5c1.9-1,3.7-2.2,5.5-3.5c2.9-2.3,6-4.3,9.2-6.1c2.2-1.1,4.7-1.8,7.2-2
			c0.7,0,1.3,0,2,0.1C301.4,308.2,301.6,308.2,301.9,308.3z"/>
		<path class="st9" d="M565.5,307.2c0,0.1-17.7,0.3-39.5,0.3s-39.5-0.1-39.5-0.3s17.7-0.3,39.5-0.3S565.5,307.1,565.5,307.2z"/>
		<rect x="336" y="298.9" class="st64" width="57" height="8.5"/>
		<rect x="336" y="300.9" class="st15" width="15.1" height="4.6"/>
		<rect x="341" y="290.4" class="st18" width="57" height="8.5"/>
		<rect x="359.4" y="292.4" class="st15" width="38.6" height="4.3"/>
		<rect x="332.5" y="281.9" class="st64" width="57" height="8.5"/>
		<rect x="374.4" y="283.8" class="st15" width="15.1" height="4.6"/>
		<text transform="matrix(1 0 0 1 526.43 267.68)" class="st57 st65 st66">A</text>
		<text transform="matrix(1 0 0 1 528.48 267.68)" class="st57 st65 st66">L</text>
		<text transform="matrix(1 0 0 1 530.19 267.68)" class="st57 st65 st66">GON</text>
		<text transform="matrix(1 0 0 1 537 267.68)" class="st57 st65 st66">A</text>
		<text transform="matrix(1 0 0 1 539 267.68)" class="st57 st65 st66">U</text>
		<text transform="matrix(1 0 0 1 541.22 267.68)" class="st57 st65 st66">T</text>
		<text transform="matrix(1 0 0 1 543.03 267.68)" class="st57 st65 st66">S</text>
	</g>
	<g id="Character_4">
		<polygon class="st67" points="553.8,430.6 556.3,446.2 545.8,452 541.8,435.8 		"/>
		<polygon class="st67" points="585.2,424.5 588.2,440.1 577.9,446.1 573.4,430 		"/>
		<path class="st68" d="M573.9,437.4c0,0-2.9,7.4-9.3,11.4s-11.9,8.5-10.2,12.7c0,0,11.7,2.3,26.9-8.2l0.5,1.8l10.8-3.6l-4-14.9
			l-9,3.2l0.3-1.7L573.9,437.4z"/>
		<path class="st68" d="M542,442.4c0,0-3.6,7-10.3,10.5s-12.6,7.3-11.4,11.6c0,0,11.4,3.4,27.5-5.5l0.3,1.9l11.2-2.5l-2.6-15.2
			l-9.2,2.3l0.4-1.6L542,442.4z"/>
		<path class="st69" d="M540.4,460.5c-14.6,6.7-19.3,3-20.2,2.8c0,0.4,0,0.8,0.1,1.1c0,0,11.4,3.4,27.5-5.5l0.3,1.9l11.2-2.5l-0.5-3
			C554.8,456.3,551.2,455.6,540.4,460.5z"/>
		<path class="st69" d="M574,455.6c-13.9,8.1-18.9,4.8-19.9,4.8c0,0.4,0.1,0.8,0.2,1.1c0,0,11.7,2.3,26.9-8.2l0.5,1.8l10.8-3.6
			l-0.8-3C588,449.9,584.3,449.6,574,455.6z"/>
		<path class="st69" d="M539.9,453.7c-0.1,0-0.2,0-0.3-0.1c-1.1-1.2-2.4-2.1-4-2.5c-0.2,0-0.3-0.2-0.3-0.4l0,0
			c0-0.2,0.2-0.3,0.4-0.3c1.7,0.5,3.2,1.4,4.4,2.7c0.1,0.1,0.1,0.4,0,0.5l0,0C540,453.7,539.9,453.7,539.9,453.7z"/>
		<path class="st69" d="M535.2,456.4c-0.1,0-0.2,0-0.3-0.1c-1.1-1.2-2.5-2.1-4-2.5c-0.2,0-0.3-0.2-0.3-0.4c0-0.2,0.2-0.3,0.4-0.3
			c1.7,0.4,3.2,1.4,4.4,2.7c0.1,0.1,0.1,0.4,0,0.5l0,0C535.4,456.3,535.3,456.4,535.2,456.4z"/>
		<path class="st69" d="M537.8,455c-0.1,0-0.2,0-0.3-0.1c-1.1-1.2-2.5-2.1-4-2.5c-0.2,0-0.3-0.2-0.3-0.4l0,0c0-0.2,0.2-0.3,0.4-0.3
			l0,0c1.7,0.4,3.2,1.4,4.4,2.7c0.1,0.1,0.1,0.4,0,0.5l0,0C537.9,454.9,537.9,454.9,537.8,455z"/>
		<path class="st69" d="M571.8,449.8c-0.1,0-0.2,0-0.3-0.1c-1.2-1.1-2.6-1.9-4.2-2.1c-0.2,0-0.3-0.2-0.3-0.4c0-0.2,0.2-0.3,0.3-0.3
			l0,0c1.7,0.3,3.3,1.1,4.6,2.3c0.1,0.1,0.1,0.4,0,0.5l0,0C571.9,449.7,571.8,449.8,571.8,449.8z"/>
		<path class="st69" d="M567.4,452.9c-0.1,0-0.2,0-0.3-0.1c-1.2-1.1-2.6-1.9-4.2-2.2c-0.2,0-0.3-0.2-0.3-0.4c0-0.2,0.2-0.3,0.4-0.3
			l0,0c1.7,0.3,3.3,1.1,4.6,2.3c0.1,0.1,0.1,0.4,0,0.5l0,0C567.5,452.8,567.5,452.9,567.4,452.9z"/>
		<path class="st69" d="M569.8,451.2c-0.1,0-0.2,0-0.3-0.1c-1.2-1.1-2.6-1.9-4.2-2.2c-0.2,0-0.3-0.2-0.3-0.4c0-0.2,0.2-0.3,0.4-0.3
			c1.7,0.3,3.4,1.1,4.6,2.3c0.1,0.1,0.1,0.4,0,0.5C569.9,451.2,569.9,451.2,569.8,451.2z"/>
		<path class="st70" d="M594.2,211.5l-3.2,26l4.9,12l-19.5,0.7l-4-9.4c0,0-9.7-1.1-10-7.3c-0.2-4,6.1-32.7,6.1-32.7L594.2,211.5z"/>
		<path d="M587.9,242.4c2.3-1.6,3.5-2.6,4.5-5.2s1.7-5.3,2.8-7.8s3-5.1,4.1-7.7s1.8-5.8,0.6-8.5c0,0-0.4-3.4-5-4.7
			c0,0-2.6-7.3-8.6-7.9c-8.1-0.9-7.9-3.3-13.2-5.4c-2.6-1.2-5.6-0.1-6.9,2.4c0,0,0,0,0,0.1c0,0-3.3,1.5-4,4.5v0.1
			c-0.7,3.1,0.6,6.2,3.3,7.8l1,0.6c1,0.5,1.8,1.1,2.5,2c0.9,1.3,0.7,3.1,0.3,4.6c-0.5,1.5-0.8,3.1-0.7,4.7c0.1,0.5,0.4,1.2,0.9,1.2
			s0.8-0.9,1-1.5c0.6-1.8,3.2-2.7,4.6-1c0.9,1,0.9,2.5,0.1,3.6c-0.9,1.2-2.5,1.9-3,3.3c-1,2.3,1.4,5,2.3,6.6c0.3,0.6,0.6,1.1,1,1.6
			c1.9,2.4,4.2,4.4,6.8,5.9c1.9,1.3,4.4,1.4,6.4,0.3"/>
		<path class="st70" d="M507.7,273.8L507.7,273.8c-3.4-1.5-5.6-2.8-7.9-3.6c-2.8-1-3.9-1.6-3.7-2.2c0.3-0.7,0.2-0.4,5.6,0.7
			c0,0-7.7-1.7-5.7-2.6c0.9-0.4,7.3,0.9,7.3,0.9c-5.3-0.6-7.1-1.7-7-2.5c0.2-1.1,8,0.5,8,0.5c-2.3-0.4-4.6-1-6.9-1.7
			c-1-0.5,0.3-1,1.4-1.1s8.9,0.1,11.1,0.1c0.7,0.1,1.3-0.4,1.4-1.2c0-0.1,0-0.1,0-0.2c-0.6-3.1,0.5-5.9,1.2-6.5
			c0.5-0.3,1.1-0.2,1.4,0.3c0.2,0.2,0.2,0.5,0.1,0.8c-0.1,1.1-0.1,2.2,0,3.2c0.1,0.9,0.3,1.7,0.7,2.5c0.4,0.9,0.8,1.6,1.2,2.3
			l10.9,11.9l-4.7,11.3L507.7,273.8z"/>
		<path class="st71" d="M504.9,269.5c-1.3-0.1-2.5-0.3-3.7-0.6c-1.3-0.2-2.5-0.6-3.6-1.1c1.3,0,2.5,0.3,3.7,0.6
			C502.5,268.5,503.7,268.9,504.9,269.5z"/>
		<path class="st71" d="M505.5,267.4c-1.3,0-2.7-0.1-4-0.4c-1.3-0.1-2.7-0.5-3.9-0.9C500.3,266.2,502.9,266.6,505.5,267.4
			L505.5,267.4z"/>
		<path class="st71" d="M506.2,265.3c-1.3,0.1-2.6-0.1-3.8-0.4c-1.3-0.1-2.5-0.4-3.7-0.9c1.3,0,2.6,0.1,3.8,0.4
			C503.7,264.6,505,264.9,506.2,265.3z"/>
		<path class="st72" d="M579.1,324.6l-46.6,7.2c-6.4,1-12.1,4.8-15.6,10.3l0,0c-3.6,5.7-4.6,12.7-2.8,19.2l25.6,79.8l18.9-4.5
			L547.2,362l72.1-4.9v-32.4l-40.3-1.5"/>
		<path class="st72" d="M611.9,324.6l-46.6,7.2c-6.4,1-12.1,4.8-15.6,10.3l0,0c-3.6,5.7-4.6,12.7-2.8,19.1l24.3,74.7l19.4-5.2
			l-10.5-68.8l48.2-3.3v-32.4l-16.4-3.2"/>
		<path class="st21" d="M519.3,266.5c1-0.1,32.6,24.5,32.6,24.5l-20.2,8.1l-20.5-20.3C511.2,278.8,509.9,267.7,519.3,266.5z"/>
		<path class="st21" d="M621.7,256.8c-5.3-7.6-14.3-10.3-17.4-11c-0.7-0.1-1.3-0.2-2-0.2h-27c-4.9,0-9.6,1.8-13.1,5.2
			c-4,4-7.5,8.5-10.4,13.4L538.3,283l-8.3,14l1.7,2.1c3.9,5.1,10.8,6.9,16.8,4.3c2.8-1.3,4.8-3.7,6.6-6.4c3.4-5,7-10.4,9.3-14.5
			l13.6,38.9l-7.3,4.6l30.7,12.4l31.9-13.6l-8.8-31.4l0,0c0,0,14,1.4,15.3-4.1S628.1,266.1,621.7,256.8z"/>
		<path class="st9" d="M593,320.2c-0.5,0.3-1.1,0.6-1.8,0.7c-1.5,0.4-3,0.6-4.5,0.7s-3,0-4.5-0.3c-0.6-0.1-1.2-0.2-1.8-0.5
			c0-0.2,2.8,0.5,6.3,0.3C588.9,320.9,591,320.6,593,320.2z"/>
		<polygon class="st73" points="537.6,362.4 525.3,465.3 530.6,465.3 543.6,362.4 		"/>
		<polygon class="st73" points="586.4,362.4 597.7,465.3 603.5,465.3 592.5,362.4 		"/>
		<polyline class="st73" points="647,362.4 656.4,465.3 662.9,465.3 652.2,362.4 644.4,362.4 		"/>
		<path class="st73" d="M615.7,274h45.5c3.9,0,7.1,3.2,7.1,7.1c0,0.3,0,0.7-0.1,1l-10.8,75.1c-0.4,3-3,5.2-6,5.2h-58.9L615.7,274z"
			/>
		<path class="st73" d="M531.5,362.4c0.1-1.1,0-6.8,0-6.8l56.4,1c4.3,0.1,8-3,8.7-7.3l11.2-68.6c0.6-3.9,4-6.7,7.9-6.7l0,0
			l-12.3,77.3c-1,6.4-6.5,11.1-13,11.1H531.5z"/>
		<path class="st9" d="M615.7,274c0,0.1,0,0.2,0,0.2l-0.1,0.7c-0.1,0.6-0.2,1.5-0.4,2.7c-0.4,2.4-0.9,5.7-1.5,9.8
			c-1.3,8.3-3.1,19.6-5,32.2c-1,6.3-2,12.3-2.8,17.7c-0.4,2.7-0.9,5.3-1.3,7.7c-0.3,2.3-0.8,4.5-1.4,6.7c-0.5,1.8-1.3,3.6-2.3,5.2
			c-0.8,1.2-1.8,2.3-2.9,3.1c-0.7,0.5-1.5,1-2.3,1.3c-0.3,0.1-0.6,0.2-0.9,0.3c1.1-0.4,2.2-1,3.1-1.7c2.5-2.1,4.2-5,5-8.2
			c0.6-2.2,1-4.4,1.3-6.7c0.4-2.4,0.8-5,1.2-7.7c0.9-5.5,1.8-11.4,2.8-17.7c2-12.5,3.9-23.9,5.2-32.2c0.7-4.1,1.2-7.4,1.6-9.7
			c0.2-1.1,0.3-2,0.5-2.6c0-0.3,0.1-0.5,0.1-0.7C615.7,274.2,615.7,274.1,615.7,274z"/>
		<path class="st9" d="M618.2,274.5c-1-1.2-2-2.5-2.7-3.9c-0.9-1.3-1.7-2.7-2.3-4.2c1,1.2,2,2.5,2.7,3.9
			C616.9,271.6,617.6,273,618.2,274.5z"/>
		<path class="st9" d="M532.5,291.1c1-1.9,2.2-3.8,3.5-5.5c1.2-1.8,2.5-3.6,4-5.2c-1,1.9-2.2,3.8-3.5,5.5
			C535.2,287.7,533.9,289.5,532.5,291.1z"/>
		<path class="st9" d="M570.5,273c-0.2,0.4-0.4,0.8-0.6,1.1c-0.5,0.8-1.1,1.9-1.8,3.1c-1.5,2.6-3.7,6.1-6.2,10s-4.8,7.3-6.6,9.7
			c-0.9,1.2-1.6,2.2-2.1,2.9c-0.2,0.4-0.5,0.7-0.8,1c0.2-0.4,0.4-0.8,0.7-1.1l2-3c1.7-2.5,4-5.9,6.5-9.8l6.3-9.9
			c0.8-1.3,1.5-2.3,1.9-3C569.9,273.6,570.2,273.3,570.5,273z"/>
		<path id="Path_974" class="st74" d="M231.7,307.3l-4-27.6h17.9l-1.9,27.5"/>
		<path id="Path_975" class="st75" d="M228.3,283.3h17.1l0.3-2.6h-17.8L228.3,283.3z"/>
		<path id="Path_976" class="st76" d="M247.3,281.8h-21.2l1.6-6.2l18.4,2.6L247.3,281.8z"/>
		<g id="WorkCup_1">
			<g id="Group_156">
				
					<rect id="Rectangle_193" x="406.9" y="273" transform="matrix(0.9826 -0.1855 0.1855 0.9826 -45.6486 80.6001)" class="st77" width="2" height="22.5"/>
				<path id="Path_998" class="st78" d="M409,295.5l2-0.4l-0.5,2.9L409,295.5z"/>
				<path id="Path_999" class="st78" d="M405.3,273.3l-0.4-2.1l0.7-0.1l0.5,2.1L405.3,273.3z"/>
				<path id="Path_1000" class="st78" d="M406.9,273.4l0.9-0.2l1.5,10.2c-0.2,0.1-0.4,0.1-0.6-0.1l0,0c0-0.1-0.1-0.1-0.1-0.2
					c-0.1-0.4,0-0.8,0.1-1.2l-1.3-8.4l-0.6,0.1L406.9,273.4z"/>
				<path id="Path_1001" class="st78" d="M407.9,289.1l1.9-0.5v0.2l-1.9,0.6V289.1z"/>
			</g>
			<g id="Group_157">
				<rect id="Rectangle_194" x="412.7" y="272.7" class="st79" width="2" height="22.5"/>
				<path id="Path_1002" class="st78" d="M412.7,295.2h2l-1,2.7L412.7,295.2z"/>
				<path id="Path_1003" class="st78" d="M413.2,272.7v-2.2h0.7l0.1,2.2H413.2z"/>
				<path id="Path_1004" class="st78" d="M414.7,273.1h0.9l-0.4,10.3c-0.2,0.1-0.4,0-0.5-0.2l0,0c0-0.1,0-0.1,0-0.2
					c0-0.4,0.1-0.8,0.3-1.2l0.3-8.5h-0.6L414.7,273.1z"/>
				<path id="Path_1005" class="st78" d="M412.7,288.8l2-0.2v0.2l-2,0.2V288.8z"/>
			</g>
			<g id="Group_158">
				<path id="Path_1006" class="st80" d="M423.8,272.3l0.4-0.8l1.1-0.1l-0.2,1.2L423.8,272.3z"/>
				
					<rect id="Rectangle_195" x="408.3" y="284.7" transform="matrix(0.3024 -0.9532 0.9532 0.3024 21.2753 599.8221)" class="st81" width="24.2" height="1.3"/>
				
					<rect id="Rectangle_196" x="408.3" y="285" transform="matrix(0.302 -0.9533 0.9533 0.302 21.4575 599.9413)" class="st77" width="24.3" height="0.6"/>
				<path id="Path_1007" class="st82" d="M416.1,296.6l-0.3,3l0.3,0.1l1.2-2.7l-0.4-0.5l-0.4,0.1l-0.2-0.3L416.1,296.6z"/>
				
					<rect id="Rectangle_197" x="423.5" y="272.5" transform="matrix(0.3015 -0.9535 0.9535 0.3015 35.8514 595.2687)" class="st83" width="1.3" height="1.3"/>
				
					<rect id="Rectangle_198" x="420.9" y="272.8" transform="matrix(0.3011 -0.9536 0.9536 0.3011 34.2643 592.8342)" class="st84" width="1.3" height="0.4"/>
				<path id="Path_1008" class="st84" d="M424.4,273.9l-0.1-0.1l0.4-1.3h0.2L424.4,273.9z"/>
				<path id="Path_1009" class="st25" d="M415.9,299.7l-0.1,0.8l0.1,0.1l0.3-0.8L415.9,299.7z"/>
			</g>
			<g id="Group_159">
				<path id="Path_1010" class="st80" d="M420.5,270.5l0.3-0.8l1.1-0.2v1.2L420.5,270.5z"/>
				
					<rect id="Rectangle_199" x="406.8" y="283.1" transform="matrix(0.1728 -0.985 0.985 0.1728 66.9979 647.3475)" width="24.2" height="1.3"/>
				
					<rect id="Rectangle_200" x="406.7" y="283.6" transform="matrix(0.1726 -0.985 0.985 0.1726 67.0013 647.4729)" class="st49" width="24.3" height="0.6"/>
				<path id="Path_1011" class="st82" d="M416.1,295.6l0.1,3l0.3,0.1l0.9-2.9l-0.5-0.5l-0.4,0.1l-0.2-0.2L416.1,295.6z"/>
				
					<rect id="Rectangle_201" x="420.4" y="270.6" transform="matrix(0.1731 -0.9849 0.9849 0.1731 80.9673 638.9753)" class="st83" width="1.3" height="1.3"/>
				
					<rect id="Rectangle_202" x="420.3" y="271.1" transform="matrix(0.1711 -0.9853 0.9853 0.1711 81.6181 639.6052)" class="st84" width="1.3" height="0.4"/>
				<path id="Path_1012" class="st84" d="M421.4,272h-0.2l0.2-1.3h0.2L421.4,272z"/>
				<path id="Path_1013" class="st25" d="M416.3,298.7v0.8l0.1,0.1l0.2-0.8L416.3,298.7z"/>
			</g>
			<path id="Path_1014" class="st85" d="M405.7,284.5l3.1,22.8h11.9l1.8-22.8H405.7z"/>
		</g>
	</g>
	<g id="Character_2">
		<g id="Plant">
			<rect x="648.3" y="416.8" class="st9" width="57.8" height="8"/>
			<path class="st9" d="M706.3,424.8h-58.1v-8.1h58.1V424.8z M648.4,424.6h57.7v-7.8h-57.7V424.6z"/>
			<polygon class="st9" points="653.7,422.1 662,463.1 692.8,463.1 700.9,424.7 			"/>
			<polygon class="st9" points="653.7,459.3 658.1,465.4 695.6,465.4 700.9,459.3 			"/>
			<path class="st9" d="M675.1,423.3c-0.1,0-0.3-19-0.3-42.5s0-42.5,0.1-42.5s0.3,19,0.3,42.5S675.2,423.3,675.1,423.3z"/>
			<path class="st9" d="M688,375.6c0,0.2-0.1,0.3-0.2,0.5c-0.1,0.3-0.3,0.7-0.5,1.2l-0.4,0.9l-0.4,1.1c-0.1,0.4-0.3,0.8-0.5,1.2
				s-0.3,0.9-0.4,1.4c-0.7,2.3-1.2,4.7-1.6,7.1c-0.5,2.9-0.8,5.9-0.9,8.9c-0.2,5.4-0.1,10.8,0.5,16.2c0.2,2.1,0.4,3.7,0.5,4.9
				l0.2,1.3c0,0.2,0,0.3,0,0.5c-0.1-0.1-0.1-0.3-0.1-0.5c-0.1-0.4-0.1-0.8-0.2-1.3c-0.2-1.1-0.4-2.8-0.6-4.9
				c-0.6-5.4-0.8-10.8-0.6-16.2c0.1-3,0.5-6,0.9-8.9c0.4-2.4,1-4.8,1.7-7.1c0.2-0.5,0.3-1,0.5-1.4l0.5-1.2l0.4-1.1l0.4-0.9
				c0.2-0.5,0.4-0.9,0.6-1.2C687.8,375.9,687.9,375.8,688,375.6z"/>
			<path class="st9" d="M686.5,360.3c0,0.2-0.1,0.4-0.2,0.6l-0.6,1.8l-0.4,1.3c-0.2,0.5-0.3,1-0.5,1.5c-0.3,1.1-0.7,2.4-1.1,3.8
				c-0.2,0.7-0.4,1.4-0.6,2.2s-0.3,1.6-0.5,2.4c-0.4,1.6-0.7,3.5-1.1,5.3c-0.6,3.8-1.2,8-1.6,12.4s-0.5,8.6-0.6,12.5s0,7.3,0.2,10.2
				c0,1.5,0.1,2.8,0.2,3.9s0.1,2.1,0.2,3s0.1,1.4,0.1,1.9c0,0.2,0,0.4,0,0.7c-0.1-0.2-0.1-0.4-0.1-0.6c-0.1-0.5-0.1-1.1-0.2-1.9
				s-0.2-1.8-0.3-2.9s-0.2-2.5-0.3-3.9c-0.2-2.9-0.3-6.4-0.3-10.2s0.2-8.1,0.5-12.5s1-8.6,1.6-12.4c0.4-1.9,0.7-3.7,1.1-5.4
				c0.2-0.8,0.4-1.6,0.6-2.4s0.4-1.5,0.6-2.2c0.4-1.4,0.8-2.6,1.1-3.8c0.2-0.5,0.3-1.1,0.5-1.5s0.3-0.9,0.5-1.3l0.7-1.7
				C686.3,360.6,686.4,360.4,686.5,360.3z"/>
			<path class="st9" d="M671.4,426.6c0-0.1,0-0.1,0-0.2c0-0.2,0-0.4-0.1-0.7c0-0.6-0.1-1.5-0.2-2.5c-0.1-2.2-0.3-5.4-0.6-9.3
				c-0.5-7.8-1.2-18.6-2.5-30.5c-0.7-5.9-1.5-11.6-2.3-16.7c-0.4-2.5-0.8-5-1.3-7.3s-0.8-4.4-1.2-6.3s-0.8-3.6-1.2-5.2
				s-0.7-2.8-0.9-3.9s-0.5-1.9-0.6-2.5l-0.2-0.6c0-0.1,0-0.1,0-0.2c0,0.1,0.1,0.1,0.1,0.2l0.2,0.6c0.2,0.6,0.4,1.4,0.7,2.4
				s0.6,2.4,1,3.9s0.8,3.2,1.2,5.1s0.9,4,1.3,6.3s0.9,4.7,1.3,7.3c0.8,5.1,1.6,10.8,2.3,16.7c1.3,11.9,2,22.7,2.4,30.5
				c0.2,3.9,0.4,7.1,0.5,9.3c0,1.1,0.1,1.9,0.1,2.5c0,0.3,0,0.5,0,0.6C671.5,426.5,671.5,426.6,671.4,426.6z"/>
			<path class="st86" d="M674.6,347.4c-0.3-2.7-3-4.7-5.7-4.8c-2.7,0.1-5.3,1.5-6.9,3.7c-1.6,2.2-2.7,4.7-3.3,7.4
				c-2,6.3-2.6,13-2,19.6c0.7,6.6,3.5,12.9,8.2,17.7c0.8,0.8,1.8,1.5,2.8,1.3c0.6-0.2,1.1-0.5,1.5-0.9c9.3-8.5,14.5-20.7,14.2-33.3
				c0.1-2.5-0.5-5-1.8-7.2C680.2,348.8,677,346.6,674.6,347.4"/>
			<path class="st87" d="M654.4,325.8c-1.3,2.3-2.6,4.6-3.8,6.9c-0.1,0.2-0.2,0.4-0.4,0.4s-0.3-0.2-0.5-0.3l-10.1-15.5l2.3-1.3
				L654.4,325.8z"/>
			<g class="st88">
				<path d="M654.4,325.8c-1.3,2.3-2.6,4.6-3.8,6.9c-0.1,0.2-0.2,0.4-0.4,0.4s-0.3-0.2-0.5-0.3l-10.1-15.5l2.3-1.3L654.4,325.8z"/>
			</g>
			<path class="st89" d="M674.9,338.3L640.5,318c-0.4-0.2-0.7-0.5-0.8-0.9c0-0.5,0.2-1.1,0.6-1.4c4.8-5,11.5-7.6,18.4-7.2
				c6.9,0.5,13.1,4.4,16.6,10.3C678.6,324.8,678.7,332.6,674.9,338.3"/>
			<path class="st9" d="M645.4,311.5c0.1,0,0.3-0.1,0.5-0.1c0.3,0,0.7-0.1,1.3-0.1c1.6,0,3.2,0.1,4.8,0.4c5.2,0.9,10.1,3.2,14.1,6.8
				c3.9,3.6,6.8,8.2,8.2,13.3c0.4,1.5,0.7,3.1,0.8,4.7c0.1,0.6,0,1,0.1,1.3c0,0.2,0,0.3,0,0.5c0,0-0.1-0.6-0.2-1.7
				c-0.8-6.8-4.1-13.1-9.1-17.8c-5.1-4.5-11.7-7.1-18.6-7.3C646.6,311.5,646,311.5,645.4,311.5z"/>
			<path class="st9" d="M670.2,324.3c-0.5,0.3-1.1,0.6-1.7,0.8c-1.1,0.4-2.6,1-4.3,1.5s-3.3,1-4.4,1.3c-0.6,0.2-1.2,0.3-1.9,0.4
				c0.6-0.3,1.2-0.5,1.8-0.6l4.4-1.4l4.4-1.4C668.9,324.5,669.6,324.4,670.2,324.3z"/>
			<path class="st9" d="M664.8,309.7c0.5,2.5,0.5,5.1,0.2,7.7c-0.2-1.3-0.2-2.6-0.2-3.9C664.7,312.3,664.7,311,664.8,309.7z"/>
			<path class="st9" d="M640.1,317.6c0.8-0.4,1.6-0.7,2.5-0.9c1.6-0.5,3.7-1.1,6.2-1.7s4.6-1,6.3-1.3c0.9-0.2,1.7-0.3,2.6-0.4
				c-0.8,0.3-1.7,0.5-2.6,0.6c-1.6,0.4-3.8,0.8-6.2,1.4s-4.6,1.1-6.2,1.5C641.9,317.2,641,317.4,640.1,317.6z"/>
			<path class="st89" d="M659,341c-3-2.2-6.1-2.7-9.8-2.5c-3.7,0.3-7.3,1.2-10.7,2.8c-5.8,2.5-11.3,6.3-14.7,11.6
				s-4.7,12.3-2.1,18.1c0.2,0.6,0.6,1.1,1.2,1.4c0.6,0.2,1.3,0.1,1.9-0.1c6.6-2.1,13.2-4.3,19.3-7.7s11.6-8.1,14.8-14.2
				c0.8-1.4,1.4-3.1,1.6-4.7C660.7,343.9,660.1,342.3,659,341"/>
			<path class="st9" d="M659,340.3c-0.2,0.1-0.3,0.1-0.5,0.2l-1.4,0.5l-1,0.3l-1.2,0.5c-0.8,0.3-1.8,0.7-2.8,1.2l-1.6,0.7
				c-0.6,0.3-1.1,0.6-1.7,0.9c-1.2,0.6-2.4,1.3-3.7,2.1c-2.7,1.7-5.4,3.7-7.8,5.8c-2.4,2.2-4.7,4.5-6.7,7c-0.9,1.2-1.8,2.3-2.5,3.4
				c-0.4,0.5-0.8,1.1-1.1,1.6s-0.6,1-0.9,1.5c-0.6,1-1.1,1.9-1.5,2.6c-0.2,0.4-0.4,0.8-0.6,1.1s-0.3,0.7-0.5,1l-0.7,1.3
				c-0.1,0.2-0.2,0.3-0.3,0.5c0-0.2,0.1-0.3,0.2-0.5c0.1-0.4,0.3-0.8,0.6-1.4c0.1-0.3,0.3-0.6,0.4-1s0.4-0.7,0.6-1.1
				c0.4-0.8,0.9-1.7,1.5-2.7l0.9-1.5c0.3-0.5,0.7-1.1,1.1-1.6c0.7-1.1,1.6-2.2,2.5-3.4c2.1-2.5,4.3-4.9,6.8-7.1
				c2.5-2.1,5.1-4.1,7.9-5.8c1.3-0.8,2.5-1.5,3.7-2.1c0.6-0.3,1.2-0.6,1.7-0.9l1.6-0.7c1-0.5,2-0.8,2.9-1.1c0.4-0.1,0.8-0.3,1.2-0.4
				l1-0.3l1.4-0.4C658.7,340.4,658.9,340.3,659,340.3z"/>
			<path class="st9" d="M635.9,352.8c-2.4,0.9-4.8,1.7-7.2,2.3c-2.4,0.8-4.8,1.4-7.3,1.9c2.4-0.9,4.8-1.7,7.2-2.3
				C631,354,633.5,353.3,635.9,352.8z"/>
			<path class="st9" d="M635.6,368.7c-0.1-0.7-0.2-1.5-0.2-2.2c0-1.4,0-3.3,0-5.4s0.2-4,0.3-5.4c0-0.8,0.1-1.5,0.3-2.2
				c0.1,0.7,0.1,1.5,0,2.3c0,1.5-0.1,3.4-0.2,5.4s-0.1,3.9-0.1,5.4C635.8,367.2,635.7,368,635.6,368.7z"/>
			<path class="st9" d="M649.2,361.8c-0.1,0-0.5-3.9-0.8-8.7s-0.5-8.7-0.4-8.7s0.5,3.9,0.8,8.7S649.3,361.8,649.2,361.8z"/>
			<path class="st9" d="M632.3,344c0.8-0.1,1.5-0.1,2.3-0.1c1.4,0,3.4,0,5.5,0.1s4.1,0.2,5.5,0.2c0.8,0,1.5,0.1,2.3,0.2
				c-0.8,0.1-1.5,0.1-2.3,0.1c-1.4,0-3.4,0-5.5-0.1s-4.1-0.2-5.6-0.3C633.8,344.2,633.1,344.1,632.3,344z"/>
			<path class="st9" d="M666.3,392.9c0-0.2,0-0.3,0-0.5c0-0.3,0-0.8-0.1-1.4c0-1.2-0.1-2.9,0-5s0.2-4.6,0.4-7.4s0.7-5.8,1.2-9
				s1.3-6.1,2-8.8s1.5-5.1,2.1-7.1s1.3-3.6,1.7-4.7l0.5-1.2c0.1-0.1,0.1-0.3,0.2-0.4c0,0.2-0.1,0.3-0.1,0.5
				c-0.1,0.3-0.3,0.8-0.5,1.3c-0.4,1.1-1,2.7-1.6,4.7s-1.4,4.4-2.1,7.1s-1.3,5.7-1.9,8.8s-1,6.2-1.2,8.9s-0.4,5.3-0.5,7.3
				s-0.1,3.8-0.1,5c0,0.5,0,1,0,1.4C666.4,392.6,666.4,392.7,666.3,392.9z"/>
			<path class="st9" d="M668.1,369.4c-0.4,0.6-0.9,1.1-1.4,1.5c-0.9,0.9-2.2,2.1-3.6,3.3s-2.8,2.4-3.8,3.1c-0.5,0.4-1.1,0.8-1.7,1.2
				c0.4-0.5,0.9-1,1.5-1.4l3.7-3.2l3.7-3.3C667,370.2,667.6,369.8,668.1,369.4z"/>
			<path class="st9" d="M679,378.1c-0.5-0.6-1-1.3-1.5-2c-0.9-1.4-2.1-3.1-3.4-5s-2.5-3.6-3.5-4.9c-0.5-0.7-1-1.4-1.4-2.1
				c0.6,0.6,1.1,1.2,1.6,1.9c1,1.2,2.2,2.9,3.6,4.9s2.5,3.7,3.3,5C678.2,376.6,678.7,377.4,679,378.1z"/>
			<path class="st9" d="M673.3,350.6c0.1,0.1-3.5,2.5-8.1,5.4s-8.2,5.2-8.3,5.1s3.6-2.5,8.1-5.4S673.2,350.5,673.3,350.6z"/>
			<path class="st9" d="M683.5,361.6c-1.9-1.6-3.7-3.3-5.5-5.1c-1.8-1.7-3.6-3.5-5.2-5.4c1.9,1.6,3.7,3.3,5.5,5.1
				C680.1,357.9,681.9,359.7,683.5,361.6z"/>
			<path class="st86" d="M686.1,361.4l3.1-0.3c2.2-0.2,4.3-0.8,6.3-1.9c0.9-0.6,1.9-1,2.9-1.5c3.8-1.5,8.1-1.3,12.3-1.5
				c6.8-0.3,13.4-2,19.5-5c0.4-0.2,0.7-0.4,0.8-0.8c0.6-1.2-0.5-2.2-1.6-2.8c-5.2-3.2-10.6-6.5-16.5-8.1s-12.7-1.3-17.7,2.2
				C689.2,345.8,687.1,354.2,686.1,361.4"/>
			<path class="st9" d="M731,350.1c-0.2-0.1-0.4-0.1-0.5-0.2l-1.5-0.8c-1.3-0.7-3.1-1.7-5.4-2.8c-2.7-1.3-5.5-2.4-8.4-3.2
				c-3.5-1-7.3-1.3-10.9-0.9c-3.7,0.4-7.1,1.9-9.9,4.3c-2.2,2-4,4.5-5.2,7.3c-0.8,1.8-1.6,3.7-2.3,5.7l-0.5,1.6
				c-0.1,0.2-0.1,0.4-0.2,0.5c0-0.2,0.1-0.4,0.1-0.6c0.1-0.4,0.3-0.9,0.5-1.6c0.6-2,1.3-3.9,2.1-5.8c1.2-2.8,3-5.3,5.2-7.4
				c2.9-2.4,6.4-4,10.1-4.4c3.7-0.4,7.5-0.1,11.1,0.9c2.9,0.9,5.7,2,8.4,3.4c2.3,1.1,4.1,2.2,5.4,2.9c0.6,0.3,1.1,0.6,1.4,0.8
				C730.7,349.9,730.9,350,731,350.1z"/>
			<path class="st9" d="M723.6,354.1c-0.1,0.1-4.1-2.5-9.1-5.9s-8.9-6.1-8.8-6.2s4.1,2.5,9.1,5.9S723.6,354,723.6,354.1z"/>
			<path class="st9" d="M719.7,341.6c-1,0.4-2.1,0.6-3.2,0.6c-1.1,0.2-2.2,0.2-3.2,0c1.1-0.2,2.1-0.3,3.2-0.4
				C717.5,341.7,718.6,341.6,719.7,341.6z"/>
			<path class="st9" d="M701.5,338.4c-0.8,1.8-1.8,3.6-3,5.1c0.3-0.9,0.8-1.8,1.3-2.7C700.2,339.9,700.8,339.1,701.5,338.4z"/>
			<path class="st9" d="M705.1,356.5c-0.7-0.3-1.4-0.6-2-1.1c-1.2-0.7-2.8-1.8-4.5-3s-3.2-2.4-4.3-3.3c-0.6-0.4-1.2-0.9-1.7-1.4
				c0.7,0.3,1.3,0.7,1.9,1.2l4.3,3.1c1.7,1.2,3.2,2.3,4.4,3.1C703.9,355.6,704.5,356,705.1,356.5z"/>
			<path class="st89" d="M690.6,374.6c-3-0.8-6.5,2.1-7.1,5.1s0.5,6.1,1.8,8.8c2.8,6.2,7,11.7,12.2,16c5.3,4.3,11.9,6.8,18.7,6.9
				c-1.3-5.8,0.3-11.9-0.4-17.8c-1.3-10.7-9.8-19.1-20.5-20.3C693.6,373.1,691.4,372.8,690.6,374.6"/>
			<path class="st9" d="M716.3,411.4c-0.1-0.1-0.3-0.1-0.4-0.2c-0.4-0.2-0.8-0.5-1.1-0.7c-1.2-1.1-2.2-2.4-2.9-3.9
				c-0.5-0.9-1-1.9-1.5-3l-1.6-3.5c-0.6-1.3-1.3-2.5-2-3.8c-0.8-1.3-1.7-2.5-2.7-3.7c-2-2.4-4.2-4.4-6.1-6.4
				c-1.7-1.7-3.3-3.6-4.6-5.6c-0.9-1.3-1.7-2.8-2.3-4.3c-0.2-0.5-0.3-1-0.4-1.3c-0.1-0.1-0.1-0.3-0.1-0.5c0,0,0.2,0.6,0.6,1.7
				c0.6,1.5,1.4,2.9,2.4,4.2c1.4,1.9,3,3.8,4.7,5.5c1.9,2,4.1,4,6.1,6.4c1,1.2,1.9,2.4,2.7,3.7c0.7,1.2,1.4,2.5,2,3.8l1.6,3.5
				c0.5,1.1,1,2.1,1.5,3c0.7,1.5,1.6,2.8,2.8,3.9C715.8,411.1,716.4,411.4,716.3,411.4z"/>
			<path class="st9" d="M701,406.6c0-0.7,0.1-1.3,0.3-2c0.2-1.2,0.6-2.9,1.1-4.7s1.1-3.5,1.5-4.6c0.2-0.6,0.5-1.3,0.8-1.8
				c-0.1,0.7-0.3,1.3-0.5,1.9c-0.4,1.2-0.9,2.8-1.4,4.6s-0.9,3.5-1.2,4.7C701.5,405.3,701.3,405.9,701,406.6z"/>
			<path class="st9" d="M715.8,392.3c-0.7-0.1-1.4-0.3-2.1-0.5c-1.3-0.3-3-0.8-5-1.2s-3.8-0.8-5-1c-0.7-0.1-1.4-0.2-2.1-0.5
				c0.7,0,1.4,0,2.1,0.2c1.3,0.2,3.1,0.5,5.1,0.9s3.7,1,5,1.4C714.5,391.7,715.2,392,715.8,392.3z"/>
			<path class="st9" d="M690,396.4c0-0.8,0.1-1.6,0.3-2.3c0.3-1.4,0.7-3.4,1.2-5.5s1.2-4,1.6-5.4c0.2-0.7,0.5-1.5,0.8-2.2
				c-0.1,0.8-0.3,1.5-0.6,2.3c-0.4,1.4-0.9,3.3-1.5,5.4s-1,4-1.3,5.4C690.5,395,690.3,395.7,690,396.4z"/>
			<path class="st9" d="M709,379.9c-2.8-0.1-5.5-0.3-8.3-0.7c-4.5-0.5-8.2-1-8.2-1.1c2.8,0.1,5.5,0.3,8.3,0.7
				C705.3,379.3,709,379.7,709,379.9z"/>
			<path class="st49" d="M706.3,424.7c0,0.1-13,0.2-29,0.2s-29-0.1-29-0.2s13-0.2,29-0.2S706.3,424.6,706.3,424.7z"/>
			<path class="st49" d="M697.2,441.4c0,0.1-8.8,0.2-19.5,0.2s-19.6-0.1-19.6-0.2s8.8-0.2,19.6-0.2S697.2,441.3,697.2,441.4z"/>
			<path class="st49" d="M697.6,443.8c0,0.1-8.8,0.2-19.5,0.2s-19.6-0.1-19.6-0.2s8.8-0.2,19.6-0.2S697.6,443.7,697.6,443.8z"/>
			<path class="st49" d="M697.6,439.4c0,0.1-9,0.2-20.2,0.2s-20.2-0.1-20.2-0.2s9-0.2,20.2-0.2S697.6,439.3,697.6,439.4z"/>
			<g id="PlantType_2">
				<g id="Group_247">
					<path id="Path_1493" class="st90" d="M158.3,352.7c0,0,35.9-67.5,71.6-68.3c-0.3-0.7-34.4-4.8-74.3,65
						C154.8,348.4,158.3,352.7,158.3,352.7z"/>
					<path id="Path_1502" class="st90" d="M159.6,350.2c0,0-20.9-73.4-55.3-81.5c0.4-0.6,34.4,2.4,58.7,78.8
						C163.9,346.8,159.6,350.2,159.6,350.2z"/>
					<path id="Path_1494" class="st91" d="M162.5,352.3c0,0,9-115.5-2.4-156.8c0.9,0.9,5.1,39.3,2,94s-5,63.4-5,63.4L162.5,352.3z"
						/>
					<path id="Path_1495" class="st92" d="M97.9,241.4c0,0,52.6,48.6,66.9,109.7c-0.1,0.3-4,0.4-4,0.4S145.9,306,122.6,274
						S97.9,241.4,97.9,241.4z"/>
					<path id="Path_1499" class="st92" d="M241.4,253.9c0,0-61.2,36.7-87.7,93.5c0.1,0.3,3.8,1.2,3.8,1.2s23.9-41.4,53.2-68
						S241.4,253.9,241.4,253.9z"/>
					<path id="Path_1497" class="st92" d="M189,240.2c0,0-36.1,61.8-31.8,124.5c0.2,0.2,3.9-0.8,3.9-0.8s0.9-47.9,13.8-85.3
						S189,240.2,189,240.2z"/>
					<path id="Path_1504" class="st92" d="M141.2,221.3c0,0,28,65.7,16.1,127.4c-0.3,0.2-3.8-1.2-3.8-1.2s4.9-47.6-3.1-86.3
						S141.2,221.3,141.2,221.3z"/>
					<path id="Path_1496" class="st90" d="M139.2,264.2c0,0,21.4,43.4,25.3,95.9c1.5-0.4-5.4,0.6-5.4,0.6s3-19.4-14.4-75.8
						S139.2,264.2,139.2,264.2z"/>
					<path id="Path_1501" class="st90" d="M204.4,248.5c0,0-35.3,48.1-50,98.7c-1.4-0.7,5.1,1.7,5.1,1.7s6.6-29.7,35.2-81.2
						S204.4,248.5,204.4,248.5z"/>
					<path id="Path_1498" class="st90" d="M105.4,296.3c0,0,45.2,2.7,58.6,55.3c-0.1,0.9-4.4,0-4.4,0s-6.3-24.6-20.9-37.9
						S105.4,296.3,105.4,296.3z"/>
					<path id="Path_1500" class="st90" d="M222.6,306.1c0,0-44.4-6.7-68.5,41.9c-0.1,0.9,4.3,0.9,4.3,0.9s11.3-22.8,28.2-32.7
						S222.6,306.1,222.6,306.1z"/>
					<path id="Path_1505" class="st93" d="M148,333.3c8.4,0.4,16.8,0.4,25.3,0c0,0,8.1,11.5,1.6,31.8c-0.1,1.9-15.5,5.2-28.2,1.5
						C144.9,366.2,139.7,344.3,148,333.3z"/>
					<g>
						<g>
							<defs>
								<path id="SVGID_1_" d="M148,333.3c8.4,0.4,16.8,0.4,25.3,0c0,0,8.1,11.5,1.6,31.8c-0.1,1.9-15.5,5.2-28.2,1.5
									C144.9,366.2,139.7,344.3,148,333.3z"/>
							</defs>
							<clipPath id="SVGID_2_">
								<use xlink:href="#SVGID_1_"  style="overflow:visible;"/>
							</clipPath>
							<g class="st94">
								<g id="Mask_Group_43">
									<path id="Path_1510" class="st30" d="M167.6,331.6c0,0,5.7,8.4,4.8,21.3s-3.8,16.7-3.8,16.7l2.7-0.6c0,0,5.4-13.4,3.4-24.5
										s-4.5-12.9-4.5-12.9H167.6z"/>
								</g>
							</g>
						</g>
					</g>
					<g>
						<g>
							<defs>
								<path id="SVGID_3_" d="M148,333.3c8.4,0.4,16.8,0.4,25.3,0c0,0,8.1,11.5,1.6,31.8c-0.1,1.9-15.5,5.2-28.2,1.5
									C144.9,366.2,139.7,344.3,148,333.3z"/>
							</defs>
							<clipPath id="SVGID_4_">
								<use xlink:href="#SVGID_3_"  style="overflow:visible;"/>
							</clipPath>
							<g class="st95">
								<g id="Mask_Group_42">
									<path id="Path_1508" class="st15" d="M152.3,333.3c0,0-6.9,16.7,3.6,25s20.2,2.8,20.2,2.8l-1.3,4.4
										c-8.8,4.5-19.1,4.9-28.2,1.1c-15.8-6.3,0-34.7,0-34.7L152.3,333.3z"/>
								</g>
							</g>
						</g>
					</g>
				</g>
				<rect id="Rectangle_9" x="137.4" y="365.3" class="st96" width="44.6" height="5.4"/>
				<path id="Path_365" class="st97" d="M151.5,370.7L135,464.6h48.5l-13.6-93.9h-2l12.4,90.3l-42.8,2.2l16.5-92.5H151.5z"/>
				<path id="Path_366" class="st98" d="M158.6,370.7h1.6l-11.5,93.9h-3.1L158.6,370.7z"/>
			</g>
		</g>
		<path class="st46" d="M226.6,224.5c0,0-3.5-6.8-4.4-7.5s-8.6-3.4-9.3-3.1s-10,2-8.9,3.1s7.6-0.2,7.6-0.2l0.9,0.4
			c0,0-5.6,1-6.8,1.7s-0.7,2,0.3,1.9s5.9-1.1,6.2-1s-5.3,1.4-5.9,1.8c-0.8,0.5-0.9,1.9,0.2,1.9c0.6-0.1,5.9-1.5,5.9-1.5
			c-1.6,0.6-3.1,1.3-4.6,2.1c-0.3,0.3-0.4,0.8-0.1,1.1c0.2,0.3,0.6,0.4,0.9,0.2c0.6-0.1,3.6-1.6,4.4-1.8c0,0,0.8,0.2,1.5,1.8
			s5.9,5.5,5.9,5.5L226.6,224.5z"/>
		<path class="st70" d="M224.4,224.6c-0.6,0.5-1.5,0.5-2.2,0c-0.7-0.4-1.2-1-1.8-1.4c-1.9-1.3-4.7-0.9-6.5-2.3
			c-0.3-0.2-0.5-0.5-0.4-0.8s0.5-0.3,0.8-0.3l7.7,0.1"/>
		<path class="st71" d="M222,219.8c-0.3-0.1-0.6-0.1-0.8-0.1c-0.5,0-1.3-0.1-2.3-0.1l-3.4-0.1h-1c-0.4-0.1-0.8,0-1.1,0.3
			c-0.2,0.2-0.2,0.5-0.1,0.7c0.1,0.2,0.2,0.4,0.4,0.5c0.3,0.2,0.6,0.4,1,0.6c1.3,0.5,2.6,0.8,4,1.1c0.6,0.2,1.1,0.4,1.6,0.7
			c0.4,0.3,0.8,0.7,1.2,1c0.6,0.6,1.4,0.8,2.2,0.7c0.6-0.1,0.8-0.4,0.7-0.4c-0.2,0.1-0.5,0.2-0.8,0.3c-0.8,0-1.5-0.3-2-0.8
			c-0.4-0.4-0.8-0.7-1.2-1c-0.5-0.3-1.1-0.6-1.7-0.8c-1.3-0.3-2.6-0.7-3.9-1.2c-0.3-0.1-0.6-0.3-0.9-0.5c-0.3-0.2-0.4-0.5-0.2-0.6
			s0.5-0.1,0.8-0.1h1h3.4c1,0,1.7,0,2.3-0.1C221.5,219.8,221.7,219.8,222,219.8z"/>
		<path class="st71" d="M204,216.9c0.5,0.3,1.1,0.4,1.7,0.4c0.6,0.1,1.3,0.1,1.9,0.1c0.7-0.1,1.5-0.2,2.3-0.3l1.7-0.3h-0.1
			c1.3,0.5,2.6,0.9,4,1.2c-1.3-0.6-2.6-1.2-3.9-1.6l0,0h-0.1l-1.7,0.3l-2.3,0.4c-0.6,0.1-1.2,0.1-1.9,0
			C205.2,216.9,204.6,216.9,204,216.9z"/>
		<path class="st99" d="M274.1,460.8l5.1-14.8c1.1-3.2-2.3-11.8-2.3-11.8c2.3-0.3,4.6-0.9,6.8-1.7c2.3-1.1-17.4-8.5-17.4-8.5
			l-1.9,10l4.6,22.2l0.9,4.3c0.2,1.2,1.4,1.9,2.5,1.7C273.3,462,273.9,461.5,274.1,460.8L274.1,460.8z"/>
		<path class="st46" d="M269.1,456.2c13.6-17.9-3.4-32.7-3.4-32.7l-3,10L269.1,456.2z"/>
		<path class="st99" d="M234.8,459l13.5,4.9c2.9,1,10.8-1.9,10.8-1.9c0.2,2.1,0.7,4.2,1.5,6.2c1,2.1,7.9-15.8,7.9-15.8l-9.1-1.8
			l-20.4,3.9l-3.9,0.8c-1.1,0.3-1.7,1.4-1.4,2.4C233.8,458.2,234.2,458.7,234.8,459L234.8,459z"/>
		<path class="st46" d="M239,454.5c16.2,12.7,27.3-2.5,27.3-2.5l-6.4-2.6L239,454.5z"/>
		<path class="st100" d="M257.3,449.2L280.4,288l1.1-14.4l28.3-1.5c0,0,9.9,15.4,10.4,24.9s-28.1,78.3-28.1,78.3l-3.3,21.9
			l-17.9,56.2L257.3,449.2z"/>
		<path class="st49" d="M281.3,276.6c0.1,0-5.1,38.7-11.7,86.3s-12.1,86.3-12.3,86.3s5.1-38.7,11.7-86.3S281.2,276.6,281.3,276.6z"
			/>
		<path class="st49" d="M250.4,357.7c-0.1,0.1-0.6-0.4-1.7-1c-2.8-1.4-6.1-1.6-9-0.4c-1.1,0.5-1.7,0.9-1.8,0.9
			c0.5-0.5,1-0.9,1.6-1.1c3-1.5,6.5-1.3,9.3,0.4C249.5,356.8,250,357.2,250.4,357.7z"/>
		<path class="st49" d="M311.6,282c0,0-0.2,0.2-0.6,0.4c-0.6,0.3-1.2,0.5-1.8,0.6c-0.9,0.2-1.9,0.4-2.9,0.4c-1.2,0-2.4-0.1-3.5-0.4
			c-1.2-0.3-2.3-0.7-3.3-1.2c-0.9-0.4-1.7-1-2.4-1.6c-0.5-0.4-1-0.9-1.4-1.4c-0.3-0.4-0.4-0.6-0.4-0.6s0.7,0.7,2,1.7
			c0.7,0.6,1.5,1.1,2.4,1.5c1,0.5,2.1,0.9,3.2,1.1s2.3,0.4,3.4,0.4c0.9,0,1.9-0.1,2.8-0.3C310.6,282.3,311.5,281.9,311.6,282z"/>
		<path class="st49" d="M228.9,376.7c-0.3-0.5-0.6-1-0.9-1.6c-0.6-1-1.3-2.5-2.3-4.4c-1.1-2.2-2.1-4.4-2.9-6.7
			c-0.5-1.4-0.9-2.7-1.3-4.2c-0.4-1.5-0.6-3.1-0.6-4.6c-0.1-1.6,0.1-3.1,0.4-4.7c0.3-1.4,0.8-2.8,1.3-4.2c1-2.2,2.2-4.4,3.6-6.4
			c1.2-1.7,2.3-3,3-3.9c0.4-0.5,0.7-0.8,0.9-1c0.1-0.1,0.2-0.2,0.3-0.3c-0.3,0.5-0.7,1-1.1,1.5c-0.7,0.9-1.7,2.3-2.9,4
			c-1.4,2-2.5,4.1-3.5,6.4c-0.5,1.3-1,2.7-1.3,4.1c-0.3,1.5-0.4,3-0.4,4.5c0.1,1.5,0.3,3.1,0.6,4.5s0.7,2.8,1.2,4.1
			c0.9,2.6,1.9,4.9,2.8,6.7l2.1,4.5l0.6,1.2C228.8,376.4,228.8,376.6,228.9,376.7z"/>
		<path class="st100" d="M277.4,274l-51.5,66.4c-5,6.4-6.4,14.9-3.8,22.5l37.3,76.2l11.3-19.3l-20.2-62.2l27.9-33.5l12.4-51.4
			L277.4,274z"/>
		<polygon class="st101" points="271.3,214.3 252.1,236.3 227.3,222.6 218.6,231.3 250.9,253.4 265.3,253.2 277.5,229 		"/>
		<path class="st101" d="M283.1,208.8c0,0-15.5,1.1-15.1,15.2l-3.7,6.6l12,44.8l33.9-2.9l5.1-35.4l9.6-15.1c0,0-2.4-14.2-18.1-14.3"
			/>
		<g class="st102">
			<path d="M273.3,268.7c5.5,1.5,11.4,0.3,16-3.1c0.6-0.6,1.3-1,2.1-1.2c0.9-0.1,1.8,0,2.6,0.4c3.8,1.2,7.8,1.9,11.9,2.1
				c1.4,0.2,2.8,0,4.1-0.5c1.3-0.6,2.1-2,1.9-3.4c-6-2.2-12.3-3.9-18.6-5c-3.3-0.6-6.7-1-10-0.3s-6.3,2.7-9.1,4.6
				c-0.8,0.4-1.4,1.1-1.8,1.9c-0.6,1.6,1.1,3.4,0.8,5.1"/>
		</g>
		<path class="st101" d="M300.1,221.5c1,0.9,14.3,23.7,14.3,23.7l-21.2,4.6l-0.7,10.5l20.9,3l9.4,1c4.2,0.4,8.3-1.3,10.9-4.7l0,0
			c2.6-3.5,3.2-8.1,1.5-12.1l-10.9-27.6L300.1,221.5z"/>
		<path class="st9" d="M320.3,245.1c0,0.1-6,1.3-13.5,2.6s-13.6,2.2-13.6,2.1s6-1.3,13.5-2.6S320.3,244.9,320.3,245.1z"/>
		<path class="st9" d="M315.3,245.9c-0.2-0.4-0.4-0.7-0.6-1.1c-0.4-0.8-0.8-1.9-1.4-3.2c-1.1-2.7-2.7-6.4-4.3-10.5
			c-0.8-2.1-1.6-4-2.3-5.8c-0.7-1.6-1-3.3-0.9-5.1c0.1-1.2,0.7-2.3,1.5-3.1c0.2-0.2,0.5-0.4,0.8-0.6c0.1-0.1,0.2-0.1,0.3-0.1
			c-0.3,0.3-0.6,0.5-0.9,0.8c-0.7,0.8-1.2,1.9-1.3,3c-0.1,1.7,0.3,3.3,1,4.9c0.7,1.8,1.5,3.8,2.4,5.8c1.7,4.1,3.1,7.9,4.2,10.6
			c0.5,1.3,0.9,2.4,1.2,3.2C315.1,245.1,315.2,245.5,315.3,245.9z"/>
		<path class="st9" d="M326.2,264.4c-0.4,0.1-0.9,0.1-1.3,0c-0.9,0-2.1,0-3.6-0.1c-3.1-0.2-7.3-0.5-12-1.2s-8.8-1.4-11.9-1.9
			l-3.6-0.6c-0.4-0.1-0.9-0.2-1.3-0.3c0.4,0,0.9,0,1.3,0.1c0.9,0.1,2.1,0.3,3.6,0.5c3,0.4,7.2,1.1,11.9,1.7s8.9,1.1,11.9,1.3
			l3.6,0.3C325.3,264.2,325.7,264.3,326.2,264.4z"/>
		<path class="st9" d="M270.8,250.2c0-1.3-0.2-2.6-0.6-3.8c-0.3-1.1-0.9-2.5-1.3-4.1c-0.2-0.8-0.3-1.7-0.3-2.5
			c0.1-0.9,0.3-1.8,0.6-2.7c1.2-2.9,2.7-5.7,4.5-8.3l1.5-2.4c0.2-0.3,0.4-0.6,0.6-0.9c-0.1,0.4-0.2,0.7-0.4,1
			c-0.3,0.6-0.8,1.4-1.4,2.5c-1.7,2.6-3.1,5.4-4.3,8.3c-0.3,0.8-0.5,1.7-0.5,2.5c-0.1,0.8,0,1.6,0.2,2.4c0.4,1.5,0.9,2.9,1.1,4.1
			c0.3,0.9,0.4,1.9,0.4,2.9c0,0.3,0,0.5-0.1,0.8C270.8,250.2,270.8,250.2,270.8,250.2z"/>
		<g class="st102">
			<path d="M306.3,224.6c0.1,6.8,1.3,12.5,1.4,19.4c0,0.7,0.1,1.3,0.3,1.9c0.8,1.5,2.5,1,4.2,0.9c0.9-0.1,1.7-0.3,2.5-0.5
				c0.1-0.5,0-1-0.2-1.5C311.8,237.7,309.1,231.7,306.3,224.6"/>
		</g>
		<polygon class="st9" points="230.8,238.1 241.1,248 257.7,264 286.2,262.6 263.1,236.5 		"/>
		<path class="st15" d="M235.3,237.8c0,0-7.4,3.3,0.1,9s18,7.9,19.6,12c1,2.3,0.6,5-1,7l21.8-1c0,0,6.5-5.6,1.6-10.6
			s-17.5-12.1-19-14.1s2.1-3.5,2.1-3.5L235.3,237.8z"/>
		<polygon class="st49" points="242.2,237.5 241.4,236.5 253.2,235.8 253.2,237 		"/>
		<path class="st50" d="M256.6,240.8c-1,0.3-1.9,0.4-2.9,0.4c-1.8,0.2-4.3,0.4-7.1,0.6s-5.3,0.2-7.2,0.2c-1,0-2,0-3-0.3
			c1-0.1,2-0.1,3-0.1c1.8,0,4.4-0.2,7.1-0.3l7.1-0.4C254.6,240.8,255.6,240.8,256.6,240.8z"/>
		<path class="st50" d="M258.9,244.1c-3.2,0.4-6.4,0.6-9.6,0.7c-3.2,0.2-6.4,0.3-9.6,0.2c3.2-0.4,6.4-0.7,9.6-0.7
			C252.5,244.1,255.7,244,258.9,244.1z"/>
		<path class="st50" d="M264,246.9c-0.9,0.3-1.8,0.4-2.7,0.5c-1.7,0.2-4,0.5-6.7,0.7s-5,0.3-6.7,0.4c-0.9,0.1-1.9,0.1-2.8-0.1
			c0.9-0.2,1.8-0.3,2.8-0.3l6.7-0.5l6.7-0.5C262.1,246.9,263,246.8,264,246.9z"/>
		<path class="st50" d="M267.4,250.6c-2.7,0.5-5.4,0.8-8.2,0.9c-2.7,0.3-5.5,0.4-8.2,0.4c2.7-0.5,5.4-0.8,8.2-0.9
			C261.9,250.7,264.6,250.6,267.4,250.6z"/>
		<path class="st50" d="M272.5,254c-2.6,0.5-5.3,0.9-7.9,1.1c-2.6,0.4-5.3,0.6-8,0.6c2.6-0.5,5.2-0.9,7.9-1.1
			C267.2,254.2,269.9,254,272.5,254z"/>
		<path class="st50" d="M274.9,258.7c-0.8,0.2-1.6,0.3-2.4,0.4c-1.5,0.2-3.5,0.4-5.8,0.5s-4.3,0.1-5.8,0.1c-0.8,0-1.6,0-2.4-0.2
			c0.8-0.1,1.6-0.2,2.4-0.2l5.8-0.3l5.8-0.3C273.3,258.6,274.1,258.6,274.9,258.7z"/>
		<path class="st46" d="M292.5,260.1l-5.4-0.9l-20.2,0.5c0,0-1-0.3-0.1-0.9c0.4-0.3,7.9-2.1,7.9-2.1l-10.7,0.9
			c1-1.9,2.4-3.6,4.1-4.9c2.6-1.8,7.6-2.9,7.6-2.9l-3.2-2.4c0,0,10.5-1.4,11.9-0.2s3,3.1,3,3.1l5.8-0.1"/>
		<path class="st71" d="M278.3,256.1c0,0.1-3.2,0.3-7.1,0.6s-7.1,0.9-7.1,0.7c0.6-0.3,1.3-0.4,2-0.5c1.3-0.2,3-0.5,5-0.7
			s3.8-0.3,5-0.3C276.9,256,277.6,256,278.3,256.1z"/>
		<path class="st71" d="M277.7,253.5c-2,0.5-4,0.9-6.1,1.1c-2,0.4-4.1,0.6-6.1,0.6c2-0.5,4-0.9,6.1-1.1
			C273.6,253.7,275.7,253.5,277.7,253.5z"/>
		<path d="M271.3,191.9c0-0.2,0.1-0.6,0.2-1c0.1-0.5,0.3-1,0.5-1.4c0.3-0.6,0.6-1.1,1.1-1.6c0.4-0.5,1-0.9,1.5-1.2
			c0.5-0.2,0.9-0.4,1.4-0.6l0.5-0.1l0.3-0.3l-0.1,0.2l0.3-0.1l0.4-0.1l-0.9,0.6c-0.1,0.3-0.3,0.6-0.4,1c-0.6,1.3-1,2.6-1.3,3.9
			c-0.2,1.4-0.2,2.8-0.2,4.1c0,0.6,0,1,0,1.3s0,0.5,0,0.5l-0.2-0.5c-0.1-0.3-0.3-0.7-0.5-1.3c-0.2-0.7-0.4-1.3-0.5-2
			c-0.1-0.8-0.1-1.7,0-2.5s0.4-1.7,0.9-2.4c0.3-0.6,0.7-1.1,1.1-1.6c-0.6,0.4-1.2,0.9-1.7,1.4c-0.7,0.8-1.3,1.7-1.9,2.6l-0.5,0.9
			l-0.2,0.3C271.2,192.3,271.2,192.1,271.3,191.9z"/>
		<path d="M303.8,198.9c0.7,1.7,1.6,3.2,2.8,4.6c2.5,3.1,5.9,5.8,9.9,6c-2-0.7-3.8-1.9-5.2-3.5c0.2,0.1,0.5,0.3,0.7,0.4
			c2.8,1.6,6,2.1,9.1,1.4c-1.2-1.4-2.1-3-2.5-4.8c-0.3-1.3-0.5-2.6-0.6-3.9c0-3.1,0.3-6.3,0.9-9.4c0.8-5.1,1.1-10.2,1-15.4
			c-0.1-4.1-1.5-8.5-4.6-11.4c-2.9-2.6-7.3-2.4-9.9,0.5c-0.2,0.2-0.4,0.4-0.5,0.6c-0.2,0.3-0.4,0.6-0.6,1c-0.3,0.6-0.4,1,0,1.5
			s0.8,0.9,1.2,1.4c1.1,1.3,1.9,2.8,2.2,4.5c-0.2,0.2-0.4,0.3-0.5,0.5c-1.1,1.2-1.9,2.5-2.4,4c-1.6,3.9-2.4,8.1-2.5,12.3
			C302.1,192.6,302.6,195.8,303.8,198.9z"/>
		<path class="st103" d="M304.9,164.3c0.2,0.7,0.5,1.3,0.8,1.9c1.9,0.1,3.6,1.2,4.4,3c0.7,1.7,1.1,3.6,1,5.5c0,2.8-0.2,5.6-0.6,8.4
			c-0.5,2.9-1.2,5.9-1.1,8.9s1,6.1,3.3,8c-0.1-1.8,0.2-3.5,0.9-5.2c0.3,3.4,2.1,6.5,5,8.4c-0.3-1.3-0.5-2.6-0.6-3.9
			c0-2.3,0.2-4.6,0.5-6.8c0.1-0.9,0.3-1.7,0.4-2.5c0.8-5.1,1.1-10.2,1-15.4c-0.1-4.1-1.5-8.5-4.6-11.4c-1.6-1.5-3.9-2.1-6.1-1.7
			c-0.6,0.1-1.2,0.3-1.7,0.6C306.5,162.5,305.6,163.3,304.9,164.3z"/>
		<path class="st104" d="M307.6,162c1.9,1.3,3.8,2.6,4.7,4.6c0.4,0.9,0.7,1.9,0.8,2.9c0.3,1.3,0.5,2.7,0.6,4.1
			c-0.1,2.4-0.3,4.8-0.6,7.1c-0.2,2.8,0.1,5.7,1,8.4c0.3-1.3,0.9-2.5,1.5-3.7c0.3,2.6,1.3,5,2.9,7c0.1-0.9,0.3-1.7,0.4-2.5
			c0.8-5.1,1.1-10.2,1-15.4c-0.1-4.1-1.5-8.5-4.6-11.4c-1.6-1.5-3.9-2.1-6.1-1.7C308.6,161.6,308.1,161.8,307.6,162z"/>
		<path class="st105" d="M300.6,167.4c0,2.2,1.8,4.1,4.1,4.1s4.1-1.8,4.1-4.1c0-2.2-1.8-4.1-4.1-4.1S300.6,165.1,300.6,167.4
			L300.6,167.4z"/>
		<path class="st100" d="M285.4,208.6l-1.1,12.2l5.4-2.7l2.8-3.5c0,0,0-4.4,0-6.6h-4.1c-0.6,0-1.2,0.1-1.8,0.3l0,0
			C286.3,208.3,285.9,208.4,285.4,208.6z"/>
		<path class="st46" d="M289.7,218l9-10.1c0-1.5-0.1-2.1-0.3-5.8c-0.1-4.1-0.3-8-0.3-8l-11.6,4.6c1.2,3,1.9,6.2,2.1,9.4
			C288.7,211.4,289.1,214.7,289.7,218z"/>
		<path class="st106" d="M286.5,198.8c1.2,3,1.9,6.2,2.1,9.4c0.4,0.1,0.7,0.3,1.1,0.4c1.4,0.5,5.7-3.4,8.8-6.4c-0.1-4.1-0.3-8-0.3-8
			L286.5,198.8z"/>
		<path class="st46" d="M274.3,184.9c0.2,1.1,0.5,2.2,0.9,3.4c0,0-0.5,5.8,0.1,7.1s4.5,9.4,8.6,8.9c3.4-0.4,11.8-5.4,14.8-8.4
			c0.5-0.4,0.8-0.9,1-1.5c0.4-2.3,1.8-12.5,1.9-13.4c0.4-2.3,1.3-19.8-19.8-15c-3.8,0.9-6.8,3.8-7.7,7.6
			C273.4,177.4,273.4,181.3,274.3,184.9z"/>
		<path d="M271,174.1c0,0.9,0.2,1.8,0.5,2.7c0.5,1.8,1.5,3.5,2.9,4.7c-0.2-2.4-0.1-4.7,0.3-7.1c5,5.5,15.6,7.4,16,7.5
			c-2-0.6-2.6-4.6-2.6-4.6c2.4,5.6,13,6.8,13,6.8c2.5-2,4.3,1.8,4.3,1.8c0.9-1.6,1.6-3,2.1-4.3c0.1-0.4,0.3-0.7,0.4-1
			c0.3-0.9,0.6-1.8,0.7-2.7c1.4-8.4-4.9-16.7-13-19.1l0,0c-7.7-2.2-16.8-0.2-21.1,4.1c-0.8,0.7-1.4,1.6-1.8,2.5
			c-0.1,0.1-0.1,0.3-0.2,0.4v0.1c-0.3,0.8-0.4,1.6-0.4,2.5c0,0.5,0.1,1,0.2,1.5C271.5,171.2,271.1,172.6,271,174.1z"/>
		<path class="st103" d="M272.6,165.7c0.5,0.3,0.9,0.5,1.4,0.6c1,0.3,2.1,0.3,3.1,0.6c1.2,0.3,2.4,1,3.2,2c1.5,1.7,2.1,4.2,4.2,5.2
			c1.5,0.6,3.1,0.6,4.6,0.1s3-0.9,4.6-0.9c2.5,0.1,4.6,1.7,6.1,3.6c0.4,0.6,0.9,1.1,1.5,1.6c0.9,0.5,1.9,0.7,2.9,0.6
			c1.6-0.1,3.1-0.5,4.5-1.2c0.4-2.7,0.1-5.5-0.9-8c-2.2-5.3-6.6-9.4-12.2-11.1l0,0c-5-1.4-10.2-1.2-15.1,0.5c-2.2,0.7-4.3,1.9-6,3.6
			c-0.8,0.7-1.4,1.6-1.8,2.5C272.7,165.4,272.6,165.6,272.6,165.7z"/>
		<path class="st104" d="M280.5,159.2c2.5,2,3.8,5.6,6.8,6.7c1.7,0.7,3.7,0.3,5.5,0.1s3.9-0.2,5.4,0.9c0.8,0.6,1.3,1.5,2,2.1
			c1.6,1.3,3.8,1.8,5.8,1.3c0.6-0.1,1.3-0.3,1.9-0.5c-2.2-5.3-6.6-9.4-12.2-11.1l0,0C290.7,157.3,285.4,157.5,280.5,159.2z"/>
		<path class="st107" d="M275.2,188.3c0,0-0.5,5.8,0.1,7.1s4.5,9.4,8.6,8.9c3.4-0.4,11.8-5.4,14.8-8.4c-3.6,2.5-13.1,8.8-15.9,7.9
			c-3.5-1.2-7.4-8.9-7.3-9.6s0.3-5.7,0.3-5.7s-0.7-1.6-1.5-3.5C274.6,186,274.9,187.1,275.2,188.3z"/>
		<path class="st107" d="M298.8,194.2c2.2-0.2,4.3-1.3,5.6-3.1c0.2-0.3,0.4-0.5,0.6-0.8c0.8-1.4,1-6.1-1-7.3
			c-1.4-0.8-2.4,0.4-2.8,1.1l0,0c-0.1,0.2-0.2,0.4-0.3,0.6L298.8,194.2z"/>
		<path class="st46" d="M298.8,194.2c2.2-0.2,4.3-1.3,5.6-3.1c0.1-0.1,0.2-0.3,0.2-0.4c0.8-1.4,1-6.1-1-7.3c-0.9-0.5-2-0.2-2.5,0.6
			l0,0c-0.1,0.2-0.2,0.4-0.3,0.6L298.8,194.2z"/>
		<path class="st106" d="M304.6,186.8c0.1,0.4,0.1,0.8-0.1,1.1c-0.5,1.6-2.1,2.8-3.7,4c0.4-0.8,0.6-1.6,0.5-2.5
			c0-0.3-0.1-0.6-0.1-0.9C301.3,187.3,304.1,184.5,304.6,186.8z"/>
		<path class="st108" d="M300.1,192.3L300.1,192.3l0.3-0.2c0.3-0.2,0.5-0.4,0.8-0.7c0.3-0.4,0.5-0.8,0.6-1.3
			c0.1-0.6,0.1-1.2-0.2-1.7c0-0.1-0.1-0.1-0.1-0.2l0,0l0,0v-0.1V188l0.1-0.2c0.1-0.2,0.3-0.4,0.5-0.7c0.2-0.2,0.3-0.4,0.5-0.6
			c0.2-0.2,0.3-0.3,0.5-0.4c0.1-0.1,0.3-0.2,0.5-0.2c0.1,0,0.3,0,0.4,0.1c0.1,0,0.1,0.1,0.2,0.2c0,0.1,0,0.1,0,0.1v-0.1
			c0-0.1-0.1-0.2-0.2-0.2c-0.1-0.1-0.3-0.2-0.5-0.2s-0.5,0.1-0.7,0.2c-0.2,0.1-0.4,0.3-0.6,0.4c-0.2,0.2-0.4,0.4-0.6,0.6
			c-0.2,0.2-0.4,0.4-0.5,0.7l-0.1,0.2l-0.1,0.1l-0.1,0.1l-0.1,0.1v0.1l0.1,0.1c0,0.1,0.1,0.1,0.1,0.2c0.2,0.5,0.3,1,0.3,1.5
			c-0.1,0.4-0.2,0.8-0.4,1.2c-0.2,0.3-0.3,0.5-0.6,0.7L300.1,192.3L300.1,192.3z"/>
		<path class="st100" d="M289.7,218.1l6.9,5.4l6.9-15.5c-1.5-0.5-3.2-0.5-4.7,0L289.7,218.1z"/>
		<path d="M296.2,188.7c0-0.2,0.1-0.6,0.2-1c0.1-0.5,0.3-1,0.5-1.4c0.3-0.6,0.6-1.1,1.1-1.6c0.4-0.5,1-0.9,1.5-1.1
			c0.5-0.2,0.9-0.4,1.4-0.6l0.5-0.1l0.3-0.3l-0.1,0.2l0.3-0.1l0.4-0.1l-0.9,0.6l-0.4,1c-0.6,1.3-1,2.6-1.2,3.9
			c-0.2,1.4-0.3,2.8-0.2,4.2c0,0.6,0,1,0,1.3s0,0.5,0,0.5l-0.2-0.4c-0.1-0.3-0.3-0.7-0.5-1.3c-0.2-0.7-0.4-1.3-0.5-2
			c-0.1-0.8-0.1-1.7,0-2.5s0.4-1.7,0.9-2.4c0.3-0.6,0.7-1.1,1.1-1.6c-0.6,0.4-1.2,0.9-1.7,1.4c-0.7,0.8-1.3,1.6-1.9,2.5
			c-0.2,0.4-0.4,0.6-0.6,0.8l-0.2,0.3L296.2,188.7z"/>
		<path class="st109" d="M272.4,180.8c0,0,2.7-3.6,4.2-2.2s0.8,1.6,0.8,1.6L272.4,180.8z"/>
		<path class="st109" d="M293.8,181.4c0,0-5-5.7-7-3.7c-1.2,1.2-0.4,2-0.4,2L293.8,181.4z"/>
		<path class="st110" d="M288.7,183.3c0.2-0.3,0.6-0.5,1-0.5c1,0,1.8,1.3,1.8,2.8s-0.8,2.8-1.8,2.8s-1.8-1.3-1.8-2.8
			c0-0.5,0.1-0.9,0.2-1.3"/>
		<path class="st110" d="M276.3,184.4c0.2-0.2,0.4-0.3,0.7-0.3c0.7,0,1.3,1,1.3,2.1s-0.6,2.1-1.3,2.1s-1.3-0.9-1.3-2.1
			c0-0.4,0.1-0.8,0.2-1.2"/>
		<path class="st106" d="M283,192.1c0.4-0.2,0.9-0.3,1.3-0.4c-0.5,1.1-1.3,1.9-2.4,2.3c-0.1,0-0.2,0.1-0.3,0.1c-0.1,0-0.2,0-0.3-0.1
			c-0.6-0.3-1.1-0.8-1.5-1.3c-0.1-0.1-0.2-0.2-0.2-0.4c-0.1-0.4,0.2-0.3,0.5-0.2s0.6,0.2,1,0.3C281.7,192.4,282.4,192.3,283,192.1z"
			/>
		<path class="st108" d="M281.9,193.9c-0.3-0.2-0.6-0.4-0.9-0.7c-0.4-0.3-0.7-0.6-1-1c1.5-1,1.4-2.5,1.4-4.2c0-0.8-0.2-1.5-0.6-2.2
			c-0.2-0.4-0.4-0.7-0.7-1c-0.1-0.2-0.3-0.3-0.5-0.4c-0.1-0.1-0.3-0.2-0.5-0.3c0.1,0.1,0.2,0.2,0.2,0.3c0.2,0.3,0.4,0.5,0.6,0.8
			s0.3,0.6,0.5,0.9c0.3,0.6,0.4,1.3,0.4,2s-0.1,1.4-0.3,2c-0.3,0.8-0.8,1.4-1.4,1.9c0,0,1,1.1,1.1,1.2c0.3,0.2,0.5,0.5,0.8,0.6
			c0.3,0.2,0.6,0.4,1,0.4c0.1,0,0.2,0,0.3-0.1c-0.1,0-0.1-0.1-0.2-0.1L281.9,193.9C282,193.9,282,193.9,281.9,193.9z"/>
		<path class="st108" d="M284.3,198.3c-1.1,0.5-2.4,0.6-3.5,0.1c0.3,0.6,1,0.9,1.6,0.9C283.2,199.2,283.8,198.8,284.3,198.3z"/>
		<path class="st108" d="M288.4,195.2c-2.8,2-6.5,2.5-9.7,1.3c1.8,0.3,3.6,0.3,5.3,0C285.5,196.4,287,195.9,288.4,195.2z"/>
	</g>
</g>
</svg>
