<svg id="Layer_1" data-name="Layer 1" xmlns="http://www.w3.org/2000/svg" viewBox="0 0 311.04 311.04"><defs><style>.cls-1,.cls-2{fill:#fff;stroke-miterlimit:10;stroke-width:2px;}.cls-1{stroke:#fff;}.cls-2{stroke:#004b96;}</style></defs><title>algorithm development</title><circle class="cls-1" cx="155.52" cy="155.52" r="154.52"/><g id="Group_1085" data-name="Group 1085"><ellipse id="Ellipse_186" data-name="Ellipse 186" class="cls-2" cx="155.52" cy="195.37" rx="106.5" ry="61.65"/><g id="Group_1060" data-name="Group 1060"><g id="Group_1010" data-name="Group 1010"><path id="Path_1815" data-name="Path 1815" class="cls-2" d="M697,414.22H662.43c-5.65,0-9.64-3.78-8.9-8.17l5.29-31.35c.44-2.66,4.17-4.75,8.3-4.75h25.16c4.12,0,7.85,2.09,8.3,4.75l5.29,31.35C706.61,410.44,702.61,414.22,697,414.22Z" transform="translate(-527.4 -228.37)"/><path id="Path_1818" data-name="Path 1818" class="cls-2" d="M733.92,388.24h0a3.29,3.29,0,0,1-3.27-3.27v-4.12a3.29,3.29,0,0,1,3.27-3.28h0a3.29,3.29,0,0,1,3.26,3.28V385A3.29,3.29,0,0,1,733.92,388.24Z" transform="translate(-527.4 -228.37)"/><path id="Rectangle_1822" data-name="Rectangle 1822" class="cls-2" d="M612.75,282.39H746.64c8.39,0,15.18,6.33,15.18,14.14v74.1c0,7.81-6.79,14.14-15.18,14.14H612.75c-8.38,0-15.18-6.33-15.18-14.14v-74.1C597.57,288.72,604.37,282.39,612.75,282.39Z" transform="translate(-527.4 -228.37)"/><path id="Path_1819" data-name="Path 1819" class="cls-2" d="M597.57,369.19V290.74a8.36,8.36,0,0,1,8.32-8.35H753.5a8.36,8.36,0,0,1,8.32,8.35v78.45Z" transform="translate(-527.4 -228.37)"/><path id="Rectangle_1826" data-name="Rectangle 1826" class="cls-2" d="M647.36,407H712a4.88,4.88,0,0,1,5,4.7v1.8a4.88,4.88,0,0,1-5,4.7H647.36a4.89,4.89,0,0,1-5.05-4.7v-1.8A4.89,4.89,0,0,1,647.36,407Z" transform="translate(-527.4 -228.37)"/><path id="Path_1901" data-name="Path 1901" class="cls-2" d="M676.79,374.43a4.11,4.11,0,0,1,5.49-.27,3.83,3.83,0,0,1,.29.28,4.1,4.1,0,0,1-5.49,6.07,3.71,3.71,0,0,1-.29-.27A4.12,4.12,0,0,1,676.79,374.43Z" transform="translate(-527.4 -228.37)"/></g><g id="Group_1059" data-name="Group 1059"><path id="Path_1877" data-name="Path 1877" class="cls-2" d="M743.67,434.16h0a3.27,3.27,0,0,1,3.26-3.27H751a3.28,3.28,0,0,1,3.27,3.27h0a3.28,3.28,0,0,1-3.27,3.27h-4.1A3.28,3.28,0,0,1,743.67,434.16Z" transform="translate(-527.4 -228.37)"/><path id="Rectangle_1830" data-name="Rectangle 1830" class="cls-2" d="M613.52,428.53H745.87a5.31,5.31,0,0,1,5.49,5.11v25.83a5.31,5.31,0,0,1-5.49,5.12H613.52a5.31,5.31,0,0,1-5.49-5.12V433.64A5.31,5.31,0,0,1,613.52,428.53Z" transform="translate(-527.4 -228.37)"/><path class="cls-2" d="M735.08,434.25" transform="translate(-527.4 -228.37)"/><path class="cls-2" d="M615.12,434.25" transform="translate(-527.4 -228.37)"/><path class="cls-2" d="M743.69,439.9" transform="translate(-527.4 -228.37)"/><path class="cls-2" d="M624.23,439.9" transform="translate(-527.4 -228.37)"/><path class="cls-2" d="M735.08,446.5" transform="translate(-527.4 -228.37)"/><path class="cls-2" d="M615.74,446.59" transform="translate(-527.4 -228.37)"/><path class="cls-2" d="M656.62,453.1" transform="translate(-527.4 -228.37)"/><path class="cls-2" d="M616.13,453.1" transform="translate(-527.4 -228.37)"/><path class="cls-2" d="M737.61,453.1" transform="translate(-527.4 -228.37)"/><path class="cls-2" d="M701.17,453.1" transform="translate(-527.4 -228.37)"/></g></g><polyline class="cls-2" points="206.17 159.68 206.17 187.96 240.59 187.96 240.59 205.87 228.44 205.87"/></g><polygon class="cls-2" points="128.03 58.82 128.03 74.99 150.71 74.99 175.17 74.99 175.17 58.82 128.03 58.82"/><line class="cls-2" x1="151.19" y1="88.85" x2="151.19" y2="74.99"/><rect class="cls-2" x="128.04" y="88.85" width="47.14" height="15.4"/><rect class="cls-2" x="88.73" y="115.96" width="43.26" height="16.86"/><rect class="cls-2" x="174.88" y="115.75" width="43.26" height="16.86"/><polyline class="cls-2" points="140.03 104.72 140.03 124.39 132.99 124.39"/><polyline class="cls-2" points="165.64 104.25 165.64 124.39 173.23 124.39"/><line class="cls-2" x1="96.32" y1="209.17" x2="198.57" y2="209.17"/><line class="cls-2" x1="114.55" y1="222.37" x2="213.76" y2="222.37"/></svg>