<svg id="Layer_1" data-name="Layer 1" xmlns="http://www.w3.org/2000/svg" viewBox="0 0 311.04 311.04"><defs><style>.cls-1,.cls-2{fill:#fff;stroke-miterlimit:10;stroke-width:2px;}.cls-1{stroke:#fff;}.cls-2{stroke:#004b96;}</style></defs><title>automation</title><circle class="cls-1" cx="155.52" cy="155.52" r="154.52"/><line class="cls-2" x1="129.38" y1="144.67" x2="180.37" y2="144.67"/><line class="cls-2" x1="135.43" y1="151.58" x2="180.37" y2="151.58"/><line class="cls-2" x1="129.38" y1="157.63" x2="180.37" y2="157.63"/><polyline class="cls-2" points="197.66 181.83 197.66 197.39 221.86 197.39 221.86 217.26 214.51 217.26"/><ellipse class="cls-2" cx="156.86" cy="208.37" rx="82.18" ry="47.45"/><path class="cls-2" d="M698.76,403.84H672.12c-4.37,0-7.45-2.91-6.87-6.28l4.08-24.14c.34-2,3.22-3.65,6.4-3.65h19.42c3.18,0,6.05,1.61,6.4,3.65l4.08,24.14C706.2,400.93,703.12,403.84,698.76,403.84Z" transform="translate(-530.05 -201.88)"/><rect class="cls-2" x="92.01" y="100.5" width="126.76" height="78.79" rx="15"/><path class="cls-2" d="M622.06,369.18V308.8a6.44,6.44,0,0,1,6.43-6.42h113.9a6.44,6.44,0,0,1,6.43,6.42v60.38Z" transform="translate(-530.05 -201.88)"/><rect class="cls-2" x="126.53" y="196.37" width="57.7" height="8.62" rx="4.31"/><circle class="cls-2" cx="685.42" cy="375.45" r="3.16" transform="translate(-594.78 392.76) rotate(-45)"/><rect class="cls-2" x="100.08" y="212.98" width="110.61" height="27.75" rx="5.43"/><path class="cls-2" d="M716.38,320.1v42.2H654.5V316.61c0-2.22,1.8-4,4-4.89h50.35Z" transform="translate(-530.05 -201.88)"/><polygon class="cls-2" points="226.91 156.33 219.49 149.21 213.78 153.77 218.05 159.64 217.57 165.81 214.46 166.38 207.64 166.85 205.61 160.99 208.33 154.24 201.58 151.24 196.08 159.98 200.14 172.25 212.51 174.29 212.98 174.99 214.01 174.54 214.44 174.61 214.55 174.3 226.07 169.21 226.91 156.33"/><polygon class="cls-2" points="219.28 85.29 206.66 81.01 206.29 80.19 205.12 80.49 204.69 80.34 204.52 80.65 191.56 83.99 188.45 97.35 195 106.11 201.78 102.31 198.31 95.41 199.89 89.03 203.24 88.97 210.48 89.66 211.59 96.15 207.57 102.75 214.14 107.07 221.41 98.85 219.28 85.29"/><path class="cls-2" d="M736.53,281.46h0a3,3,0,0,1-3-3v-13a3,3,0,0,1,3-3h0a3,3,0,0,1,3,3v13A3,3,0,0,1,736.53,281.46Z" transform="translate(-530.05 -201.88)"/><path class="cls-2" d="M792.5,257.09l-55.9,3.75c-.69.05-1.25,1.43-1.25,3.07s.56,3,1.25,3.08l55.9,3.75Z" transform="translate(-530.05 -201.88)"/><circle class="cls-2" cx="206.48" cy="77.97" r="6.92"/><circle class="cls-2" cx="206.48" cy="62.04" r="4.67"/><path class="cls-2" d="M578.65,271.27l40.68,2.4c.44,0,.8.91.8,2s-.36,1.93-.8,2L578.65,280Z" transform="translate(-530.05 -201.88)"/><circle class="cls-2" cx="619.38" cy="278.05" r="4.43" transform="translate(-577.5 -51.44) rotate(-13.34)"/><rect class="cls-2" x="604.66" y="276.22" width="29.44" height="42.1" rx="8.35" transform="translate(386.59 -523.99) rotate(90)"/><polyline class="cls-2" points="68.27 89.1 89.62 95.4 110.36 89.35"/><line class="cls-2" x1="109.93" y1="105.34" x2="96.22" y2="92.93"/><line class="cls-2" x1="69.48" y1="105.92" x2="83.19" y2="93.51"/><path class="cls-2" d="M743.61,376.64h0a2.81,2.81,0,0,0-2.8,2.8v12.27a2.81,2.81,0,0,0,2.8,2.8h0a2.82,2.82,0,0,0,2.81-2.8V379.44A2.82,2.82,0,0,0,743.61,376.64Z" transform="translate(-530.05 -201.88)"/><path class="cls-2" d="M792.5,399.57,743.68,396c-.65,0-1.17-1.35-1.17-2.89s.52-2.85,1.17-2.89l48.82-3.53Z" transform="translate(-530.05 -201.88)"/><path class="cls-2" d="M748,393.15a4.4,4.4,0,1,0-4.4,4.39A4.4,4.4,0,0,0,748,393.15Z" transform="translate(-530.05 -201.88)"/><line class="cls-2" x1="131.97" y1="121.33" x2="176.05" y2="121.33"/><line class="cls-2" x1="144.07" y1="132.57" x2="173.46" y2="132.57"/><line class="cls-2" x1="166.54" y1="143.8" x2="135.43" y2="143.8"/><line class="cls-2" x1="112.09" y1="219.86" x2="190.74" y2="219.86"/><line class="cls-2" x1="121.62" y1="228.75" x2="200.27" y2="228.75"/></svg>