<svg id="Layer_1" data-name="Layer 1" xmlns="http://www.w3.org/2000/svg" viewBox="0 0 311.04 311.04"><defs><style>.cls-1,.cls-2{fill:#fff;stroke-miterlimit:10;stroke-width:2px;}.cls-1{stroke:#fff;}.cls-2{stroke:#004b96;}</style></defs><title>backtesting</title><circle class="cls-1" cx="155.52" cy="155.52" r="154.52"/><path class="cls-2" d="M789.38,431.89a1.93,1.93,0,0,0-1.85-2l-8.65-1.66a2.13,2.13,0,0,1-.87-.2,34.39,34.39,0,0,0-2.12-6.46,2.59,2.59,0,0,1,.6-2.07l5-7.86a2.11,2.11,0,0,0,0-2.83L775.17,402a1.75,1.75,0,0,0-2.61,0l-7.2,5.45a2.39,2.39,0,0,1-.75.53,28.87,28.87,0,0,0-5.71-2.94,2.5,2.5,0,0,1-.92-1.92l-1.6-9.38a1.93,1.93,0,0,0-1.86-2l-5.44,0h-3.41a1.93,1.93,0,0,0-1.84,2l-1.53,9.39a2.47,2.47,0,0,1-.19.94,28.81,28.81,0,0,0-6,2.3,2.13,2.13,0,0,1-1.91-.65l-7.24-5.4a1.74,1.74,0,0,0-2.61,0l-6.24,6.82a2.12,2.12,0,0,0,0,2.83l5,7.81a2.35,2.35,0,0,1,.49.81,33.4,33.4,0,0,0-2.71,6.2,2.19,2.19,0,0,1-1.77,1l-8.63,1.74a1.92,1.92,0,0,0-1.84,2l0,9.61a1.93,1.93,0,0,0,1.86,2l8.64,1.66a2.07,2.07,0,0,1,.88.21,33.56,33.56,0,0,0,2.11,6.45,2.55,2.55,0,0,1-.6,2.07l-5,7.86a2.12,2.12,0,0,0,0,2.83l6.28,6.77a1.76,1.76,0,0,0,2.62,0l7.2-5.46a2.14,2.14,0,0,1,.75-.53,27.59,27.59,0,0,0,5.71,2.94,2.46,2.46,0,0,1,.91,1.92l1.61,9.37a1.94,1.94,0,0,0,1.85,2l5.45,0,3.4,0a1.93,1.93,0,0,0,1.85-2l1.53-9.38A2.72,2.72,0,0,1,756,467a28.33,28.33,0,0,0,6-2.3,2.11,2.11,0,0,1,1.9.65l7.24,5.4a1.75,1.75,0,0,0,2.61,0l6.24-6.82a2.14,2.14,0,0,0,0-2.84l-5-7.81a2.51,2.51,0,0,1-.49-.81,34.12,34.12,0,0,0,2.72-6.2,2.16,2.16,0,0,1,1.77-1l8.63-1.74a1.92,1.92,0,0,0,1.84-2Zm-31.27,13.42a12,12,0,0,1-18,.08,14.67,14.67,0,0,1-.08-19.52,12,12,0,0,1,18-.08A14.66,14.66,0,0,1,758.11,445.31Z" transform="translate(-527.4 -229.06)"/><path class="cls-2" d="M637.81,448.94a1.45,1.45,0,0,0-1.41-1.52l-6.58-1.27a1.5,1.5,0,0,1-.67-.16,25.88,25.88,0,0,0-1.61-4.91,1.94,1.94,0,0,1,.45-1.57l3.79-6a1.62,1.62,0,0,0,0-2.16L627,426.21a1.33,1.33,0,0,0-2,0l-5.48,4.15a1.84,1.84,0,0,1-.57.4,21.86,21.86,0,0,0-4.35-2.24,1.9,1.9,0,0,1-.7-1.46l-1.22-7.14a1.47,1.47,0,0,0-1.41-1.52l-4.14,0h-2.6a1.48,1.48,0,0,0-1.4,1.54L602,427.13a1.92,1.92,0,0,1-.14.72,22,22,0,0,0-4.53,1.75,1.6,1.6,0,0,1-1.45-.5l-5.51-4.1a1.33,1.33,0,0,0-2,0l-4.75,5.19a1.62,1.62,0,0,0,0,2.16l3.82,5.94a1.8,1.8,0,0,1,.37.62,25.67,25.67,0,0,0-2.06,4.72,1.69,1.69,0,0,1-1.35.76l-6.57,1.33a1.45,1.45,0,0,0-1.4,1.52l0,7.32a1.48,1.48,0,0,0,1.42,1.52l6.58,1.26a1.69,1.69,0,0,1,.66.16,25.22,25.22,0,0,0,1.62,4.91,2,2,0,0,1-.46,1.58l-3.79,6a1.62,1.62,0,0,0,0,2.16l4.78,5.15a1.33,1.33,0,0,0,2,0l5.49-4.16a1.69,1.69,0,0,1,.56-.4,21.35,21.35,0,0,0,4.35,2.24,1.9,1.9,0,0,1,.7,1.46l1.22,7.14a1.47,1.47,0,0,0,1.41,1.52l4.15,0h2.59a1.46,1.46,0,0,0,1.4-1.53l1.17-7.15a2,2,0,0,1,.14-.72A20.89,20.89,0,0,0,617,473.9a1.59,1.59,0,0,1,1.45.5l5.51,4.11a1.34,1.34,0,0,0,2,0l4.75-5.19a1.63,1.63,0,0,0,0-2.16l-3.83-5.95a1.86,1.86,0,0,1-.37-.62,25.62,25.62,0,0,0,2.07-4.71,1.61,1.61,0,0,1,1.34-.76l6.57-1.33a1.46,1.46,0,0,0,1.4-1.53ZM614,459.15a9.17,9.17,0,0,1-13.69.06,11.15,11.15,0,0,1-.06-14.86,9.18,9.18,0,0,1,13.7-.06A11.16,11.16,0,0,1,614,459.15Z" transform="translate(-527.4 -229.06)"/><path class="cls-2" d="M748.05,366.44a1,1,0,0,0-1-1l-4.54-.88a1,1,0,0,1-.45-.11A18,18,0,0,0,741,361a1.37,1.37,0,0,1,.32-1.08l2.61-4.13a1.1,1.1,0,0,0,0-1.48l-3.3-3.56a.92.92,0,0,0-1.37,0l-3.79,2.87a1.05,1.05,0,0,1-.39.27,14.61,14.61,0,0,0-3-1.54,1.29,1.29,0,0,1-.48-1l-.85-4.92a1,1,0,0,0-1-1.05H725.1a1,1,0,0,0-1,1.06l-.8,4.93a1.34,1.34,0,0,1-.1.49,14.49,14.49,0,0,0-3.12,1.21,1.1,1.1,0,0,1-1-.34l-3.81-2.84a.92.92,0,0,0-1.37,0l-3.27,3.58a1.12,1.12,0,0,0,0,1.49l2.64,4.1a1.31,1.31,0,0,1,.25.43,16.77,16.77,0,0,0-1.42,3.25,1.14,1.14,0,0,1-.93.52l-4.53.92a1,1,0,0,0-1,1.06l0,5a1,1,0,0,0,1,1.05l4.54.87a1,1,0,0,1,.46.11,18.07,18.07,0,0,0,1.11,3.38,1.34,1.34,0,0,1-.31,1.09L709.89,381a1.12,1.12,0,0,0,0,1.49l3.3,3.55a.92.92,0,0,0,1.37,0l3.78-2.87a1.25,1.25,0,0,1,.39-.27,15,15,0,0,0,3,1.54,1.33,1.33,0,0,1,.49,1l.84,4.92a1,1,0,0,0,1,1.05h4.65a1,1,0,0,0,1-1.06l.81-4.92a1.35,1.35,0,0,1,.1-.5,14.49,14.49,0,0,0,3.12-1.21,1.13,1.13,0,0,1,1,.35l3.8,2.83a.91.91,0,0,0,1.36,0l3.28-3.58a1.13,1.13,0,0,0,0-1.49l-2.64-4.1a1.38,1.38,0,0,1-.25-.42,18.82,18.82,0,0,0,1.42-3.26,1.14,1.14,0,0,1,.93-.52l4.53-.92a1,1,0,0,0,1-1.05Zm-16.42,7.05a6.31,6.31,0,0,1-9.44,0,7.69,7.69,0,0,1,0-10.25,6.31,6.31,0,0,1,9.44,0A7.7,7.7,0,0,1,731.63,373.49Z" transform="translate(-527.4 -229.06)"/><rect class="cls-2" x="88.47" y="136.05" width="12.32" height="119.62"/><rect class="cls-2" x="103.39" y="167.65" width="13.56" height="88.03"/><rect class="cls-2" x="120.81" y="154.12" width="12.32" height="101.56"/><rect class="cls-2" x="135.73" y="195.87" width="13.56" height="59.81"/><rect class="cls-2" x="153.38" y="136.05" width="12.32" height="119.62"/><rect class="cls-2" x="168.3" y="167.65" width="13.56" height="88.03"/><rect class="cls-2" x="185.73" y="154.12" width="12.31" height="101.56"/><rect class="cls-2" x="200.64" y="195.87" width="13.56" height="59.81"/><path class="cls-2" d="M674.27,285.29c-16.92,5-26.92,23.89-22.34,42.25s22,29.21,38.94,24.24,26.92-23.89,22.34-42.25S691.19,280.32,674.27,285.29Zm15,60c-13.63,4-27.67-4.73-31.36-19.52s4.37-30,18-34,27.67,4.74,31.36,19.53S702.88,341.31,689.25,345.31Z" transform="translate(-527.4 -229.06)"/><path class="cls-2" d="M619.63,382.68a3.38,3.38,0,0,1-5-.4h0a4.11,4.11,0,0,1,.37-5.47L658,336.48a3.38,3.38,0,0,1,5,.4h0a4.13,4.13,0,0,1-.37,5.48Z" transform="translate(-527.4 -229.06)"/></svg>