<svg id="Layer_1" data-name="Layer 1" xmlns="http://www.w3.org/2000/svg" viewBox="0 0 311.04 311.04"><defs><style>.cls-1,.cls-2{fill:#fff;stroke-miterlimit:10;stroke-width:2px;}.cls-1{stroke:#fff;}.cls-2{stroke:#004b96;}</style></defs><title>custom strategies</title><circle class="cls-1" cx="155.52" cy="155.52" r="154.52"/><path class="cls-2" d="M785.35,424.47l-.78,0-2.29,0-8.81,0-32.41.1-106.92.1-46.1,0h-.3v-.3c0-30.77.08-57.23.11-76,0-9.37.07-16.83.09-22,0-2.54,0-4.5,0-5.86,0-.65,0-1.15,0-1.51s0-.51,0-.51,0,.17,0,.51,0,.86,0,1.51c0,1.36,0,3.32,0,5.86,0,5.14,0,12.6.09,22,0,18.8.07,45.26.11,76l-.29-.3h46.1l106.92.09,32.41.1,8.81.06,2.29,0C785.09,424.45,785.35,424.47,785.35,424.47Z" transform="translate(-523.2 -232.89)"/><rect class="cls-2" x="80.87" y="165.42" width="19.93" height="20.08"/><rect class="cls-2" x="110.09" y="151.07" width="19.93" height="34.43"/><rect class="cls-2" x="139.43" y="134.76" width="19.93" height="50.74"/><rect class="cls-2" x="167.87" y="116.61" width="19.93" height="68.89"/><rect class="cls-2" x="196.97" y="93.37" width="19.93" height="92.13"/><rect class="cls-2" x="225.86" y="75.65" width="19.93" height="108.9"/><path class="cls-2" d="M604.07,377.73a1.23,1.23,0,0,1,.26-.2l.77-.54,3-2.05,11.42-7.58,39.55-26,.46-.3v.55c0,2.84,0,5.89,0,9l-.47-.26,15.58-10.53,55-37,16.71-11.16,4.56-3,1.19-.77a2.18,2.18,0,0,1,.42-.24,3.58,3.58,0,0,1-.38.29l-1.17.83-4.49,3.1-16.6,11.32L675,340.29l-15.59,10.52-.48.32v-.57c0-3.1,0-6.15,0-9l.46.25-39.68,25.85-11.51,7.44-3.09,2-.81.49Z" transform="translate(-523.2 -232.89)"/><path class="cls-2" d="M752.58,296.07a10.08,10.08,0,0,1-.21-2.47c-.06-1.54-.09-3.67-.1-6.07l.31.31h-.76c-2.56,0-4.87,0-6.54-.09a11.17,11.17,0,0,1-2.71-.22,11.84,11.84,0,0,1,2.71-.22c1.67-.06,4-.09,6.54-.09h1.07v.31c0,2.4,0,4.53-.1,6.07A10.73,10.73,0,0,1,752.58,296.07Z" transform="translate(-523.2 -232.89)"/><path class="cls-2" d="M647.25,440.66c0,.18-6.16.32-13.76.32s-13.76-.14-13.76-.32,6.16-.31,13.76-.31S647.25,440.49,647.25,440.66Z" transform="translate(-523.2 -232.89)"/><path class="cls-2" d="M633.12,450.15a17.14,17.14,0,0,1,0-6.49,17.14,17.14,0,0,1,0,6.49Z" transform="translate(-523.2 -232.89)"/><path class="cls-2" d="M666.84,453.4c0,.17-16.54.31-36.94.31S593,453.57,593,453.4s16.53-.31,36.94-.31S666.84,453.23,666.84,453.4Z" transform="translate(-523.2 -232.89)"/><path class="cls-2" d="M593.45,462.64c-.17,0-.31-2-.31-4.49s.14-4.5.31-4.5.31,2,.31,4.5S593.63,462.64,593.45,462.64Z" transform="translate(-523.2 -232.89)"/><path class="cls-2" d="M619.73,461.64c-.17,0-.31-1.73-.31-3.87s.14-3.87.31-3.87.31,1.73.31,3.87S619.9,461.64,619.73,461.64Z" transform="translate(-523.2 -232.89)"/><path class="cls-2" d="M646.76,462.14c-.18,0-.31-1.9-.31-4.24s.13-4.25.31-4.25.31,1.9.31,4.25S646.93,462.14,646.76,462.14Z" transform="translate(-523.2 -232.89)"/><path class="cls-2" d="M667.33,462.14c-.17,0-.31-1.95-.31-4.37s.14-4.37.31-4.37.31,2,.31,4.37S667.5,462.14,667.33,462.14Z" transform="translate(-523.2 -232.89)"/><path class="cls-2" d="M602.63,465.14c0,.17-4,.31-8.93.31s-8.92-.14-8.92-.31,4-.31,8.92-.31S602.63,465,602.63,465.14Z" transform="translate(-523.2 -232.89)"/><path class="cls-2" d="M625.44,465.14c0,.17-3.06.31-6.82.31s-6.82-.14-6.82-.31,3.05-.31,6.82-.31S625.44,465,625.44,465.14Z" transform="translate(-523.2 -232.89)"/><path class="cls-2" d="M654.44,465.89c0,.17-3.27.31-7.31.31s-7.32-.14-7.32-.31,3.28-.32,7.32-.32S654.44,465.72,654.44,465.89Z" transform="translate(-523.2 -232.89)"/><path class="cls-2" d="M678,464.64c0,.17-3.49.31-7.81.31s-7.81-.14-7.81-.31,3.5-.31,7.81-.31S678,464.47,678,464.64Z" transform="translate(-523.2 -232.89)"/><path class="cls-2" d="M593.7,473.88a11.23,11.23,0,0,1,0-5.24,11.23,11.23,0,0,1,0,5.24Z" transform="translate(-523.2 -232.89)"/><path class="cls-2" d="M610.67,473.88c0,.17-7.21.31-16.11.31s-16.12-.14-16.12-.31,7.22-.31,16.12-.31S610.67,473.71,610.67,473.88Z" transform="translate(-523.2 -232.89)"/><path class="cls-2" d="M610.67,481.37c-.17,0-.31-1.68-.31-3.74s.14-3.75.31-3.75.31,1.68.31,3.75S610.84,481.37,610.67,481.37Z" transform="translate(-523.2 -232.89)"/><path class="cls-2" d="M578.44,481.87c-.17,0-.31-1.79-.31-4s.14-4,.31-4,.31,1.79.31,4S578.61,481.87,578.44,481.87Z" transform="translate(-523.2 -232.89)"/><path class="cls-2" d="M647.42,473.88c-.18,0-.31-1.17-.31-2.62s.13-2.62.31-2.62a11.23,11.23,0,0,1,0,5.24Z" transform="translate(-523.2 -232.89)"/><path class="cls-2" d="M686.59,473.88c0,.17-12.18.31-27.21.31s-27.22-.14-27.22-.31,12.18-.31,27.22-.31S686.59,473.71,686.59,473.88Z" transform="translate(-523.2 -232.89)"/><path class="cls-2" d="M664.39,481.37c-.18,0-.32-1.68-.32-3.74s.14-3.75.32-3.75.31,1.68.31,3.75S664.56,481.37,664.39,481.37Z" transform="translate(-523.2 -232.89)"/><path class="cls-2" d="M687.71,481.37c-.18,0-.31-1.68-.31-3.74s.13-3.75.31-3.75.31,1.68.31,3.75S687.88,481.37,687.71,481.37Z" transform="translate(-523.2 -232.89)"/><path class="cls-2" d="M632.16,481.87c-.18,0-.31-1.79-.31-4s.13-4,.31-4,.31,1.79.31,4S632.33,481.87,632.16,481.87Z" transform="translate(-523.2 -232.89)"/><path class="cls-2" d="M584.79,486.48c0,.17-2.84.31-6.35.31s-6.35-.14-6.35-.31,2.84-.32,6.35-.32S584.79,486.3,584.79,486.48Z" transform="translate(-523.2 -232.89)"/><path class="cls-2" d="M616.36,485.56c0,.17-3.08.31-6.87.31s-6.86-.14-6.86-.31,3.07-.31,6.86-.31S616.36,485.39,616.36,485.56Z" transform="translate(-523.2 -232.89)"/><path class="cls-2" d="M639.17,485.56c0,.17-2.71.31-6,.31s-6-.14-6-.31,2.7-.31,6-.31S639.17,485.39,639.17,485.56Z" transform="translate(-523.2 -232.89)"/><path class="cls-2" d="M669.91,485.56c0,.17-2.94.31-6.56.31s-6.56-.14-6.56-.31,2.94-.31,6.56-.31S669.91,485.39,669.91,485.56Z" transform="translate(-523.2 -232.89)"/><path class="cls-2" d="M694.5,484.73c0,.18-3,.32-6.66.32s-6.66-.14-6.66-.32,3-.31,6.66-.31S694.5,484.56,694.5,484.73Z" transform="translate(-523.2 -232.89)"/><path class="cls-2" d="M785.18,489.6H701V437.11h84.17Zm-84.11-.06h84V437.17h-84Z" transform="translate(-523.2 -232.89)"/><path class="cls-2" d="M777.51,482.46c0,.06-16,.11-35.61.11s-35.61-.05-35.61-.11,15.94-.1,35.61-.1S777.51,482.4,777.51,482.46Z" transform="translate(-523.2 -232.89)"/><path class="cls-2" d="M777.51,470.32c0,.06-16,.11-35.61.11s-35.61-.05-35.61-.11,15.94-.11,35.61-.11S777.51,470.26,777.51,470.32Z" transform="translate(-523.2 -232.89)"/><path class="cls-2" d="M777.51,458.18c0,.06-16,.11-35.61.11s-35.61-.05-35.61-.11,15.94-.11,35.61-.11S777.51,458.12,777.51,458.18Z" transform="translate(-523.2 -232.89)"/><path class="cls-2" d="M777.51,446.64c0,.06-16,.11-35.61.11s-35.61-.05-35.61-.11,15.94-.11,35.61-.11S777.51,446.58,777.51,446.64Z" transform="translate(-523.2 -232.89)"/><path class="cls-2" d="M764.84,475.05c-5.83-2.23-12.54,3.93-18.26,1.42-3.33-1.46-4.83-5.25-6.46-8.52s-4.44-6.71-8-6.33-6.59,4.63-10.11,3.6c-2.21-.64-3.32-3.12-3.87-5.37s-1-4.75-2.64-6.34-5.21-1.15-5.47,1.15v27.8h65.77S766.86,475.82,764.84,475.05Z" transform="translate(-523.2 -232.89)"/><path class="cls-2" d="M613.79,323.79s-2.4,22.17.69,34.3l29.41-1.29s-6.3-21.87-2.43-31.56Z" transform="translate(-523.2 -232.89)"/><path class="cls-2" d="M613.91,323.07s.2,23.94,1.41,31.24l29.8-1.42s-2.62-23.53-1.61-29.82Z" transform="translate(-523.2 -232.89)"/><path class="cls-2" d="M639,333.13c0,.11-4.47.47-10,.8s-10,.52-10,.41,4.47-.47,10-.81S639,333,639,333.13Z" transform="translate(-523.2 -232.89)"/><path class="cls-2" d="M639,338.2c0,.11-4.47.47-10,.8s-10,.52-10,.41,4.46-.47,10-.81S639,338.09,639,338.2Z" transform="translate(-523.2 -232.89)"/><path class="cls-2" d="M634,343.17a6.44,6.44,0,0,1-1.66.25c-1,.1-2.45.2-4,.3s-3,.16-4,.19a6.64,6.64,0,0,1-1.67-.05,7.44,7.44,0,0,1,1.66-.24c1-.1,2.45-.2,4-.3s3-.16,4-.19A7.83,7.83,0,0,1,634,343.17Z" transform="translate(-523.2 -232.89)"/></svg>