<svg id="Layer_1" data-name="Layer 1" xmlns="http://www.w3.org/2000/svg" viewBox="0 0 311.04 311.04"><defs><style>.cls-1,.cls-2{fill:#fff;}.cls-1{stroke:#fff;}.cls-1,.cls-2,.cls-4,.cls-5{stroke-miterlimit:10;stroke-width:2px;}.cls-2,.cls-4,.cls-5{stroke:#004b96;}.cls-3{isolation:isolate;}.cls-4{fill:none;}.cls-5{fill:#004b96;}</style></defs><title>data analytics</title><circle class="cls-1" cx="155.52" cy="155.52" r="154.52"/><ellipse class="cls-2" cx="149.09" cy="194.36" rx="102.78" ry="62.63"/><g id="box"><polygon class="cls-2" points="162.78 148.92 205.79 172.5 248.79 148.93 205.79 132.33 162.78 148.92"/><polygon class="cls-2" points="205.79 132.33 248.79 148.93 264.72 133.85 221.33 117.14 205.79 132.33"/><polygon class="cls-2" points="144.89 136.62 162.78 148.92 205.79 132.33 187.9 120.03 144.89 136.62"/></g><path class="cls-2" d="M745.41,370.25a1.17,1.17,0,0,0-1.14-1.2l-5.31-1a1.38,1.38,0,0,1-.54-.12,20.15,20.15,0,0,0-1.3-3.86,1.45,1.45,0,0,1,.37-1.24l3-4.7a1.23,1.23,0,0,0,0-1.69l-3.86-4.05a1.09,1.09,0,0,0-1.6,0l-4.43,3.26a1.32,1.32,0,0,1-.46.32,17.47,17.47,0,0,0-3.51-1.76,1.45,1.45,0,0,1-.56-1.15l-1-5.6a1.16,1.16,0,0,0-1.14-1.19h-5.44a1.16,1.16,0,0,0-1.13,1.2l-.94,5.61a1.39,1.39,0,0,1-.12.57,17.51,17.51,0,0,0-3.65,1.37,1.33,1.33,0,0,1-1.18-.39l-4.45-3.22a1.08,1.08,0,0,0-1.6,0l-3.83,4.08a1.25,1.25,0,0,0,0,1.7l3.08,4.66a1.47,1.47,0,0,1,.3.49,19.76,19.76,0,0,0-1.66,3.7,1.34,1.34,0,0,1-1.09.6L697,367.73a1.16,1.16,0,0,0-1.13,1.2l0,5.74a1.18,1.18,0,0,0,1.14,1.2l5.32,1a1.33,1.33,0,0,1,.53.12,20,20,0,0,0,1.31,3.86,1.5,1.5,0,0,1-.37,1.23l-3.06,4.7a1.26,1.26,0,0,0,0,1.7l3.86,4a1.1,1.1,0,0,0,1.61,0l4.42-3.26a1.38,1.38,0,0,1,.46-.31,17.42,17.42,0,0,0,3.51,1.75,1.48,1.48,0,0,1,.56,1.15l1,5.6a1.17,1.17,0,0,0,1.14,1.2h5.44a1.17,1.17,0,0,0,1.13-1.21l.94-5.61a1.48,1.48,0,0,1,.12-.56,17.84,17.84,0,0,0,3.66-1.38,1.34,1.34,0,0,1,1.17.39l4.45,3.23a1.09,1.09,0,0,0,1.6,0l3.84-4.08a1.25,1.25,0,0,0,0-1.69L736.54,383a1.61,1.61,0,0,1-.3-.48,20.88,20.88,0,0,0,1.67-3.71,1.34,1.34,0,0,1,1.09-.6l5.3-1a1.16,1.16,0,0,0,1.13-1.2Zm-19.22,8a7.56,7.56,0,0,1-11.06.05,8.6,8.6,0,0,1,0-11.67,7.54,7.54,0,0,1,11.06,0A8.59,8.59,0,0,1,726.19,378.27Z" transform="translate(-530.32 -226.3)"/><path class="cls-2" d="M779.15,359.9a.81.81,0,0,0-.8-.84l-3.74-.7a.92.92,0,0,1-.37-.09,14.43,14.43,0,0,0-.92-2.71,1.06,1.06,0,0,1,.26-.87l2.15-3.3a.88.88,0,0,0,0-1.19L773,347.35a.77.77,0,0,0-1.13,0l-3.11,2.29a.87.87,0,0,1-.32.22,13,13,0,0,0-2.47-1.24,1,1,0,0,1-.4-.8l-.69-3.94a.82.82,0,0,0-.8-.84h-3.83a.82.82,0,0,0-.8.84l-.65,3.95a1.11,1.11,0,0,1-.09.4,11.75,11.75,0,0,0-2.57,1,.92.92,0,0,1-.82-.27l-3.13-2.27a.76.76,0,0,0-1.13,0l-2.69,2.86a.87.87,0,0,0,0,1.19l2.17,3.29a.75.75,0,0,1,.21.34,14.08,14.08,0,0,0-1.17,2.6.93.93,0,0,1-.76.42l-3.74.73a.82.82,0,0,0-.79.85v4a.84.84,0,0,0,.81.85l3.73.69a1,1,0,0,1,.38.09,13.74,13.74,0,0,0,.92,2.71,1.09,1.09,0,0,1-.26.87l-2.15,3.31a.88.88,0,0,0,0,1.19l2.72,2.84a.77.77,0,0,0,1.13,0l3.11-2.3A.87.87,0,0,1,755,373a13,13,0,0,0,2.47,1.24,1,1,0,0,1,.4.8l.69,3.95a.81.81,0,0,0,.8.83h3.82a.83.83,0,0,0,.8-.85l.66-3.94a1.3,1.3,0,0,1,.09-.4,12.54,12.54,0,0,0,2.57-1,.92.92,0,0,1,.82.28l3.13,2.26a.77.77,0,0,0,1.13,0l2.69-2.86a.89.89,0,0,0,0-1.2l-2.18-3.28a1,1,0,0,1-.2-.34,14.17,14.17,0,0,0,1.17-2.61.93.93,0,0,1,.76-.42l3.73-.73a.82.82,0,0,0,.8-.85Zm-13.51,5.64a5.31,5.31,0,0,1-7.78,0,6,6,0,0,1,0-8.21,5.31,5.31,0,0,1,7.78,0A6.05,6.05,0,0,1,765.64,365.54Z" transform="translate(-530.32 -226.3)"/><polygon class="cls-2" points="205.75 220.18 248.92 198.48 248.92 149.95 205.79 170.58 205.75 220.18"/><polygon class="cls-2" points="162.88 198.48 205.75 220.18 205.79 170.58 162.88 150.68 162.88 198.48"/><polyline class="cls-2" points="205.76 215.7 205.75 220.18 162.88 198.48 162.88 194"/><polygon class="cls-2" points="150.11 169.83 193.29 191.84 205.79 170.58 162.88 149.32 150.11 169.83"/><polygon class="cls-2" points="205.79 170.58 218.17 192.74 261.69 169.83 248.92 149.32 205.79 170.58"/><path class="cls-2" d="M685.45,297.28l-12.58-7.72a10,10,0,0,1,6.86-1.41,6.31,6.31,0,0,1,2,.8l12.59,7.72a6.4,6.4,0,0,0-2-.8,10,10,0,0,0-6.87,1.41Z" transform="translate(-530.32 -226.3)"/><g class="cls-3"><path class="cls-2" d="M644.84,315.8l-8.7-5.38a55.61,55.61,0,0,1,7.43-15.18c.18-.26,5.91-6.9,6.1-7.15l8.65,4.56c-.19.26-5.87,7.71-6.05,8a55.47,55.47,0,0,0-7.43,15.18Z" transform="translate(-530.32 -226.3)"/><path class="cls-2" d="M658.92,292.92l-8.7-5.38a34.84,34.84,0,0,1,5.37-4.09c5.38-3.28,10.31-3.88,14.09-2.2a11.07,11.07,0,0,1,1.18.62l8.7,5.38a11.07,11.07,0,0,0-1.18-.62c-3.78-1.68-8.71-1.08-14.1,2.2a34.77,34.77,0,0,0-5.36,4.09Z" transform="translate(-530.32 -226.3)"/></g><path class="cls-2" d="M624.85,363l-8.7-5.38a6,6,0,0,1-2.29-2.73,11.24,11.24,0,0,1-.86-4.58,22.33,22.33,0,0,1,1.82-8.45c.84-2,7.65-9.84,8.91-11.58l9.73,5.7c-1.26,1.74-9.11,9.25-9.94,11.26a22.33,22.33,0,0,0-1.82,8.45,11.27,11.27,0,0,0,.86,4.58,5.89,5.89,0,0,0,2.29,2.73Z" transform="translate(-530.32 -226.3)"/><path class="cls-2" d="M692.32,295.87a10,10,0,0,0-6.87,1.41c-.91-5.38-3.47-9-7.07-10.65-3.78-1.68-8.71-1.08-14.1,2.2a41.58,41.58,0,0,0-12,11.79,55.47,55.47,0,0,0-7.43,15.18,9.41,9.41,0,0,0-2.54,1.12,16.15,16.15,0,0,0-3.64,3.11,23.91,23.91,0,0,0-4.11,6.63A19.48,19.48,0,0,0,633,334a12.81,12.81,0,0,0,.11,1.68l-.62.36a18.66,18.66,0,0,0-4.2,3.59,27.41,27.41,0,0,0-4.74,7.64,22.33,22.33,0,0,0-1.82,8.45,11.27,11.27,0,0,0,.86,4.58,5.53,5.53,0,0,0,3.93,3.38,8.47,8.47,0,0,0,6-1.44l52.34-31.9a23.43,23.43,0,0,0,5.24-4.48,34.34,34.34,0,0,0,5.91-9.52,28,28,0,0,0,2.27-10.54,14.15,14.15,0,0,0-1.07-5.71A6.89,6.89,0,0,0,692.32,295.87Z" transform="translate(-530.32 -226.3)"/><path class="cls-2" d="M679.87,308.55l-8.1,14.8A6.63,6.63,0,0,1,669.3,326a2.3,2.3,0,0,1-2.48.36l-8.1-4.93c-1.27-.78-1.27-3.3,0-5.63s3.34-3.59,4.62-2.81l2.06,1.26V301.54a9.19,9.19,0,0,1,3.9-7.11c2.15-1.31,3.89-.25,3.89,2.37v12.71l2.06-3.77c1.28-2.33,3.34-3.59,4.62-2.82S681.14,306.22,679.87,308.55Z" transform="translate(-530.32 -226.3)"/><path class="cls-2" d="M661,341.74l16.57-10.1a8.92,8.92,0,0,0,3.77-6.89c0-2.53-1.69-3.56-3.77-2.29L661,332.55a8.91,8.91,0,0,0-3.76,6.89C657.25,342,658.93,343,661,341.74ZM677.58,323c1.85-1.12,3.35-.21,3.35,2.05a7.9,7.9,0,0,1-3.35,6.12L661,341.23c-1.85,1.13-3.35.21-3.35-2a7.93,7.93,0,0,1,3.35-6.13Z" transform="translate(-530.32 -226.3)"/><path class="cls-2" d="M632.38,336l-8.65-5.7a5.42,5.42,0,0,1,0-1.14c0-2.35,1.12-5.45,2.12-7.88.72-1.74,8.69-10.38,10.85-11.52l7.56,5.71c-1.09,1.51-7.56,4.56-9.71,11.19A24.53,24.53,0,0,0,633,334a12.81,12.81,0,0,0,.11,1.68Z" transform="translate(-530.32 -226.3)"/><polygon class="cls-2" points="115.56 138.35 62.8 138.35 62.8 203.82 99.96 203.82 115.56 187.81 115.56 138.35"/><polygon class="cls-2" points="113.4 187.85 100.43 201.54 99.96 187.81 113.4 187.85"/><g id="_16" data-name="16"><path class="cls-2" d="M651.28,416v51.49c0,3.32,2.18,6,4.86,6h28.39c2.68,0,4.86-2.71,4.86-6V416c0-3.32-2.19-6-4.86-6H656.15C653.47,409.91,651.28,412.63,651.28,416Z" transform="translate(-530.32 -226.3)"/><polygon class="cls-2" points="126.14 190.61 125.54 190.61 125.54 234.29 154.5 234.29 154.5 234.04 154.5 233.97 154.5 190.61 126.14 190.61"/><path class="cls-2" d="M670.26,465.64a2.83,2.83,0,1,1-2.69,2.83A2.76,2.76,0,0,1,670.26,465.64Z" transform="translate(-530.32 -226.3)"/></g><line class="cls-2" x1="72.63" y1="152.42" x2="103.13" y2="152.42"/><line class="cls-2" x1="72.87" y1="164.47" x2="96.65" y2="164.47"/><line class="cls-2" x1="72.87" y1="178.16" x2="103.13" y2="178.16"/><line class="cls-2" x1="72.87" y1="186.14" x2="80.44" y2="186.14"/><line class="cls-2" x1="129.08" y1="199.83" x2="149.61" y2="199.83"/><line class="cls-2" x1="129.08" y1="210.1" x2="137.72" y2="210.1"/><line class="cls-2" x1="129.08" y1="223.79" x2="143.13" y2="223.79"/><polyline class="cls-4" points="58.28 198.12 58.28 215.23 104.76 215.23"/><polygon class="cls-5" points="100.43 209.53 109.08 215.23 100.43 220.94 100.43 209.53"/></svg>