<svg xmlns="http://www.w3.org/2000/svg" xmlns:xlink="http://www.w3.org/1999/xlink" viewBox="0 0 216.26 232.68"><defs><style>.cls-1{isolation:isolate;}.cls-2{fill:#3687df;}.cls-3,.cls-9{fill:#8ebef2;}.cls-4{fill:#004080;}.cls-5{opacity:0.2;}.cls-6{fill:#3459b7;}.cls-7{fill:#002d5a;}.cls-8{fill:#e9f0ff;}.cls-34,.cls-43,.cls-9{mix-blend-mode:multiply;}.cls-10{fill:url(#linear-gradient);}.cls-11{fill:#13a2b6;}.cls-12{fill:#107d8c;}.cls-13{fill:#0077ba;opacity:0.7;}.cls-14{fill:#1372d0;}.cls-15{fill:#0052a4;}.cls-16{fill:url(#linear-gradient-2);}.cls-17{fill:url(#radial-gradient);}.cls-18{fill:url(#radial-gradient-2);}.cls-19{fill:url(#linear-gradient-3);}.cls-20{fill:url(#radial-gradient-3);}.cls-21{fill:url(#linear-gradient-4);}.cls-22{fill:url(#linear-gradient-5);}.cls-23{fill:url(#radial-gradient-4);}.cls-24{fill:url(#linear-gradient-6);}.cls-25{fill:url(#radial-gradient-5);}.cls-26{fill:url(#linear-gradient-7);}.cls-27{fill:url(#radial-gradient-6);}.cls-28{fill:url(#linear-gradient-8);}.cls-29{fill:url(#radial-gradient-7);}.cls-30{fill:url(#radial-gradient-8);}.cls-31{fill:url(#linear-gradient-9);}.cls-32{fill:url(#linear-gradient-10);}.cls-33{fill:url(#radial-gradient-9);}.cls-34{fill:url(#linear-gradient-11);}.cls-35{fill:url(#radial-gradient-10);}.cls-36{fill:url(#linear-gradient-12);}.cls-37{fill:url(#radial-gradient-11);}.cls-38{fill:url(#radial-gradient-12);}.cls-39{fill:url(#linear-gradient-13);}.cls-40{fill:url(#radial-gradient-13);}.cls-41{fill:url(#radial-gradient-14);}.cls-42{fill:url(#linear-gradient-14);}.cls-43{fill:url(#linear-gradient-15);}</style><linearGradient id="linear-gradient" x1="561.08" y1="1165.53" x2="560.76" y2="1236.04" gradientUnits="userSpaceOnUse"><stop offset="0.01" stop-color="#2af6ff"/><stop offset="1" stop-color="#62c1c5"/></linearGradient><linearGradient id="linear-gradient-2" x1="419.25" y1="1578.05" x2="405.86" y2="1583.07" gradientTransform="translate(223.47 -333.4) rotate(3.61)" gradientUnits="userSpaceOnUse"><stop offset="0" stop-color="#fff"/><stop offset="0.06" stop-color="#f5f7fb"/><stop offset="0.15" stop-color="#dae0f2"/><stop offset="0.27" stop-color="#adbce2"/><stop offset="0.42" stop-color="#718bcc"/><stop offset="0.54" stop-color="#3459b7"/></linearGradient><radialGradient id="radial-gradient" cx="7401.28" cy="1225.72" r="3.04" gradientTransform="matrix(-1, 0, 0, 1, 7520.14, -1100.98)" gradientUnits="userSpaceOnUse"><stop offset="0.02" stop-color="#364f87"/><stop offset="0.13" stop-color="#324781"/><stop offset="1" stop-color="#12054e"/><stop offset="1" stop-color="#10054d"/></radialGradient><radialGradient id="radial-gradient-2" cx="7406.35" cy="1261.49" r="2.53" gradientTransform="matrix(-1, 0, 0, 1, 7940.13, 0)" xlink:href="#radial-gradient"/><linearGradient id="linear-gradient-3" x1="537.94" y1="1251.34" x2="528.99" y2="1251.26" gradientTransform="matrix(1, 0, 0, 1, 0, 0)" xlink:href="#linear-gradient-2"/><radialGradient id="radial-gradient-3" cx="7405.94" cy="1241.13" r="3.04" xlink:href="#radial-gradient"/><linearGradient id="linear-gradient-4" x1="542.39" y1="1234.97" x2="532.14" y2="1231.97" gradientTransform="matrix(1, 0, 0, 1, 0, 0)" xlink:href="#linear-gradient-2"/><linearGradient id="linear-gradient-5" x1="563.2" y1="1322.44" x2="561.53" y2="1333.26" gradientUnits="userSpaceOnUse"><stop offset="0" stop-color="#fff"/><stop offset="0.06" stop-color="#f5f7fc"/><stop offset="0.16" stop-color="#dbe2f5"/><stop offset="0.28" stop-color="#b1bfea"/><stop offset="0.43" stop-color="#778fda"/><stop offset="0.51" stop-color="#5472d1"/></linearGradient><radialGradient id="radial-gradient-4" cx="7383.4" cy="1324.04" r="3.04" xlink:href="#radial-gradient"/><linearGradient id="linear-gradient-6" x1="548.04" y1="1315.45" x2="550.43" y2="1327.22" xlink:href="#linear-gradient-5"/><radialGradient id="radial-gradient-5" cx="7393.21" cy="1317.82" r="3.04" xlink:href="#radial-gradient"/><linearGradient id="linear-gradient-7" x1="553.71" y1="1303.69" x2="542.75" y2="1302.34" xlink:href="#linear-gradient-5"/><radialGradient id="radial-gradient-6" cx="7389.89" cy="1288.86" r="4.4" gradientTransform="matrix(-1, 0, 0, 1, 7940.13, 0)" gradientUnits="userSpaceOnUse"><stop offset="0.02" stop-color="#364f87"/><stop offset="0.43" stop-color="#1b2b69"/><stop offset="1" stop-color="#12054e"/><stop offset="1" stop-color="#10054d"/></radialGradient><linearGradient id="linear-gradient-8" x1="559.16" y1="1268.39" x2="543.05" y2="1270.05" xlink:href="#linear-gradient-5"/><radialGradient id="radial-gradient-7" cx="597.25" cy="1206.22" r="11.45" gradientUnits="userSpaceOnUse"><stop offset="0.01" stop-color="#fff"/><stop offset="0.08" stop-color="#dae0f5"/><stop offset="0.21" stop-color="#a1b1e6"/><stop offset="0.32" stop-color="#778fda"/><stop offset="0.4" stop-color="#5d7ad4"/><stop offset="0.45" stop-color="#5472d1"/></radialGradient><radialGradient id="radial-gradient-8" cx="7341.45" cy="1216.38" r="2.53" xlink:href="#radial-gradient-6"/><linearGradient id="linear-gradient-9" x1="586.54" y1="1223.64" x2="594.05" y2="1230.62" gradientTransform="matrix(1, 0, 0, 1, 0, 0)" xlink:href="#linear-gradient-2"/><linearGradient id="linear-gradient-10" x1="563.39" y1="1248.65" x2="542.98" y2="1250.01" gradientTransform="matrix(1, 0, 0, 1, 0, 0)" xlink:href="#radial-gradient-6"/><radialGradient id="radial-gradient-9" cx="566.79" cy="1220.83" r="32.72" gradientUnits="userSpaceOnUse"><stop offset="0.01" stop-color="#fff"/><stop offset="0.18" stop-color="#bbc7e7"/><stop offset="0.34" stop-color="#8198d2"/><stop offset="0.47" stop-color="#5776c3"/><stop offset="0.58" stop-color="#3d61ba"/><stop offset="0.64" stop-color="#3459b7"/></radialGradient><linearGradient id="linear-gradient-11" x1="558.85" y1="1246.92" x2="563.56" y2="1234.68" gradientUnits="userSpaceOnUse"><stop offset="0" stop-color="#fff"/><stop offset="1" stop-color="#b086cc"/></linearGradient><radialGradient id="radial-gradient-10" cx="565.53" cy="1236.23" r="4.09" gradientTransform="matrix(1, 0, 0, 1, 0, 0)" xlink:href="#radial-gradient-6"/><linearGradient id="linear-gradient-12" x1="564.25" y1="1310.51" x2="554.84" y2="1308.59" xlink:href="#linear-gradient-5"/><radialGradient id="radial-gradient-11" cx="7377.5" cy="1294.94" r="3.87" gradientTransform="matrix(-1, 0, 0, 1, 7940.13, 0)" xlink:href="#radial-gradient"/><radialGradient id="radial-gradient-12" cx="7361.12" cy="1235.22" r="3.04" xlink:href="#radial-gradient"/><linearGradient id="linear-gradient-13" x1="571.27" y1="1230.34" x2="572" y2="1241.64" gradientUnits="userSpaceOnUse"><stop offset="0" stop-color="#fff"/><stop offset="0.06" stop-color="#f5f7fc"/><stop offset="0.17" stop-color="#dbe2f2"/><stop offset="0.3" stop-color="#b1bfe3"/><stop offset="0.45" stop-color="#768fce"/><stop offset="0.61" stop-color="#3459b7"/></linearGradient><radialGradient id="radial-gradient-13" cx="560.93" cy="1206.89" r="16.14" gradientTransform="matrix(1, 0, 0, 1, 0, 0)" xlink:href="#radial-gradient"/><radialGradient id="radial-gradient-14" cx="560.12" cy="1202.91" r="15.76" gradientUnits="userSpaceOnUse"><stop offset="0.01" stop-color="#fff"/><stop offset="0.17" stop-color="#bbc7e7"/><stop offset="0.32" stop-color="#8198d2"/><stop offset="0.44" stop-color="#5776c3"/><stop offset="0.54" stop-color="#3d61ba"/><stop offset="0.6" stop-color="#3459b7"/></radialGradient><linearGradient id="linear-gradient-14" x1="569.9" y1="1273.71" x2="553.9" y2="1276.28" xlink:href="#linear-gradient-5"/><linearGradient id="linear-gradient-15" x1="553.54" y1="1203.4" x2="553.82" y2="1216.51" xlink:href="#linear-gradient-11"/></defs><title>lol1</title><g class="cls-1"><g id="Layer_1" data-name="Layer 1"><polygon class="cls-2" points="123.23 92.82 116.7 96.09 116.7 139.9 123.23 136.63 123.23 92.82"/><polygon class="cls-3" points="132.66 45.42 126.13 48.69 126.13 92.5 132.66 89.23 132.66 45.42"/><path class="cls-2" d="M539.46,1239.8v-54.6a.86.86,0,0,1,.46-.7c.26-.13.47,0,.47.23v58.8a.88.88,0,0,1-.47.7c-.26.13-.46,0-.46-.23v-4.2Z" transform="translate(-419.99 -1100.98)"/><path class="cls-3" d="M548.78,1191.67v-54.6a.9.9,0,0,1,.46-.7c.26-.13.47,0,.47.24v58.79a.86.86,0,0,1-.47.7c-.25.13-.46,0-.46-.23v-4.2Z" transform="translate(-419.99 -1100.98)"/><polygon class="cls-2" points="141.94 18.59 135.41 21.86 135.41 78.57 141.94 75.31 141.94 18.59"/><path class="cls-2" d="M558.2,1182V1116.2a1.07,1.07,0,0,1,.47-.84c.26-.16.47,0,.47.28v70.9a1.07,1.07,0,0,1-.47.84c-.26.16-.47,0-.47-.28V1182Z" transform="translate(-419.99 -1100.98)"/><polygon class="cls-4" points="113.93 84.53 107.4 87.8 107.4 117.92 113.93 114.66 113.93 84.53"/><path class="cls-4" d="M530.19,1230.27v-49.12a.81.81,0,0,1,.46-.63c.26-.11.47,0,.47.21v52.9a.77.77,0,0,1-.47.62c-.25.12-.46,0-.46-.21v-3.77Z" transform="translate(-419.99 -1100.98)"/><polygon class="cls-3" points="103.05 76.09 96.52 79.35 96.52 117.11 103.05 113.84 103.05 76.09"/><path class="cls-3" d="M519.31,1218v-46a.75.75,0,0,1,.47-.59c.26-.11.47,0,.47.19v49.53a.75.75,0,0,1-.47.59c-.26.11-.47,0-.47-.19V1218Z" transform="translate(-419.99 -1100.98)"/><polygon class="cls-2" points="93.63 84.76 87.1 88.02 87.1 131.83 93.63 128.56 93.63 84.76"/><path class="cls-2" d="M509.89,1232.15V1183a.79.79,0,0,1,.46-.63c.26-.12.47,0,.47.21v52.89a.8.8,0,0,1-.47.63c-.25.12-.46,0-.46-.21v-3.78Z" transform="translate(-419.99 -1100.98)"/><polygon class="cls-4" points="151.63 56.14 145.1 59.41 145.1 97.16 151.63 93.9 151.63 56.14"/><path class="cls-4" d="M567.89,1198.07v-46a.75.75,0,0,1,.47-.59c.25-.11.46,0,.46.2v49.53a.77.77,0,0,1-.46.59c-.26.1-.47,0-.47-.2v-3.54Z" transform="translate(-419.99 -1100.98)"/><polygon class="cls-3" points="84.09 43.23 77.56 46.5 77.56 103.22 84.09 99.95 84.09 43.23"/><path class="cls-3" d="M500.35,1206.68v-65.83a1.1,1.1,0,0,1,.47-.85c.26-.15.47,0,.47.28v70.9a1.1,1.1,0,0,1-.47.85c-.26.15-.47,0-.47-.28v-5.07Z" transform="translate(-419.99 -1100.98)"/><polygon class="cls-2" points="74.57 64.99 68.04 68.62 68.14 92.45 74.67 89.19 74.57 64.99"/><path class="cls-2" d="M491,1207.39v-43a.71.71,0,0,1,.47-.55c.26-.1.47,0,.47.18v46.31a.71.71,0,0,1-.47.55c-.26.1-.47,0-.47-.18v-3.31Z" transform="translate(-419.99 -1100.98)"/><polygon class="cls-3" points="160.66 31.35 154.12 34.62 154.12 78.42 160.66 75.16 160.66 31.35"/><path class="cls-3" d="M576.78,1178.05V1129a.79.79,0,0,1,.46-.63c.26-.12.47,0,.47.21v52.88a.8.8,0,0,1-.47.63c-.26.11-.46,0-.46-.21v-3.78Z" transform="translate(-419.99 -1100.98)"/><polygon class="cls-4" points="170.4 39.11 163.87 42.74 163.97 66.58 170.5 63.31 170.4 39.11"/><path class="cls-4" d="M586.81,1173.26V1138.4c0-.16.2-.36.46-.44s.47,0,.47.14v37.54c0,.17-.21.37-.47.45s-.46,0-.46-.15v-2.68Z" transform="translate(-419.99 -1100.98)"/><polygon class="cls-2" points="179.88 36.73 173.34 39.63 173.17 98.1 179.69 95.52 179.88 36.73"/><path class="cls-2" d="M596.14,1197.68v-64.14a1,1,0,0,1,.46-.82c.26-.15.47,0,.47.27v69.07a1,1,0,0,1-.47.82c-.26.16-.46,0-.46-.27v-4.93Z" transform="translate(-419.99 -1100.98)"/><polygon class="cls-4" points="189.1 21.3 182.57 24.57 182.57 81.28 189.1 78.01 189.1 21.3"/><path class="cls-4" d="M605.36,1184.75v-65.84a1.07,1.07,0,0,1,.47-.84c.25-.16.46,0,.46.28v70.9a1.09,1.09,0,0,1-.46.84c-.26.16-.47,0-.47-.28v-5.06Z" transform="translate(-419.99 -1100.98)"/><polygon class="cls-3" points="198.53 39.68 192 42.94 192 86.75 198.53 83.48 198.53 39.68"/><path class="cls-3" d="M614.65,1186.38v-49.1a.78.78,0,0,1,.46-.63c.26-.12.47,0,.47.21v52.87a.79.79,0,0,1-.47.63c-.25.12-.46,0-.46-.21v-3.77Z" transform="translate(-419.99 -1100.98)"/><polygon class="cls-4" points="64.77 23.88 58.24 27.15 58.24 83.86 64.77 80.6 64.77 23.88"/><path class="cls-4" d="M481,1187.33v-65.84a1.07,1.07,0,0,1,.47-.84c.25-.16.46,0,.46.28v70.9a1.09,1.09,0,0,1-.46.84c-.26.16-.47,0-.47-.28v-5.06Z" transform="translate(-419.99 -1100.98)"/><polygon class="cls-2" points="55.34 50.77 48.81 54.04 48.81 97.84 55.34 94.58 55.34 50.77"/><path class="cls-2" d="M471.57,1198.2v-49.12a.8.8,0,0,1,.47-.63c.25-.12.46,0,.46.21v52.89a.79.79,0,0,1-.46.63c-.26.12-.47,0-.47-.21v-3.77Z" transform="translate(-419.99 -1100.98)"/><polygon class="cls-4" points="45.87 84.87 39.34 88.49 39.37 107.72 45.89 104.09 45.87 84.87"/><path class="cls-4" d="M462.27,1209.51V1184c0-.12.21-.26.47-.32s.47,0,.47.11v27.44c0,.12-.21.27-.47.33s-.47,0-.47-.11v-2Z" transform="translate(-419.99 -1100.98)"/><polygon class="cls-3" points="36.12 79.2 29.59 82.47 29.59 126.28 36.12 123.01 36.12 79.2"/><path class="cls-3" d="M452.38,1226.6v-49.12a.8.8,0,0,1,.47-.63c.26-.11.47,0,.47.21V1230a.77.77,0,0,1-.47.62c-.26.12-.47,0-.47-.2v-3.78Z" transform="translate(-419.99 -1100.98)"/><polygon class="cls-3" points="6.53 86.32 0 89.59 0 133.4 6.53 130.13 6.53 86.32"/><path class="cls-3" d="M422.65,1232.57V1178a.88.88,0,0,1,.47-.7c.26-.13.47,0,.47.24v58.79a.88.88,0,0,1-.47.7c-.26.13-.47,0-.47-.23v-4.2Z" transform="translate(-419.99 -1100.98)"/><polygon class="cls-2" points="15.82 59.49 9.29 62.76 9.29 119.47 15.82 116.2 15.82 59.49"/><path class="cls-2" d="M432.08,1222.94V1157.1a1.09,1.09,0,0,1,.46-.84c.26-.16.47,0,.47.28v70.9a1.07,1.07,0,0,1-.47.84c-.25.16-.46,0-.46-.28v-5.06Z" transform="translate(-419.99 -1100.98)"/><polygon class="cls-4" points="25.51 67.04 18.97 70.31 18.97 108.06 25.51 104.8 25.51 67.04"/><path class="cls-4" d="M441.77,1209v-46a.73.73,0,0,1,.46-.59c.26-.11.47,0,.47.19v49.54a.73.73,0,0,1-.47.58c-.26.11-.46,0-.46-.19V1209Z" transform="translate(-419.99 -1100.98)"/><g class="cls-5"><path d="M556.89,1301.47l-49.66-28.84c-3-1.73-2.61-4.74.84-6.74l43.58-16.76c3.45-2,8.68-2.21,11.67-.48l33.37,19.55c3,1.73,2.62,4.74-.84,6.73l-27.29,26C565.1,1303,559.88,1303.2,556.89,1301.47Z" transform="translate(-419.99 -1100.98)"/></g><path class="cls-6" d="M507.23,1272.56a3.49,3.49,0,0,1-2-2.87s0-3.72,0-3.75c0-1.31,1,1,2.85-.12l43.58-16.76c3.45-2,8.68-2.21,11.67-.48l33.37,19.55c1,.58,1.72-1.87,2-1.09.09.26,0,3.69,0,4,0,1.34-.94,2.76-2.86,3.87l-27.29,26.05c-3.46,2-8.68,2.21-11.67.48" transform="translate(-419.99 -1100.98)"/><path class="cls-7" d="M556.89,1297.72l-49.66-28.84c-3-1.73-2.61-4.74.84-6.74l43.58-16.76c3.45-2,8.68-2.21,11.67-.49l33.37,19.56c3,1.72,2.62,4.74-.84,6.73l-27.29,26C565.1,1299.23,559.88,1299.44,556.89,1297.72Z" transform="translate(-419.99 -1100.98)"/><path class="cls-6" d="M621.77,1297.88l-122-70.47c-6.23-3.6-11.29-13.26-11.29-21.57v-93.27c0-8.31,5.06-12.13,11.29-8.53l122,70.46c6.23,3.6,11.29,13.26,11.29,21.57v93.27C633.06,1297.66,628,1301.48,621.77,1297.88Z" transform="translate(-419.99 -1100.98)"/><path class="cls-8" d="M623.22,1291.38,503,1221.92c-5-3.19-8.12-9.56-8.12-16.08V1112a2,2,0,0,1,3-1.73l.35.21L618.59,1180c6,3.45,8.12,9.56,8.12,16.08v93.59a2.15,2.15,0,0,1-3.23,1.87Z" transform="translate(-419.99 -1100.98)"/><path class="cls-9" d="M618.59,1180l-120.36-69.55-.35-.21a2,2,0,0,0-3,1.73v93.88c0,6.52,3.11,12.89,8.12,16.08l120.24,69.46.26.15a2.15,2.15,0,0,0,3.23-1.87v-93.59C626.71,1189.55,624.57,1183.44,618.59,1180Zm6.86,109.67a.9.9,0,0,1-.9.89.88.88,0,0,1-.44-.12l-120.49-69.61c-4.53-2.88-7.49-8.77-7.49-15V1112a.74.74,0,0,1,.74-.74.72.72,0,0,1,.37.11L618,1181.09c6.19,3.57,7.49,10.12,7.49,15Z" transform="translate(-419.99 -1100.98)"/><path class="cls-7" d="M625,1172.8l-122-70.46c-2.47-1.43-4.75-1.69-6.6-1-.24.09-3.39,1.76-3.61,1.88h0c1.93-.93,4.37-.76,7,.78l122,70.46c6.23,3.6,11.29,13.26,11.29,21.57v93.27c0,5.19-2,8.63-5,9.61a2,2,0,0,0,1-.34c.14-.08,3.56-2,3.7-2.11,2.14-1.5,3.47-4.58,3.47-8.86v-93.27C636.25,1186.06,631.2,1176.4,625,1172.8Z" transform="translate(-419.99 -1100.98)"/><path class="cls-10" d="M498.31,1197v15a5.75,5.75,0,0,0,2.87,5l118.73,68.55a2.17,2.17,0,0,0,3.26-1.88v-72l-29.11,8.91-23.55-12.47-18.73,3.2-10.91-16.16-24.64,4.7Z" transform="translate(-419.99 -1100.98)"/><polygon class="cls-4" points="200.41 93.74 188.96 95.11 189.5 96.91 169.1 103.16 146.94 91.42 129.48 94.41 119.19 79.18 95.68 83.66 78.9 81 78.71 82.21 95.7 84.9 118.63 80.53 128.91 95.75 146.74 92.7 168.75 104.35 168.97 104.47 189.85 98.08 190.64 100.76 200.41 93.74"/><path class="cls-11" d="M498.31,1205.67v6.26a5.75,5.75,0,0,0,2.87,5l118.73,68.55a2.17,2.17,0,0,0,3.26-1.88v-22.79L601.9,1235.3l-12.18,6.12-14.46-22-19.84,2.42-10.67-14.08-20.68,3.9Z" transform="translate(-419.99 -1100.98)"/><path class="cls-12" d="M498.31,1211.93h0a5.75,5.75,0,0,0,2.87,5l118.73,68.55a2.17,2.17,0,0,0,3.26-1.88v-6.27l-9-15.21-15.67,3.63-22.4-28.78-22.4-3.42-7.84-11.4-23.51.16Z" transform="translate(-419.99 -1100.98)"/><polygon class="cls-4" points="169.62 77.91 122.2 50.51 122.2 54.37 169.62 81.77 169.62 77.91"/><polygon class="cls-4" points="163.93 82.36 126.9 60.96 126.9 64.82 163.93 86.22 163.93 82.36"/><path class="cls-13" d="M515.9,1155.57l5.34,19.93c-8.11-1.3-17.07-11.27-20-22.28a22.09,22.09,0,0,1-.71-9.65Z" transform="translate(-419.99 -1100.98)"/><path class="cls-4" d="M515.9,1155.57l13.52,16.77c-1.91,2.7-4.58,3.73-8.18,3.16Z" transform="translate(-419.99 -1100.98)"/><path class="cls-14" d="M515.9,1155.57l10-7.94c5.87,9,7.31,19.31,3.48,24.71Z" transform="translate(-419.99 -1100.98)"/><path class="cls-15" d="M515.9,1155.57v-17.93a29.86,29.86,0,0,1,10,10Z" transform="translate(-419.99 -1100.98)"/><path class="cls-7" d="M515.9,1155.57l-15.39-12c1.33-7.89,7.73-10.35,15.39-5.93Z" transform="translate(-419.99 -1100.98)"/><path class="cls-9" d="M569.54,1331.66c-10.41,4.35-15.55.89-23.38-3.63s-8.7-9-2.69-11.78c11.34-5.32,17.81,0,25.63,4.56S575.66,1329.1,569.54,1331.66Z" transform="translate(-419.99 -1100.98)"/><path class="cls-16" d="M533.8,1261.91c-.86.2-1.24.47-1.16,1.32s0,3.9-.07,5.22a15.55,15.55,0,0,0,1.08,4.29,4.56,4.56,0,0,0,.58,1.82c.47.62.83.42,1,.27a1.37,1.37,0,0,0,0-1,14.16,14.16,0,0,1-.16-1.89s.55,2.12.74,2.9.72,1.58,1.23,1.61a.6.6,0,0,0,.66-.65,8.64,8.64,0,0,1-.49-1.67c0-.53,0-1.39,0-1.39a11.87,11.87,0,0,0,.68,2.87c.23.51.73,2.36,1.63,1.91.68-.35-.15-2-.28-2.49a17.06,17.06,0,0,1-.28-5.46c.18-1.14.59-1.6,1.66-.62s2.06,1.6,2.3,1-.76-1.79-1.41-2.56a13.67,13.67,0,0,0-2.55-2.2c-1.58-1-1.6-2.77-2.63-3.3A3.26,3.26,0,0,0,533.8,1261.91Z" transform="translate(-419.99 -1100.98)"/><circle class="cls-17" cx="119.43" cy="124.74" r="2.49"/><path class="cls-18" d="M532.19,1261.49a2.07,2.07,0,1,0,2.07-2.06A2.07,2.07,0,0,0,532.19,1261.49Z" transform="translate(-419.99 -1100.98)"/><path class="cls-19" d="M532.1,1241c-.92.41-1.25,2.13-1,7.43.21,5.13.34,12.33,1,13s3.82.12,4.29-.62.33-4.55.45-8.45c.15-4.43.73-7.13.07-8.48S533.59,1240.35,532.1,1241Z" transform="translate(-419.99 -1100.98)"/><circle class="cls-20" cx="114.77" cy="140.15" r="2.49"/><path class="cls-21" d="M536.54,1224.78c-.89-.16-1.43,2-1.88,4.46s-1.75,9.15-1.79,9.79c0,.88,3.2,2.73,4.22,2.86s2.26-5.57,2.75-7.61c.6-2.49.9-4.43.46-5.27S537.51,1225,536.54,1224.78Z" transform="translate(-419.99 -1100.98)"/><path class="cls-22" d="M555.17,1324.87c-1.13,1-1.63,4.68-.18,6s2.94.09,6.17,0,9.4-1.41,9.58-3.61-2.52-2.38-4.67-2.57-4.16-1.21-5.43-1.31S556.53,1323.65,555.17,1324.87Z" transform="translate(-419.99 -1100.98)"/><circle class="cls-23" cx="137.31" cy="223.06" r="2.49"/><path class="cls-24" d="M545.07,1318.81c-.93.9-2,6.27-.09,7.11s3.88-.56,4.54-1.54a8.34,8.34,0,0,1,2.94-2.57c1.22-.66,2.81-3.28,1.5-4.45s-3.65.24-4.54.24S546.34,1317.6,545.07,1318.81Z" transform="translate(-419.99 -1100.98)"/><circle class="cls-25" cx="127.51" cy="216.84" r="2.49"/><path class="cls-26" d="M547.08,1289.26c-2.67,2.66-3.09,27.07-1.83,28s4.27.81,4.69-.52.83-6.11,1.88-13.3c1.12-7.6,2.31-10.46,1.75-12.63A4,4,0,0,0,547.08,1289.26Z" transform="translate(-419.99 -1100.98)"/><path class="cls-27" d="M547.81,1288.64a3.17,3.17,0,1,0,3.16-3.17A3.17,3.17,0,0,0,547.81,1288.64Z" transform="translate(-419.99 -1100.98)"/><path class="cls-28" d="M547.57,1287.23c.6,3.57,6.56,3.21,7.4.77s.23-21.38.27-26.73c0-4.93-.18-13.16-5.7-12.6s-7.67,4.73-7.25,9.12,3.74,14.26,4.44,19.78S547.34,1285.88,547.57,1287.23Z" transform="translate(-419.99 -1100.98)"/><path class="cls-29" d="M598.2,1214.57a4.24,4.24,0,0,1,0-2.1c.14-1-.63-2.17-.63-3.86s.42-3,.45-3.89.32-1.3,1-.84.39,3.19.84,3.58,2.21-1.51,3.51-3.62,1.79-3.92,2.45-3.92.78.8.28,1.92l-1.29,3a17.11,17.11,0,0,0,1.43-2.31c.31-.68.26-1,.64-1.13s.77,1.06.35,2.35a13.54,13.54,0,0,1-1.06,2.39,7.19,7.19,0,0,0,.88-1.33c.25-.57.21-.64.53-.64s.43,1.37,0,2.1-.67,1.2-.67,1.2.52-1.08.8-1-.42,1.89-.63,2.38a19.14,19.14,0,0,1-2.77,3.89c-1.23,1.26-2.21,3.68-2.94,4S598.44,1215.56,598.2,1214.57Z" transform="translate(-419.99 -1100.98)"/><path class="cls-30" d="M597.09,1216.38a2.07,2.07,0,1,0,2.06-2.07A2.07,2.07,0,0,0,597.09,1216.38Z" transform="translate(-419.99 -1100.98)"/><path class="cls-31" d="M597.52,1215.12c.78-.19,2.72,1.49,2.87,2.59.27,1.84-14,19.63-18.13,19.88-3.13.19-4.93-3.19-2.1-6C581.78,1230,595.69,1215.58,597.52,1215.12Z" transform="translate(-419.99 -1100.98)"/><path class="cls-32" d="M543.65,1237.78c.37,2.1,3.29,17.84,6.22,21.6,1.77,2.27,7.93,2.44,10,1.06,2.68-1.81,2.83-14.9,2.83-14.9Z" transform="translate(-419.99 -1100.98)"/><path class="cls-33" d="M546.94,1218.09c-2.94-.22-9.18.07-9.61,3.44s2.24,6.27,2.88,8,1,7.25,1.67,9.21,1.54,5.12,7.44,6.94,12.21,2,13.62.51,5.12-11.93,4.34-16.48-6.38-8.35-10.66-9.68A34.85,34.85,0,0,0,546.94,1218.09Z" transform="translate(-419.99 -1100.98)"/><path class="cls-34" d="M567.39,1231.15c-.27-1.12-.79,2.84-3.73,3.69-3.16.91-5.12.88-5.41,2.88-.19,1.41-.55,6.26,1.08,9.13,1.73.11,3-.09,3.61-.7C564.2,1244.82,567.35,1236.17,567.39,1231.15Z" transform="translate(-419.99 -1100.98)"/><path class="cls-35" d="M562.37,1235.28c1.75-.12,4.07-2.46,4.07-2.67s.28.42,1.76,1,2.66,3.65,1,4.63-4.42,2.32-6.31,1.33S560.2,1235.42,562.37,1235.28Z" transform="translate(-419.99 -1100.98)"/><path class="cls-36" d="M555.2,1323.72c1,.8,4.37.15,4.65-.69s1.76-8,3.14-13.68c1.61-6.62,3-10.42,2.79-12-.24-1.77-3.52-2.81-5.21-2.48s-2.27,1.4-2.67,3.67S556,1309.3,555.59,1314C555.24,1318.16,554.36,1323.07,555.2,1323.72Z" transform="translate(-419.99 -1100.98)"/><path class="cls-37" d="M560.19,1294.94a3.17,3.17,0,1,0,3.17-3.17A3.16,3.16,0,0,0,560.19,1294.94Z" transform="translate(-419.99 -1100.98)"/><circle class="cls-38" cx="159.59" cy="134.24" r="2.49"/><path class="cls-39" d="M578.69,1232.63c1.43.14,1.64,2.33,1.4,3.73-.22,1.24-.88,2.1-3.28,2.72-2.1.55-11,2.2-12.7,1.89s-.49-4,1.11-5.72,1.84-2,4-1.94S576.47,1232.41,578.69,1232.63Z" transform="translate(-419.99 -1100.98)"/><path class="cls-40" d="M550.5,1201.67c-2.32,1.47-3.16,4.77-2,7.72s2.74,3.64,2,6.45-1.57,2.9-1.27,3.72,1.19,1.26,3.29,1.61,4,.24,4.49-.28,0-2.5.78-3.86l1-1.83S556.46,1197.88,550.5,1201.67Z" transform="translate(-419.99 -1100.98)"/><path class="cls-41" d="M557,1215.78a5.9,5.9,0,0,0,4.21.13c.86-.52,2.94-8.77,1.4-12.34s-8.49-6-12.57-2.5c-3.27,2.78-2.3,6-1.93,6,.9.13,5.86,1.46,6.49,2.72S555.34,1214.65,557,1215.78Z" transform="translate(-419.99 -1100.98)"/><path class="cls-42" d="M559.92,1293.93a4.83,4.83,0,0,0,5.47,2.11c1.79-.36,2.57-2,2.57-3.93s-.09-18-.5-23.44c-.3-3.89-.35-12.35-4.54-14.09a7.59,7.59,0,0,0-10.75,8.16c1.05,4.4,4.89,10.14,5.87,16.61S559,1292.31,559.92,1293.93Z" transform="translate(-419.99 -1100.98)"/><path class="cls-43" d="M558.94,1215.78c-1.15-.74-2.72-3.67-3.45-8.06-.5-3-4.82-3.76-7.5-3.94-.7,1.8-.18,3.27.07,3.31.9.13,5.86,1.46,6.49,2.72s.79,4.84,2.4,6a5.85,5.85,0,0,0,2.82.44A9.12,9.12,0,0,1,558.94,1215.78Z" transform="translate(-419.99 -1100.98)"/></g></g></svg>