<svg width="67" height="68" viewBox="0 0 67 68" fill="none" xmlns="http://www.w3.org/2000/svg">
<path d="M31.9048 12.9517H22.3333L35.0952 0L47.8571 12.9517H38.2857V27.2957C35.8929 28.7852 33.7552 30.6308 31.9048 32.7678V12.9517ZM26.8 45.331H20.7381L18.5048 38.8551H8.29524L6.0619 45.331H0L10.2095 16.1896H16.5905L26.8 45.331ZM17.069 34.4839L13.4 22.6655L9.73095 34.4839H17.069ZM67 32.3793L54.2381 19.4276V29.1413C42.7205 28.6557 32.8938 37.4628 31.9048 49.1194C26.9276 50.9002 24.3114 56.4695 26.0662 61.5206C27.821 66.5718 33.3086 69.2269 38.2857 67.446C43.2629 65.6328 45.879 60.0959 44.1243 55.0448C43.1671 52.2602 40.9976 50.0907 38.2857 49.1194C39.7852 36.1677 52.5471 35.5201 54.0786 35.5201V45.2339L67 32.3793Z" fill="#004B96"/>
</svg>
