<svg width="68" height="85" viewBox="0 0 68 85" fill="none" xmlns="http://www.w3.org/2000/svg">
<path d="M59.5 37.5581H8.5C6.24566 37.5581 4.08365 38.3912 2.48959 39.874C0.895533 41.3569 0 43.3681 0 45.4651V77.093C0 79.1901 0.895533 81.2013 2.48959 82.6841C4.08365 84.1669 6.24566 85 8.5 85H59.5C61.7543 85 63.9163 84.1669 65.5104 82.6841C67.1045 81.2013 68 79.1901 68 77.093V45.4651C68 43.3681 67.1045 41.3569 65.5104 39.874C63.9163 38.3912 61.7543 37.5581 59.5 37.5581ZM59.5 61.2791H8.5V49.4186H59.5V61.2791ZM55.25 13.8372V33.6047H48.875V19.7674H24.99L35.275 29.3744L30.77 33.6047L12.75 16.8023L30.77 0L35.275 4.23023L24.99 13.8372H55.25Z" fill="#004B96"/>
</svg>
