<svg width="68" height="68" viewBox="0 0 68 68" fill="none" xmlns="http://www.w3.org/2000/svg">
<path d="M47.2678 0.00265352C35.8177 0.00265352 26.5356 5.12136 26.5356 11.4448C26.5356 17.7682 35.8203 22.8896 47.2678 22.8896C58.7179 22.8896 68 17.7682 68 11.4448C68 5.12136 58.7152 0 47.2678 0V0.00265352ZM68 14.844C67.9947 21.1674 58.7179 26.2888 47.2678 26.2888C35.8495 26.2888 26.5886 21.2231 26.5356 14.9289V19.4054C26.5356 22.1068 28.2657 24.5799 31.0997 26.5382C33.9655 27.3183 36.5182 28.401 38.6437 29.7702C41.2787 30.4389 44.1764 30.8476 47.2678 30.8476C58.7179 30.8476 68 25.7289 68 19.4054V14.844ZM68 22.8047C68 29.1281 58.7179 34.2494 47.2678 34.2494C45.8747 34.2494 44.5213 34.1459 43.2052 34C44.2438 35.3987 44.9523 37.0144 45.2776 38.726C45.9383 38.7631 46.5911 38.8082 47.2678 38.8082C58.7179 38.8082 68 33.6895 68 27.3661V22.8047ZM20.7322 29.1891C9.28214 29.1891 0 34.3105 0 40.6339C0 46.9573 9.28479 52.0787 20.7322 52.0787C32.1823 52.0787 41.4645 46.9573 41.4645 40.6339C41.4645 34.3105 32.1797 29.1891 20.7322 29.1891ZM68 30.7653C67.9947 37.0887 58.7179 42.2101 47.2678 42.2101C46.6017 42.2101 45.9277 42.1623 45.2776 42.1252C45.2484 42.3242 45.2325 42.5896 45.1954 42.7886C45.328 43.1893 45.4421 43.5846 45.4421 44.0357V46.6893C46.0445 46.7185 46.6495 46.7689 47.2678 46.7689C58.7179 46.7689 68 41.6502 68 35.3268V30.7653ZM68 38.726C67.9947 45.0494 58.7179 50.1708 47.2678 50.1708C46.6017 50.1708 45.9277 50.123 45.2776 50.0859C45.2484 50.2849 45.2325 50.5502 45.1954 50.7492C45.328 51.1473 45.4421 51.5453 45.4421 51.9964V54.65C46.0445 54.6792 46.6495 54.7296 47.2678 54.7296C58.7179 54.7296 68 49.6109 68 43.2874V38.726ZM41.4645 44.0331C41.4591 50.3565 32.1823 55.4779 20.7322 55.4779C9.31398 55.4779 0.0530711 50.4122 0 44.1154V48.5946C0 54.918 9.27948 60.0393 20.7322 60.0393C32.185 60.0393 41.4645 54.918 41.4645 48.5946V44.0331ZM41.4645 51.9938C41.4591 58.3172 32.1823 63.4385 20.7322 63.4385C9.31398 63.4385 0.0530711 58.3729 0 52.076V56.5552C0 62.8786 9.27948 68 20.7322 68C32.185 68 41.4645 62.8786 41.4645 56.5552V51.9938Z" fill="#004B96"/>
</svg>
