<svg width="68" height="61" viewBox="0 0 68 61" fill="none" xmlns="http://www.w3.org/2000/svg">
<path d="M34 45.6961C39.644 45.6961 44.2 40.9859 44.2 35.1509C44.2 31.214 42.126 27.7692 39.1 25.9765L6.086 6.22171L24.888 39.8963C26.588 43.341 30.022 45.6961 34 45.6961ZM34 0C27.846 0 22.1 1.75754 17.102 4.63992L24.242 8.89317C27.2 7.69804 30.6 7.03018 34 7.03018C49.028 7.03018 61.2 19.6142 61.2 35.1509C61.2 42.9192 58.174 49.9494 53.244 55.0111H53.21C51.884 56.382 51.884 58.5965 53.21 59.9674C54.536 61.3383 56.712 61.3383 58.038 60.0026C64.192 53.6402 68 44.8525 68 35.1509C68 15.8179 52.7 0 34 0ZM0 35.1509C0 44.8525 3.808 53.6402 9.962 60.0026C11.288 61.3383 13.43 61.3383 14.756 59.9674C16.082 58.5965 16.082 56.382 14.756 55.0111C9.826 49.9142 6.8 42.9192 6.8 35.1509C6.8 31.6358 7.446 28.1207 8.636 24.9571L4.522 17.5754C1.7 22.8481 0 28.7534 0 35.1509Z" fill="#004B96"/>
</svg>
